<svg width="190" height="50" viewBox="0 0 190 50" fill="none" xmlns="http://www.w3.org/2000/svg">
    <g clip-path="url(#w9jc48pzxa)">
        <path d="M3.773 20.86c0 .367-.11.726-.318 1.032a1.88 1.88 0 0 1-.847.683 1.913 1.913 0 0 1-2.055-.403 1.832 1.832 0 0 1-.41-2.024c.143-.34.384-.63.694-.834a1.908 1.908 0 0 1 2.384.23 1.855 1.855 0 0 1 .552 1.316M.368 23.594a2.803 2.803 0 0 0-.304.036v11.68c0 2.143 1.496 3.88 3.341 3.88.101-.005.201-.016.301-.033v-11.68c0-2.145-1.493-3.883-3.338-3.883" fill="#E83E45"/>
        <path d="M10.779 22.716c.373 0 .738-.108 1.049-.312.31-.204.553-.494.696-.834a1.833 1.833 0 0 0-.41-2.026 1.914 1.914 0 0 0-2.057-.402c-.344.14-.639.38-.846.685a1.838 1.838 0 0 0 .235 2.346 1.9 1.9 0 0 0 1.333.543zM8.956 27.478v1.779h-5.25v2.057h5.25v7.848c.1.017.201.028.303.034 1.84 0 3.343-1.732 3.343-3.887V23.64c-.1-.017-.202-.03-.304-.036-1.85-.009-3.342 1.73-3.342 3.875z" fill="#898989"/>
        <path d="M22.9 37.085c.5-.614.937-1.276 1.303-1.975.306-.564.544-1.16.711-1.777l-2.215.02c-.064.493-.764 1.726-1.059 2.154l-2.11-2.571c.95-.374 1.63-.784 2.04-1.232a2.27 2.27 0 0 0 .602-1.589 2.303 2.303 0 0 0-.214-1.054 2.34 2.34 0 0 0-.671-.847c-.608-.488-1.442-.733-2.502-.733-1.034 0-1.846.244-2.435.733a2.316 2.316 0 0 0-.65.836 2.28 2.28 0 0 0-.205 1.033c.005.404.096.803.268 1.17.29.548.63 1.069 1.014 1.557-1.128.32-1.946.757-2.452 1.309a2.86 2.86 0 0 0-.713 2.01c-.014.472.08.94.278 1.37.198.429.492.808.861 1.108.77.643 1.813.965 3.132.966a5.657 5.657 0 0 0 3.53-1.153c.317.315.364.498.697.826h2.684s-1.64-1.892-1.894-2.161zm-4.82-8.171a.986.986 0 0 1 .791-.373 1.083 1.083 0 0 1 .855.42c.272.323.413.735.396 1.154.006.425-.128.84-.381 1.185a2.3 2.3 0 0 1-.948.747 5.133 5.133 0 0 1-.76-1.014 2.248 2.248 0 0 1-.285-1.044 1.613 1.613 0 0 1 .332-1.075zm.935 9.088c-1.515.372-2.866-.438-2.866-2.052-.01-.508.121-1.008.381-1.447a2.231 2.231 0 0 1 1.012-.826l2.899 3.573c-.208.393-.912.62-1.426.752z" fill="#E83E45"/>
        <path d="M25.698 31.446zM29.2 38.916l-.044-.023.045.023zM29.081 38.848zM28.527 38.483zM30.326 26.758c-.59 1.077-.886 2.64-.886 4.688 0 2.047.288 3.588.864 4.623.563 1.02 1.385 1.532 2.467 1.533-1.08 0-1.903-.511-2.466-1.533-.576-1.053-.865-2.594-.865-4.624s.296-3.592.886-4.687z" fill="#000"/>
        <path d="m29.156 38.9-.075-.045.075.045zM27.55 37.582c-.896-1.046-1.467-2.404-1.714-4.074.244 1.668.815 3.026 1.714 4.074zM28.223 24.691c-.23.198-.445.412-.644.64-1.02 1.177-1.627 2.743-1.823 4.698.191-1.956.799-3.522 1.823-4.698.198-.229.414-.442.644-.64zM28.578 38.523l-.05-.04.05.04zM32.729 39.733c-1.36 0-2.536-.272-3.527-.817.991.545 2.167.817 3.527.817zM25.698 31.445a17.61 17.61 0 0 0 0 0z" fill="#E83E45"/>
        <path d="M38.898 35.18c.056-.242.105-.492.146-.752h-3.375c-.188.98-.534 1.754-1.039 2.323a2.414 2.414 0 0 1-.833.63 2.45 2.45 0 0 1-1.026.22c-1.08 0-1.903-.51-2.467-1.532-.576-1.052-.864-2.594-.864-4.623 0-2.03.296-3.593.886-4.688a3.42 3.42 0 0 1 .719-.907 2.54 2.54 0 0 1 1.726-.626c.73 0 1.37.312 1.903.937.532.625.844 1.463.93 2.47h2.7a.66.66 0 0 0 .425-.207.64.64 0 0 0 .172-.436.651.651 0 0 0-.049-.238 6.772 6.772 0 0 0-.126-.494v-.013a6.44 6.44 0 0 0-.328-.897v-.015a4.999 4.999 0 0 0-.198-.393c0-.012-.013-.023-.019-.034a5.295 5.295 0 0 0-.468-.698l-.033-.042c-.082-.102-.17-.199-.259-.294l-.044-.043a5.344 5.344 0 0 0-.29-.277c-1.068-.908-2.51-1.363-4.327-1.364-1.848 0-3.357.504-4.526 1.513-.23.198-.446.411-.644.64-1.02 1.177-1.627 2.743-1.823 4.698a14.68 14.68 0 0 0-.066 1.416c-.002.69.046 1.38.146 2.063.243 1.668.815 3.026 1.714 4.074.146.169.302.33.465.483.16.148.329.288.505.418l.05.04c.163.117.33.225.504.325l.075.045.045.023c.992.544 2.168.816 3.528.817.357 0 .714-.021 1.07-.061.069 0 .142-.01.21-.02.067-.009.11-.02.167-.029.142-.021.284-.043.421-.073.102-.022.199-.05.297-.076.099-.025.173-.04.255-.066.68-.2 1.314-.53 1.862-.975.102-.083.2-.18.295-.264l.044-.041c.093-.092.182-.18.266-.286.013-.012.022-.026.035-.039.18-.214.342-.442.484-.682l.019-.03a5.63 5.63 0 0 0 .21-.389V36.7a6.773 6.773 0 0 0 .482-1.338c0-.014.01-.027.013-.041l.035-.14zM81.07 31.454c-1.233 0-2.213.36-2.94 1.078-.729.718-1.089 1.699-1.08 2.942 0 1.232.36 2.212 1.08 2.941.719.73 1.699 1.097 2.94 1.104 1.233 0 2.21-.363 2.929-1.09.72-.726 1.084-1.711 1.094-2.955 0-1.235-.365-2.216-1.094-2.942-.73-.727-1.706-1.086-2.93-1.077zm1.166 6.227c-.291.506-.68.761-1.166.761-.487 0-.897-.255-1.18-.761-.282-.506-.423-1.257-.423-2.209 0-.951.142-1.684.423-2.21.283-.497.675-.746 1.18-.746.505 0 .875.25 1.166.746.3.527.45 1.264.45 2.21 0 .947-.149 1.683-.448 2.209h-.002zM50.702 28.629h-1.404l.073 7.36-3.987-7.068v-.014a.632.632 0 0 0-.5-.277h-2.26V39.26h1.422a.632.632 0 0 0 .388-.18.615.615 0 0 0 .18-.384v-.12l-.065-7.45 4.601 8.134h2.14V29.137a.618.618 0 0 0-.204-.356.634.634 0 0 0-.384-.152z" fill="#E83E45"/>
        <path d="M65.245 38.212a8.07 8.07 0 0 0-.002 0 2.917 2.917 0 0 0 .002 0zM61.639 32.53v4.447c0 .774.135 1.356.401 1.747-.266-.393-.401-.975-.401-1.747V32.53zM64.21 39.516z" fill="#000"/>
        <path d="M63.861 36.735c0 .516.068.888.202 1.118-.135-.23-.202-.602-.202-1.118V32.53v4.205zM65.695 38.139v1.235c-.233.038-.476.07-.73.1a7.25 7.25 0 0 0 0 0c.252-.03.495-.062.73-.1v-1.235zM62.033 38.72c.045.068.096.131.151.19.315.326.819.516 1.508.579-.69-.063-1.193-.253-1.508-.578a1.591 1.591 0 0 1-.151-.19z" fill="#E83E45"/>
        <path d="M65.245 38.212a2.95 2.95 0 0 1-.38.029c-.19.006-.38-.04-.546-.135a.732.732 0 0 1-.252-.253c-.135-.23-.202-.602-.202-1.118V32.53h1.675v-.501a.616.616 0 0 0-.174-.342.633.633 0 0 0-.345-.175h-1.156v-2.167h-2.226v2.167h-1.31v1.018h1.31v4.447c0 .772.135 1.354.401 1.747.046.067.096.13.151.19.316.325.819.515 1.508.578.164.015.334.024.518.024.253 0 .506-.015.758-.042.252-.03.494-.062.73-.1v-1.235c-.167.03-.316.053-.46.073zM75.493 31.454l-1.413 5.31-1.148-4.706-.064-.26a.625.625 0 0 0-.476-.343h-1.385l-1.276 5.237-1.225-4.735v-.025a.62.62 0 0 0-.21-.334.637.637 0 0 0-.372-.143h-1.711l2.284 7.804h1.808l1.325-5.323 1.326 5.323h1.792l2.344-7.805h-1.599zM90.232 31.038a2.092 2.092 0 0 0-1.43.46c-.364.314-.64.83-.829 1.549v-1.215a.613.613 0 0 0-.175-.393.631.631 0 0 0-.392-.186h-1.429v8.006h2.244v-4.233c0-.737.18-1.32.538-1.75a1.751 1.751 0 0 1 1.398-.618h.22c.074.01.147.024.218.044v-1.635a.663.663 0 0 0-.183-.029h-.18zM96.306 33.995l2.244-2.54h-1.836l-3.044 3.601v-5.851a.615.615 0 0 0-.179-.387.633.633 0 0 0-.39-.182h-1.675v10.623h2.244v-2.497l1.208-1.334 1.88 3.831h2.251l-2.703-5.264zM57.333 38.04a1.435 1.435 0 0 1-.977.359 1.516 1.516 0 0 1-.746-.167 1.49 1.49 0 0 1-.565-.508c-.329-.479-.494-1.177-.495-2.093h5.047a.633.633 0 0 0 .405-.18.615.615 0 0 0 .184-.397c0-.072-.013-.138-.02-.206-.097-1.054-.417-1.89-.97-2.503-.66-.728-1.606-1.092-2.84-1.092-1.272 0-2.297.379-3.074 1.135-.776.757-1.16 1.756-1.15 2.998 0 1.271.365 2.276 1.094 3.013.73.737 1.744 1.11 3.044 1.118 1.03 0 1.87-.196 2.52-.588.67-.4 1.093-1.167 1.349-1.96H57.93a1.934 1.934 0 0 1-.598 1.07zm-2.23-5.244a1.36 1.36 0 0 1 1.121-.539 1.403 1.403 0 0 1 1.166.539c.31.402.471.99.48 1.764H54.58c.04-.78.213-1.37.525-1.764z" fill="#E83E45"/>
    </g>
    <defs>
        <clipPath id="w9jc48pzxa">
            <path fill="#fff" transform="translate(0 19)" d="M0 0h99v20.733H0z"/>
        </clipPath>
    </defs>
</svg>
