<svg width="190" height="50" viewBox="0 0 190 50" fill="none" xmlns="http://www.w3.org/2000/svg">
    <g clip-path="url(#hg1clvmsha)">
        <path d="m89.978 25.295.38 3.352a9.41 9.41 0 0 0-7.238-2.828c-4.826.182-5.83 3.997-5.83 5.509 0 1.616 1.245 5.289 5.934 5.407 3.227.077 7.102-1.893 7.722-2.692l-.716 3.554c-.016 0-.227.037-.388.043-.51.023-4.53 1.44-6.926 1.362-8.566-.295-9.993-5.118-9.993-7.667 0-2.238 1.043-4.297 3.003-5.727 1.96-1.43 4.269-2.002 6.813-2.002 3.451 0 6.131 1.589 6.751 1.589l.488.07v.03zM.638 37.509a2.08 2.08 0 0 1-.311 1.087c-.032.057-.068.109-.102.161h5.087a1.96 1.96 0 0 1-.093-.145 2.074 2.074 0 0 1-.31-1.108V25.265c.002-.382.11-.756.312-1.08.032-.057.068-.113.107-.166H.21c.039.057.077.114.114.177a2.1 2.1 0 0 1 .31 1.07v12.256l.003-.013zM29.911 37.509a2.08 2.08 0 0 1-.311 1.087 1.955 1.955 0 0 1-.102.161h5.087l-.093-.145a2.095 2.095 0 0 1-.31-1.108V25.265c.005-.381.112-.755.312-1.08.034-.06.07-.114.104-.166h-5.112c.04.057.078.116.112.177.2.322.308.691.313 1.07v12.256-.013zM25.583 24.167c.031-.06.07-.114.106-.168h-4.02c.04.057.076.113.112.175.202.326.31.701.311 1.085V32.915l-7.351-8.13a.658.658 0 0 1-.111-.788H9.406c.04.054.075.115.112.177.194.317.301.679.31 1.05V37.37a2.172 2.172 0 0 1-.309 1.21c-.035.061-.07.114-.108.168h4.38a1.467 1.467 0 0 1-.762-1.38v-9.154l9.477 10.534h2.75V25.227c.013-.376.126-.742.327-1.06zM37.487 23.99v2.61s.182-.47.87-.47h5.482v11.372c0 .384-.106.76-.309 1.087-.032.057-.068.11-.102.161h5.087c-.03-.047-.064-.095-.093-.145a2.073 2.073 0 0 1-.309-1.108V26.13h5.491s.681.012.863.47v-2.61h-16.98zM71.51 36.14c-.17.454-.862.472-.862.472h-8.97V32.11h7.778s.68.014.86.47v-3.001c-.17.454-.86.47-.86.47h-7.779v-3.906h8.49s.68 0 .862.465v-2.608H56.986c.04.057.079.116.113.177a2.1 2.1 0 0 1 .311 1.069v12.257c0 .384-.107.76-.309 1.087a2.036 2.036 0 0 1-.102.157h14.512V36.14zM108.582 37.547v-12.3c.002-.384.11-.76.311-1.087.034-.057.071-.111.107-.166h-4.683l.116.175c.197.326.304.698.311 1.078v4.497h-7.726v-4.497a2.1 2.1 0 0 1 .311-1.087 1.48 1.48 0 0 1 .11-.166h-4.676c.038.057.079.116.115.175.198.325.305.698.311 1.078v12.298c0 .386-.107.763-.308 1.092-.034.057-.07.109-.105.161h4.653c-.03-.048-.061-.095-.09-.145a2.068 2.068 0 0 1-.312-1.112V31.83h7.722v5.715a2.104 2.104 0 0 1-.311 1.092c-.032.057-.069.109-.103.161h4.654c-.032-.048-.064-.095-.094-.145a2.066 2.066 0 0 1-.313-1.106z" fill="#000"/>
        <path d="M36.749 16H0v2.313h36.749V16z" fill="#F7DB67"/>
        <path d="M108.957 16H72.576v2.313h36.381V16z" fill="#000"/>
        <path d="M72.576 16H36.749v2.313h35.827V16z" fill="#FF8C00"/>
    </g>
    <defs>
        <clipPath id="hg1clvmsha">
            <path fill="#fff" transform="translate(0 16)" d="M0 0h109v23H0z"/>
        </clipPath>
    </defs>
</svg>
