<svg width="190" height="50" viewBox="0 0 190 50" fill="none" xmlns="http://www.w3.org/2000/svg">
    <g clip-path="url(#mc8yyws0ja)">
        <path d="M56.786 34.06H45.223v1.229h11.563V34.06zM53.62 24.404v2.508h-5.23v-2.508h-1.656v6.73a.44.44 0 0 0 .408.43h7.726a.442.442 0 0 0 .408-.43v-6.73H53.62zm0 5.943h-5.23v-2.261h5.23v2.261zM61.318 24.34c-2.041 0-3.732 1.731-3.732 3.832s1.691 3.802 3.732 3.802c2.041 0 3.743-1.717 3.743-3.802s-1.704-3.831-3.743-3.831zm0 6.433c-1.144 0-2.036-1.092-2.036-2.6 0-1.51.892-2.632 2.036-2.632 1.144 0 2.036 1.122 2.036 2.631 0 1.509-.88 2.601-2.036 2.601zM66.726 23.614v12.702h1.564c.076-.479.11-.963.105-1.448V23.614h-1.669zM79.43 23.614v7.387a9.15 9.15 0 0 1-2.024.222h-.503v-5.55h1.172v-1.234h-7.433v1.234h1.162v5.55h-1.162v1.234h6.625a7.084 7.084 0 0 0 2.168-.33v4.196h1.563c.077-.479.112-.963.105-1.448v-11.26H79.43zm-4.13 7.609h-1.893v-5.55H75.3v5.55zM86.08 36.041c-1.34-1.85-2.445-3.933-2.445-6.143s1.106-4.296 2.446-6.144h1.47c-1.313 2.042-2.207 4.004-2.207 6.144 0 2.14.894 4.1 2.208 6.143H86.08zM94.746 32.094v2.911c.004.439-.027.877-.091 1.311h-1.59v-4.23h-4.943v-1.233H99.69v1.234l-4.944.007zm-5.243-6.837v-1.234h8.803v1.234h-3.514v.374c0 1.762 2.13 3.01 4.088 3.148l-.706.994c-1.367-.055-3.403-.912-4.272-2.03-.865 1.118-2.902 1.975-4.269 2.03l-.706-.994c1.958-.138 4.086-1.38 4.086-3.148v-.374h-3.51zM101.558 36.041h-1.474c1.315-2.044 2.209-4.018 2.209-6.143 0-2.126-.894-4.102-2.209-6.144h1.474c1.34 1.848 2.442 3.92 2.442 6.144s-1.102 4.291-2.442 6.143z" fill="#4D4D4F"/>
        <path d="M0 17c.177 3.34.779 6.642 1.792 9.83 4.096-5.464 12.89-6.555 18.257-6.68.137-1.044.236-2.096.298-3.15H0zm7.574 9.998C2.62 34.092 9.67 38.913 10.454 39.42c5.461-4.658 8.445-11.456 9.51-18.671-3.886.437-9.326 1.864-12.39 6.25z" fill="url(#3geesjoenb)"/>
        <path d="M19.964 20.749v24.253h5.826V37.02h5.025v-.01a8.15 8.15 0 0 0 5.758-2.382 8.121 8.121 0 0 0 0-11.495 8.15 8.15 0 0 0-5.758-2.38l-10.851-.004z" fill="url(#c8wnulxncc)"/>
    </g>
    <defs>
        <radialGradient id="3geesjoenb" cx="0" cy="0" r="1" gradientUnits="userSpaceOnUse" gradientTransform="matrix(16.3372 0 0 16.3079 4.76 20.802)">
            <stop stop-color="#A8A9A4"/>
            <stop offset="1" stop-color="#6E6D61"/>
        </radialGradient>
        <radialGradient id="c8wnulxncc" cx="0" cy="0" r="1" gradientUnits="userSpaceOnUse" gradientTransform="matrix(10.3218 0 0 10.3033 24.678 25.453)">
            <stop stop-color="#F79548"/>
            <stop offset=".27" stop-color="#F58343"/>
            <stop offset=".81" stop-color="#F15435"/>
            <stop offset="1" stop-color="#EF4130"/>
        </radialGradient>
        <clipPath id="mc8yyws0ja">
            <path fill="#fff" transform="translate(0 17)" d="M0 0h104v28H0z"/>
        </clipPath>
    </defs>
</svg>
