<svg width="190" height="50" viewBox="0 0 190 50" fill="none" xmlns="http://www.w3.org/2000/svg">
    <g clip-path="url(#bjt5rih6qa)">
        <path d="M18.93 36.618a9.454 9.454 0 0 0-4.864-.995c-1.024 0-2.174 0-3.084.126-.468.088-.518.403-.518.516v6.878c0 .139.063.542.758.542h2.363c1.85.112 3.695-.285 5.333-1.147a3.634 3.634 0 0 0 1.732-3.098 3.192 3.192 0 0 0-1.72-2.872m-5.054 6.298h-1.58v-6.298a15.2 15.2 0 0 1 1.82-.101c3.286 0 4.89 1.197 4.878 3.086 0 2.154-1.782 3.376-5.118 3.376M9.124 43.521l-4.537-4.447 4.158-3.237c.202-.164-.126-.151-.126-.151H7.545c-.45-.02-.894.11-1.264.365l-4.398 3.477v-3.3c0-.139-.076-.542-.783-.542H.228c-.165 0-.203.088-.203.139v7.772s0 .138.203.138H1.1c.707 0 .77-.416.783-.541v-2.369l1.453-1.083 3.551 3.527a1.99 1.99 0 0 0 1.264.403h.872c.076 0 .19 0 .076-.151M32.984 42.803h-5.055v-6.575c0-.139 0-.542-.771-.542h-.897c-.165 0-.19.088-.19.139v7.305c0 .127.063.542.77.542h5.46c.708 0 .771-.415.771-.541v-.152a.15.15 0 0 0-.096-.167.151.151 0 0 0-.068-.009M35.372 36.958c.657 0 1.049-.277 1.049-.63 0-.352-.417-.655-1.011-.655-.594 0-1.024.29-1.024.655 0 .366.392.63.986.63M35.587 37.928h-.935a.177.177 0 0 0-.165.177v5.39a.166.166 0 0 0 .044.125.163.163 0 0 0 .12.052h.936c.708 0 .77-.415.77-.541v-4.649c0-.138-.062-.554-.77-.554M69 38.558c0-.113 0-.567-.77-.567h-.734a.164.164 0 0 0-.164.176v.693a3.313 3.313 0 0 0-2.692-.982c-1.997 0-4.208 1.096-4.208 3.035 0 1.588 1.832 2.797 3.968 2.797a3.662 3.662 0 0 0 2.755-.957v.63c0 1.448-1.175 2.015-2.78 2.015a8.949 8.949 0 0 1-2.616-.39c-.228-.064-.29.075-.29.075v.113s-.228.605.644.794c.746.139 1.503.21 2.262.214a6.538 6.538 0 0 0 3.16-.68 2.978 2.978 0 0 0 1.528-2.633v-4.333m-1.959 2.67c.001.192-.042.382-.126.555a2.335 2.335 0 0 1-2.174 1.07c-1.68 0-2.527-.944-2.527-2.066a2.262 2.262 0 0 1 1.603-2.08c.299-.092.613-.12.924-.086a2.307 2.307 0 0 1 2.2 1.108c.069.146.1.306.088.467l.012 1.032zM46.278 37.928h-.986a1.14 1.14 0 0 0-1.023.567s-1.554 2.834-1.997 3.779c-.114.227-.24 0-.253 0-.43-.92-1.984-3.779-1.984-3.779a1.135 1.135 0 0 0-1.023-.567h-.973s-.24 0-.152.164l3.096 5.404a.314.314 0 0 0 .253.176h1.794a.316.316 0 0 0 .253-.176l3.197-5.404c.089-.164-.139-.164-.139-.164M48.325 35.673c-.58 0-.973.29-.973.655 0 .366.367.63.935.63.57 0 .999-.277.999-.63 0-.352-.392-.655-.96-.655M49.109 43.496v-5.392a.162.162 0 0 0-.044-.123.165.165 0 0 0-.12-.053h-.632c-.708 0-.771.428-.771.554v4.61c0 .127.076.542.77.542h.633a.152.152 0 0 0 .16-.107.152.152 0 0 0 .004-.069M59.067 43.496v-3.238c0-1.965-2.161-2.443-3.349-2.443a3.675 3.675 0 0 0-2.856 1.07v-.403c0-.15-.114-.516-.77-.516h-.759a.166.166 0 0 0-.12.052.162.162 0 0 0-.044.124v5.392a.164.164 0 0 0 .164.176h.935c.695 0 .771-.416.771-.542v-2.91c0-.168.035-.335.101-.49a2.322 2.322 0 0 1 2.11-1.059c1.48 0 1.997.768 1.997 1.688v2.771c0 .126.076.542.771.542h.935a.166.166 0 0 0 .156-.11.164.164 0 0 0 .009-.066" fill="#1D1D1B"/>
        <path d="m32.377 31.39-17.54-16.375a.52.52 0 0 0-.645-.063l-1.668 1.121a.328.328 0 0 0-.076.542l15.999 14.94.126.113c.438.322.974.482 1.517.453h2.3c.19 0 .543-.201 0-.718" fill="#B2B2B2"/>
        <path d="M31.644 0h-3.361a1.989 1.989 0 0 0-1.05.315L8.039 13.125c-2.528 1.588-2.376-.062-2.376-.062V.466a.477.477 0 0 0-.531-.504H3.058a.482.482 0 0 0-.53.504v31.1a.477.477 0 0 0 .53.505h2.124a.483.483 0 0 0 .498-.3.477.477 0 0 0 .032-.204V20.04a3.77 3.77 0 0 1 1.719-3.262L31.72.592s.86-.592 0-.592M65.272 14.99 41.577.15a1.42 1.42 0 0 0-.556-.138h-3.437c-1.264 0 0 .768 0 .768l23.631 14.814a3.315 3.315 0 0 1 1.416 2.96v8.817a1.997 1.997 0 0 1-.6 1.567 2.01 2.01 0 0 1-1.586.562H40.566c-1.845-.088-2.148-1.26-2.186-1.852V11.475a.766.766 0 0 0-.342-.63l-1.996-1.259c-.632-.353-.796-.151-.834.063v20.96a1.544 1.544 0 0 0 .56 1.134 1.557 1.557 0 0 0 1.222.34h27.03a1.57 1.57 0 0 0 1.624-.858c.096-.196.15-.41.159-.628V16.061a1.332 1.332 0 0 0-.468-1.071" fill="#BE1622"/>
        <path d="M3.83 45.788a2.535 2.535 0 0 0-.986 0v1.777h-.291V45.7a4.88 4.88 0 0 1 1.264-.126h.1l-.088.214zM4.537 46.733c.063.504.518.769 1.264.769.282.002.563-.036.834-.114l.113.139c-.312.09-.635.132-.96.126-.834 0-1.479-.29-1.479-1.02 0-.731.594-1.008 1.327-1.008s1.264.277 1.264.92l-2.363.188zm1.036-.982c-.556 0-1.036.264-1.036.856l1.997-.164c0-.49-.405-.692-.96-.692zM9.554 47.615V46.19c0-.327-.505-.44-.986-.44a2.911 2.911 0 0 0-.733.088v1.776h-.29V45.75c.35-.089.712-.131 1.074-.126.632 0 1.264.138 1.264.554v1.436h-.329zM11.753 47.64c-.582 0-.771-.252-.771-.453v-1.411h-.493v-.101h.493v-.466l.29-.076v.542h.696v.1h-.695v1.412c0 .163.19.327.556.327h.139v.126h-.215zM13.661 47.653c-.847 0-1.2-.227-1.2-.555 0-.541.884-.68 1.97-.743v-.138c0-.34-.366-.454-.871-.454a2.76 2.76 0 0 0-.809.114l-.088-.126c.305-.08.62-.123.935-.126.594 0 1.124.15 1.124.604v1.26a3.87 3.87 0 0 1-1.061.126m.77-1.184c-1.01.075-1.68.176-1.68.63 0 .453.392.44.96.44.244.006.486-.024.72-.088v-.982zM15.885 44.78h-.29v2.822h.29v-2.821zM20.346 47.615V46.19c0-.214-.253-.44-.872-.44a2.9 2.9 0 0 0-.834.126v1.738h-.29V44.78h.29v.97c.274-.085.56-.127.847-.126.885 0 1.163.302 1.163.554v1.436h-.304zM22.71 47.653c-.91 0-1.264-.441-1.264-1.008s.392-1.02 1.263-1.02c.872 0 1.264.453 1.264 1.02s-.392 1.008-1.264 1.008zm0-1.902a.874.874 0 0 0-.93.521.866.866 0 0 0-.069.373c0 .416.24.87.998.87.759 0 1.012-.454 1.012-.87s-.228-.894-1.012-.894zM25.843 47.653c-.808 0-1.112-.277-1.112-.63v-1.348h.291v1.348c0 .277.303.491.86.491.266-.01.53-.057.783-.139v-1.75h.29v1.851a4.016 4.016 0 0 1-1.111.126M28.472 47.653a2.776 2.776 0 0 1-.872-.126l.114-.139c.235.084.484.123.733.114.467 0 .847-.177.847-.404 0-.579-1.567-.29-1.567-.97 0-.239.366-.503 1.023-.503.254 0 .506.043.746.126l-.114.126a1.784 1.784 0 0 0-.62-.114c-.454 0-.745.177-.745.366 0 .529 1.58.264 1.58.957 0 .277-.468.567-1.125.567M30.456 45.272c-.114 0-.215-.063-.215-.139 0-.075.101-.138.215-.138.114 0 .215.063.215.138 0 .076-.101.139-.215.139zm-.139 2.343v-1.94h.278v1.94h-.278zM33.527 47.615V46.19c0-.327-.506-.44-.986-.44a2.721 2.721 0 0 0-.72.088v1.776h-.303V45.75a4.22 4.22 0 0 1 1.086-.126c.62 0 1.264.138 1.264.554v1.436h-.341zM35.7 48.421c-.349.003-.697-.04-1.036-.126l.101-.126c.294.074.595.112.898.114.682 0 .998-.252.998-.58v-.151a2.661 2.661 0 0 1-.796.1c-.822 0-1.264-.39-1.264-.982s.493-1.045 1.479-1.045c.312-.006.623.036.922.126v1.914c0 .466-.442.756-1.264.756m.96-2.582a1.903 1.903 0 0 0-.644-.088c-.796 0-1.188.378-1.188.92 0 .54.38.856 1.138.856.236.005.47-.03.695-.101v-1.587zM40.339 47.653a3.197 3.197 0 0 1-.936-.126V44.78h.291v.957c.257-.084.526-.122.796-.113.784 0 1.327.403 1.327.995s-.505 1.033-1.478 1.033zm.075-1.902a2.722 2.722 0 0 0-.72.088v1.6c.204.064.418.094.632.088.821 0 1.188-.39 1.188-.907s-.354-.87-1.1-.87M43.65 47.653c-.81 0-1.125-.277-1.125-.63v-1.348h.29v1.348c0 .277.304.491.873.491.26.007.519-.023.77-.088v-1.751h.304v1.852a4.176 4.176 0 0 1-1.112.126M46.265 47.653a2.75 2.75 0 0 1-.859-.126l.114-.139c.234.085.483.124.733.114.467 0 .846-.177.846-.404 0-.579-1.58-.29-1.58-.97 0-.239.367-.503 1.024-.503.258.001.514.044.759.126l-.114.126a1.798 1.798 0 0 0-.632-.114c-.455 0-.746.177-.746.366 0 .529 1.593.264 1.593.957 0 .277-.468.567-1.138.567M48.3 45.272c-.126 0-.215-.063-.215-.139 0-.075.089-.138.215-.138s.202.063.202.138c0 .076-.088.139-.202.139zm-.152 2.343v-1.94h.291v1.94h-.29zM51.32 47.615V46.19c0-.327-.492-.44-.973-.44a2.912 2.912 0 0 0-.733.088v1.776h-.29V45.75c.35-.089.712-.131 1.074-.126.62 0 1.264.138 1.264.554v1.436h-.341zM52.622 46.733c0 .504.505.769 1.2.769.287.001.572-.037.847-.114l.114.139a3.4 3.4 0 0 1-.96.126c-.835 0-1.492-.29-1.492-1.02 0-.731.594-1.008 1.327-1.008s1.264.277 1.264.92l-2.3.188zm1.024-.982c-.556 0-1.037.264-1.037.856l1.997-.164c0-.49-.404-.692-.96-.692zM56.274 47.653a2.687 2.687 0 0 1-.859-.126l.101-.139c.24.085.492.124.746.114.455 0 .834-.177.834-.404 0-.579-1.567-.29-1.567-.97 0-.239.366-.503 1.023-.503.254 0 .506.043.746.126l-.101.126a1.874 1.874 0 0 0-.632-.114c-.455 0-.746.177-.746.366 0 .529 1.58.264 1.58.957 0 .277-.455.567-1.125.567M58.739 47.653a2.776 2.776 0 0 1-.872-.126l.113-.139c.235.085.484.124.733.114.468 0 .847-.177.847-.404 0-.579-1.567-.29-1.567-.97 0-.239.354-.503 1.024-.503.253 0 .505.043.745.126l-.113.126a1.785 1.785 0 0 0-.62-.114c-.455 0-.758.177-.758.366 0 .529 1.592.264 1.592.957 0 .277-.467.567-1.124.567" fill="#B2B2B2"/>
    </g>
    <defs>
        <clipPath id="bjt5rih6qa">
            <path fill="#fff" d="M0 0h69v48.421H0z"/>
        </clipPath>
    </defs>
</svg>
