<svg width="190" height="50" viewBox="0 0 190 50" fill="none" xmlns="http://www.w3.org/2000/svg">
    <g clip-path="url(#29hghd5m3a)">
        <path d="M3.373 24.01v6.218l5.996-6.219h4.2l-5.993 5.925 6.57 9.076H9.925l-4.62-6.744-1.938 1.896v4.832H0V24.009h3.373zM37.048 35.145c.166.323.41.602.71.812a3.09 3.09 0 0 0 1.038.465c.402.099.816.149 1.23.148.31-.001.619-.024.925-.07.32-.043.632-.135.924-.271.28-.127.526-.316.717-.553.2-.255.301-.57.287-.891a1.24 1.24 0 0 0-.378-.948 3.05 3.05 0 0 0-.998-.604 9.978 9.978 0 0 0-1.395-.42c-.52-.12-1.047-.256-1.58-.401a14.228 14.228 0 0 1-1.615-.493 5.53 5.53 0 0 1-1.396-.752 3.583 3.583 0 0 1-.982-1.154 3.413 3.413 0 0 1-.381-1.675c-.018-.67.15-1.332.484-1.918.314-.537.745-1 1.263-1.355a5.481 5.481 0 0 1 1.764-.803 7.676 7.676 0 0 1 1.97-.262 9.517 9.517 0 0 1 2.207.25c.674.154 1.312.43 1.88.815.54.372.983.863 1.293 1.434.34.656.507 1.385.484 2.12h-3.12a2.5 2.5 0 0 0-.278-1.064 1.792 1.792 0 0 0-.627-.664 2.658 2.658 0 0 0-.892-.341 5.692 5.692 0 0 0-1.098-.101c-.263 0-.525.028-.782.082-.251.05-.491.145-.707.281-.21.13-.388.3-.524.503a1.305 1.305 0 0 0-.206.761 1.26 1.26 0 0 0 .164.683c.166.216.39.384.646.483.432.188.88.34 1.338.455.569.15 1.312.337 2.229.563.275.053.646.151 1.14.294.514.152 1.001.378 1.448.67.494.325.916.745 1.24 1.235.371.594.553 1.283.524 1.978a4.342 4.342 0 0 1-.388 1.83 3.99 3.99 0 0 1-1.163 1.453 5.538 5.538 0 0 1-1.91.948 9.204 9.204 0 0 1-2.636.342 9.53 9.53 0 0 1-2.351-.291 5.976 5.976 0 0 1-2.013-.913 4.549 4.549 0 0 1-1.386-1.58 4.652 4.652 0 0 1-.49-2.291h3.12c-.01.418.084.833.271 1.21z" fill="#231815"/>
        <path fill-rule="evenodd" clip-rule="evenodd" d="M20.724 39v-4.342c1.9-.588 3.745-1.339 5.511-2.243V39h3.315v-8.598a21.437 21.437 0 0 0 4.523-4.291 28.523 28.523 0 0 1-7.838 4.664 30.535 30.535 0 0 1-5.511 1.58c-1.077.21-2.182.365-3.315.464a44.935 44.935 0 0 1-3.518.165v3.245a52.872 52.872 0 0 0 3.515-.676V39h3.318z" fill="#E50012"/>
        <path fill-rule="evenodd" clip-rule="evenodd" d="M17.41 32.039a55.083 55.083 0 0 0 3.314-.632v-7.398h-3.315v8.04-.01zM26.235 24.01v5.839a20.248 20.248 0 0 0 3.315-1.58v-4.26h-3.315z" fill="#231815"/>
    </g>
    <defs>
        <clipPath id="29hghd5m3a">
            <path fill="#fff" transform="translate(0 24)" d="M0 0h46v15H0z"/>
        </clipPath>
    </defs>
</svg>
