<svg width="190" height="50" viewBox="0 0 190 50" fill="none" xmlns="http://www.w3.org/2000/svg">
    <g clip-path="url(#f54ixgg8xa)">
        <path d="m11.444 37.504-3.798-4.718 5.513-6.865h-3.007c-1.35 0-2.276.419-3.095 1.387l-2.906 3.61V21H1.24C.557 21 0 21.56 0 22.257v18.516h2.911c.689 0 1.24-.564 1.24-1.257v-4.927l2.363 2.927 2.004 2.499c.406.516.94.755 1.485.755h4.07L11.444 37.5v.003zM18.915 40.773c-2.24 0-3.795-1.567-3.795-3.839v-14.68c0-.693.557-1.254 1.245-1.254h2.915v15.147c0 .622.501 1.13 1.114 1.13h2.97v2.239c0 .693-.558 1.257-1.246 1.257h-3.203z" fill="#000"/>
        <path d="m4.55 30.414.007-.006s-.006.006-.01.006h.004zm19.412-5.582-.254.272c-.015.003-.79.811-3.037.811H10.08c-1.672 0-2.462.69-3.063 1.434l-.333.413s-.017.018-.023.027l-2.103 2.616c.764-.58 1.814-.932 2.882-.932h13.235c1.607 0 3.148-.48 3.276-1.696.018-.098.015-.157.015-.157v-2.788h-.003zM29.084 35.218c0-5.234 2.868-6.311 5.479-6.311.59 0 1.132.065 1.63.198V26.73c0-2 .108-2.641.87-2.641h2.021c-.218.528-.326 1.342-.326 2.508v13.52c0 .44-.216.638-.654.638h-1.91v-.637c-.785.528-1.675.88-2.763.88-2.847 0-4.347-2.001-4.347-5.783v.002zm7.11 2.507v-6.29a4.514 4.514 0 0 0-1.436-.197c-1.37 0-3.066.395-3.066 4.024 0 2.177.829 3.407 2.349 3.407.63 0 1.654-.35 2.153-.944zM41.87 40.407c-.218-.156-.458-.419-.458-.75l.024-1.649c.913.464 2.088.706 3.217.706 1.26 0 1.739-.529 1.739-1.186 0-.658-.263-1.077-1.111-1.384l-1.109-.395c-1.607-.573-2.695-1.496-2.695-3.408 0-2.396 1.671-3.254 4.259-3.254 1.024 0 2-.044 2.48-.242v1.935c0 .463-1.045.593-2.37.593-1.175 0-1.761.263-1.761 1.012 0 .484.195.856.956 1.121l1.088.375c1.61.549 2.871 1.54 2.871 3.54 0 2.266-1.284 3.585-4.478 3.585-.87 0-2.086-.242-2.652-.593v-.006z" fill="#ED1B23"/>
    </g>
    <defs>
        <clipPath id="f54ixgg8xa">
            <path fill="#fff" transform="translate(0 21)" d="M0 0h49v20H0z"/>
        </clipPath>
    </defs>
</svg>
