<svg width="190" height="50" viewBox="0 0 190 50" fill="none" xmlns="http://www.w3.org/2000/svg">
    <g clip-path="url(#rt3z15wtsa)">
        <path d="m11.376 37.519-3.778-4.723 5.48-6.87H10.09a3.613 3.613 0 0 0-1.7.315 3.679 3.679 0 0 0-1.371 1.073l-2.902 3.615V21H1.214c-.327 0-.64.132-.872.368a1.268 1.268 0 0 0-.361.888v18.528h2.902a1.212 1.212 0 0 0 .875-.366 1.257 1.257 0 0 0 .363-.89v-4.925l2.346 2.955 1.992 2.502c.17.23.388.417.64.548.251.13.529.2.811.206h4.043l-2.577-3.295zM18.8 40.784a3.538 3.538 0 0 1-1.472-.24 3.591 3.591 0 0 1-1.25-.827 3.671 3.671 0 0 1-.813-1.271 3.725 3.725 0 0 1-.238-1.498V22.255c.001-.334.132-.653.365-.889.232-.235.546-.367.873-.367h2.902v15.16c.002.298.119.584.326.796.208.21.488.33.782.331h2.95v2.241a1.272 1.272 0 0 1-.364.889 1.227 1.227 0 0 1-.874.367H18.8z" fill="#1D1D1B"/>
        <path d="m23.815 24.832-.256.276s-.784.812-3.013.812h-10.53a3.455 3.455 0 0 0-1.7.323c-.53.25-.992.632-1.342 1.11l-.333.414v.03l-2.09 2.62a4.778 4.778 0 0 1 2.864-.936H20.57c1.596 0 3.13-.493 3.255-1.7a1.151 1.151 0 0 0 0-.157l-.01-2.792zM30.533 39.518c-.783-1.049-1.175-2.55-1.175-4.516 0-1.872.38-3.34 1.141-4.403.765-1.059 2.041-1.59 3.84-1.59 1.668 0 2.848.475 3.54 1.427a5.726 5.726 0 0 1 1.036 3.448v1.187c0 .7-.363 1.054-1.079 1.054h-5.978a2.63 2.63 0 0 0 .159 1.099c.13.35.333.668.596.93a2.94 2.94 0 0 0 2.07.695 8.32 8.32 0 0 0 2.031-.242 8.125 8.125 0 0 0 1.746-.64v1.739a.833.833 0 0 1-.43.68 4.44 4.44 0 0 1-1.51.492c-.676.128-1.362.194-2.05.197-1.862.014-3.153-.522-3.937-1.557zm5.944-5.723a2.727 2.727 0 0 0-.59-1.92 2.155 2.155 0 0 0-1.654-.626 2.055 2.055 0 0 0-.931.151 2.09 2.09 0 0 0-.771.553 3.213 3.213 0 0 0-.605 2.04h4.551v-.198zM41.827 29.186h1.934v.68c.417-.264.866-.471 1.335-.616a5.02 5.02 0 0 1 1.553-.242 4.072 4.072 0 0 1 2.839.931c.682.625 1.025 1.586 1.025 2.891v7.467a.5.5 0 0 1-.138.411.483.483 0 0 1-.404.14h-2.007v-7.387a2.804 2.804 0 0 0-.367-1.601 1.344 1.344 0 0 0-.526-.419 1.318 1.318 0 0 0-.66-.108c-.45 0-.897.073-1.325.217-.472.16-.926.371-1.354.63v8.082c0 .38-.218.571-.648.571h-1.9V29.821a.572.572 0 0 1 .16-.486.55.55 0 0 1 .483-.15zM55.823 44.901a14.41 14.41 0 0 1-1.499-.231c-.285-.074-.43-.3-.43-.68v-1.714c1.077.286 2.185.433 3.298.439a2.788 2.788 0 0 0 1.935-.552c.41-.364.614-1.044.614-2.039v-.221a3.279 3.279 0 0 1-1.054.364 7.07 7.07 0 0 1-1.272.118c-1.596 0-2.773-.432-3.531-1.295-.758-.864-1.135-2.212-1.132-4.044 0-1.93.484-3.423 1.403-4.467a4.836 4.836 0 0 1 1.718-1.21 4.76 4.76 0 0 1 2.06-.36 16.88 16.88 0 0 1 4.352.526v10.698c0 1.67-.4 2.882-1.2 3.634-.8.752-1.974 1.13-3.525 1.133-.58-.002-1.16-.035-1.737-.099zm2.84-6.934a2.396 2.396 0 0 0 1.054-.458v-6.043c-.54-.1-1.09-.144-1.64-.128-1.838 0-2.758 1.236-2.761 3.708 0 2.04.715 3.054 2.137 3.054.41-.003.818-.047 1.22-.133h-.01zM65.704 25.142h2.09v2.064a.502.502 0 0 1-.136.409.483.483 0 0 1-.401.142h-2.05v-2.044c0-.379.164-.571.498-.571zm.063 4.044h2.008v11.022c0 .428-.204.64-.605.64h-1.935V29.821c-.01-.424.174-.636.532-.636zM71.353 29.186h1.935v.68a5.55 5.55 0 0 1 1.34-.616 5.02 5.02 0 0 1 1.552-.242 4.063 4.063 0 0 1 2.834.931c.683.625 1.026 1.586 1.026 2.891v7.467a.5.5 0 0 1-.138.411.483.483 0 0 1-.404.14h-2.002v-7.387a2.844 2.844 0 0 0-.368-1.601 1.358 1.358 0 0 0-.529-.418 1.332 1.332 0 0 0-.66-.11c-.45 0-.898.073-1.326.218-.462.165-.907.38-1.325.64v8.082c0 .38-.218.571-.648.571h-1.896V29.821a.57.57 0 0 1 .152-.47.551.551 0 0 1 .457-.165zM83.445 39.518c-.784-1.049-1.175-2.55-1.175-4.516 0-1.872.377-3.34 1.141-4.403.764-1.064 2.041-1.59 3.84-1.59 1.667 0 2.846.475 3.536 1.427a5.697 5.697 0 0 1 1.035 3.448v1.187c0 .7-.358 1.054-1.079 1.054H84.77c-.026.374.028.749.158 1.099s.334.668.597.93a2.94 2.94 0 0 0 2.07.695 8.252 8.252 0 0 0 2.026-.242 8.174 8.174 0 0 0 1.75-.64v1.739a.828.828 0 0 1-.434.68c-.47.255-.981.421-1.51.492-.674.128-1.359.194-2.045.197-1.843.014-3.154-.522-3.937-1.557zm5.92-5.723a2.707 2.707 0 0 0-.595-1.92 2.137 2.137 0 0 0-1.65-.626 2.052 2.052 0 0 0-.931.15 2.086 2.086 0 0 0-.77.554 3.213 3.213 0 0 0-.605 2.04h4.55v-.198zM94.854 39.518c-.783-1.049-1.175-2.55-1.175-4.516 0-1.872.38-3.34 1.141-4.403.765-1.059 2.041-1.59 3.84-1.59 1.671 0 2.849.475 3.536 1.427a5.698 5.698 0 0 1 1.04 3.448v1.187c0 .7-.363 1.054-1.079 1.054H96.18c-.027.374.027.749.158 1.099.13.35.333.668.596.93a2.94 2.94 0 0 0 2.07.695 8.317 8.317 0 0 0 2.031-.242 8.207 8.207 0 0 0 1.746-.64v1.739a.82.82 0 0 1-.43.68 4.442 4.442 0 0 1-1.514.492c-.675.128-1.36.194-2.046.197-1.857.014-3.153-.522-3.937-1.557zm5.92-5.723a2.706 2.706 0 0 0-.595-1.92 2.137 2.137 0 0 0-1.649-.626 2.055 2.055 0 0 0-.931.151 2.09 2.09 0 0 0-.772.553 3.213 3.213 0 0 0-.604 2.04h4.551v-.198zM106.148 29.186h1.934v1.137a3.846 3.846 0 0 1 2.196-1.118l.629-.064c.4-.03.796-.096 1.185-.197v1.93c0 .208-.126.35-.377.43-.45.11-.908.18-1.369.206a3.362 3.362 0 0 0-2.264 1.079v7.688c0 .38-.217.571-.648.571h-1.901V29.821a.577.577 0 0 1 .154-.472.543.543 0 0 1 .461-.163zM114.297 25.142h2.095v2.064a.497.497 0 0 1-.321.528.473.473 0 0 1-.216.023h-2.051v-2.044c0-.379.164-.571.493-.571zm.068 4.044h2.007v11.022c0 .428-.203.64-.604.64h-1.935V29.821c-.01-.424.169-.636.513-.636h.019zM119.951 29.186h1.935v.68c.416-.264.865-.471 1.335-.616a5.014 5.014 0 0 1 1.552-.242 4.067 4.067 0 0 1 2.839.931c.682.625 1.025 1.586 1.025 2.891v7.467a.506.506 0 0 1-.137.411.489.489 0 0 1-.404.14h-2.007v-7.387a2.853 2.853 0 0 0-.363-1.601 1.357 1.357 0 0 0-.529-.418 1.332 1.332 0 0 0-.661-.11c-.45 0-.898.073-1.325.218-.463.165-.907.38-1.325.64v8.082c0 .38-.218.571-.648.571h-1.911V29.821a.574.574 0 0 1 .156-.477.55.55 0 0 1 .468-.159zM133.958 44.901a14.415 14.415 0 0 1-1.5-.231c-.285-.074-.43-.3-.43-.68v-1.714c1.079.286 2.189.433 3.303.439a2.775 2.775 0 0 0 1.906-.552c.411-.364.614-1.044.614-2.039v-.221a3.28 3.28 0 0 1-1.054.364c-.42.078-.846.117-1.272.118-1.596 0-2.772-.432-3.526-1.295-.755-.862-1.137-2.212-1.137-4.044 0-1.93.484-3.423 1.403-4.467a4.83 4.83 0 0 1 1.718-1.21 4.756 4.756 0 0 1 2.059-.36c1.467-.015 2.93.162 4.353.526v10.698c0 1.67-.4 2.882-1.199 3.634-.8.752-1.974 1.125-3.521 1.118a16.615 16.615 0 0 1-1.717-.084zm2.839-6.934a2.395 2.395 0 0 0 1.054-.458v-6.043a7.777 7.777 0 0 0-1.639-.128c-1.838 0-2.757 1.236-2.757 3.708 0 2.04.711 3.054 2.133 3.054a6.037 6.037 0 0 0 1.209-.133z" fill="#E30613"/>
    </g>
    <defs>
        <clipPath id="rt3z15wtsa">
            <path fill="#fff" transform="translate(0 21)" d="M0 0h140.4v24H0z"/>
        </clipPath>
    </defs>
</svg>
