<svg width="190" height="50" viewBox="0 0 190 50" fill="none" xmlns="http://www.w3.org/2000/svg">
    <path d="m11.379 37.502-3.78-4.715 5.487-6.864h-2.992a3.63 3.63 0 0 0-1.705.315 3.687 3.687 0 0 0-1.374 1.073l-2.891 3.614V21H1.219a1.227 1.227 0 0 0-.863.374 1.266 1.266 0 0 0-.356.882V40.77h2.896c.328 0 .643-.132.876-.368a1.27 1.27 0 0 0 .365-.888v-4.927l2.347 2.928 1.999 2.499c.172.233.394.423.65.554.257.131.54.2.826.202h4.05l-2.63-3.269zM18.817 40.77a3.556 3.556 0 0 1-1.476-.24 3.6 3.6 0 0 1-1.253-.828 3.67 3.67 0 0 1-.815-1.272 3.714 3.714 0 0 1-.236-1.499V22.256a1.27 1.27 0 0 1 .365-.888c.232-.236.547-.368.876-.368h2.904v15.144a1.142 1.142 0 0 0 .323.799 1.108 1.108 0 0 0 .783.333h2.957v2.238a1.27 1.27 0 0 1-.365.888 1.232 1.232 0 0 1-.876.368h-3.188z" fill="#231F20"/>
    <path d="m23.842 24.83-.253.274s-.788.814-3.022.814H10.016a3.462 3.462 0 0 0-1.704.322c-.533.25-.995.633-1.344 1.111l-.331.412-.027.026-2.094 2.618a4.801 4.801 0 0 1 2.887-.933H20.58c1.598 0 3.131-.482 3.262-1.694a1.364 1.364 0 0 0 0-.159v-2.79zM32.464 40.757a4.508 4.508 0 0 1-1.576-.593.879.879 0 0 1-.436-.747v-1.858a7.56 7.56 0 0 0 1.96.779 8.488 8.488 0 0 0 2.151.318 3.284 3.284 0 0 0 2.012-.548 1.89 1.89 0 0 0 .736-1.605c0-1.054-.67-1.876-2.012-2.46l-1.925-.858a5.051 5.051 0 0 1-2.142-1.645 4.335 4.335 0 0 1-.715-2.552c-.027-.587.1-1.17.37-1.689.268-.52.668-.956 1.159-1.266 1.015-.663 2.373-1 4.076-1 .87 0 1.52-.017 1.947-.053.356-.018.703-.119 1.014-.296v1.977a.529.529 0 0 1-.213.473 1.669 1.669 0 0 1-.714.186c-.336.031-.871.044-1.646.044-2.204 0-3.31.54-3.31 1.624-.02.45.114.894.379 1.256.33.376.74.668 1.202.853l1.742.77c.988.387 1.88.991 2.612 1.769a4.26 4.26 0 0 1 .871 2.857c0 1.51-.508 2.635-1.524 3.375a6.728 6.728 0 0 1-4.037 1.11 9.226 9.226 0 0 1-1.981-.221zM43.346 40.261c-.534-.492-.8-1.316-.8-2.472v-6.422h-1.643v-1.672a.562.562 0 0 1 .163-.466.542.542 0 0 1 .465-.148h1.014v-2.212a.725.725 0 0 1 .14-.486.62.62 0 0 1 .465-.15h1.947v2.852h1.407c.335.004.671-.01 1.006-.044.256-.025.507-.09.744-.195v1.637c.01.16-.038.319-.133.447a.67.67 0 0 1-.385.256 4.295 4.295 0 0 1-1.363.177h-1.276v5.842a1.79 1.79 0 0 0 .283 1.124 1.302 1.302 0 0 0 1.058.349 4.88 4.88 0 0 0 1.02-.088c.272-.064.538-.151.796-.261v1.69a.693.693 0 0 1-.126.415.657.657 0 0 1-.327.243c-.713.23-1.46.334-2.208.31a3.193 3.193 0 0 1-2.247-.726zM50.85 40.062c-.718-.619-1.078-1.581-1.08-2.888v-7.518a.494.494 0 0 1 .134-.416.48.48 0 0 1 .41-.137h2.007v7.492c0 1.421.58 2.132 1.742 2.132a3.03 3.03 0 0 0 1.198-.221 7.913 7.913 0 0 0 1.223-.66v-6.103a14.66 14.66 0 0 1 .066-1.605c.015-.281.1-.554.248-.792a.658.658 0 0 1 .553-.243h2.007a7.305 7.305 0 0 0-.322 2.507v8.523a.571.571 0 0 1-.156.478.552.552 0 0 1-.471.159h-1.925v-.659a8.481 8.481 0 0 1-1.341.668 3.866 3.866 0 0 1-1.385.234 4.31 4.31 0 0 1-2.909-.95zM62.49 39.527c-.735-.982-1.102-2.418-1.102-4.308 0-4.201 1.816-6.302 5.447-6.302a6.57 6.57 0 0 1 1.625.194v-2.37c-.008-.54.013-1.078.065-1.614a1.74 1.74 0 0 1 .235-.783.659.659 0 0 1 .562-.24h2.012a7.182 7.182 0 0 0-.323 2.504V40.12a.583.583 0 0 1-.168.482.565.565 0 0 1-.48.155H68.46v-.637a4.839 4.839 0 0 1-2.748.884 3.747 3.747 0 0 1-1.791-.334 3.808 3.808 0 0 1-1.432-1.143zm5.007-1.123c.377-.142.715-.374.984-.677v-6.285a5.004 5.004 0 0 0-1.428-.199c-.8-.026-1.58.26-2.177.8-.58.537-.871 1.61-.871 3.22a4.416 4.416 0 0 0 .61 2.526c.19.288.45.52.756.675.305.155.645.227.985.21a3.052 3.052 0 0 0 1.141-.27zM74.687 25.047h2.099v2.065a.494.494 0 0 1-.134.414.479.479 0 0 1-.406.14H74.19v-2.049c0-.38.166-.57.497-.57zm.065 4.042h2.012v11.03c0 .443-.2.638-.605.638h-1.947v-11.03c0-.421.179-.638.54-.638zM80.605 39.594c-.871-.938-1.307-2.477-1.307-4.618 0-2.14.436-3.684 1.307-4.63.87-.956 2.138-1.43 3.797-1.43 1.66 0 2.926.474 3.806 1.43.88.955 1.306 2.494 1.306 4.63 0 2.136-.435 3.68-1.306 4.618-.871.937-2.151 1.406-3.806 1.406-1.655 0-2.926-.469-3.797-1.406zm5.709-1.77c.409-.557.618-1.508.618-2.857 0-1.349-.209-2.304-.618-2.874a2.584 2.584 0 0 0-.866-.634 2.548 2.548 0 0 0-2.953.634c-.401.57-.606 1.53-.606 2.874 0 1.345.205 2.3.606 2.857a2.579 2.579 0 0 0 3.819 0zM102.975 31.938c.236.3.351.682.322 1.066v3.865c0 1.362-.409 2.388-1.232 3.096-.824.708-2.121 1.044-3.894 1.044-2.464 0-4.115-.773-4.95-2.318-.837-1.545-1.255-3.482-1.255-5.811a11.852 11.852 0 0 1 .584-3.782 6.108 6.108 0 0 1 1.99-2.897 5.72 5.72 0 0 1 3.718-1.145c1.284 0 2.221-.014 2.814-.04a3.482 3.482 0 0 0 1.306-.265v1.8a.58.58 0 0 1-.348.548c-.347.147-.718.23-1.093.243-.497.045-1.22.067-2.178.067-1.41 0-2.445.417-3.105 1.251-.653.836-.984 2.243-.984 4.22 0 3.853 1.227 5.779 3.68 5.776a2.624 2.624 0 0 0 1.685-.442c.375-.31.562-.858.562-1.65v-2.15a.507.507 0 0 0-.096-.376.634.634 0 0 0-.4-.088h-1.599a.549.549 0 0 1-.444-.164.568.568 0 0 1-.16-.45v-1.734h4.001a1.378 1.378 0 0 1 1.076.336zM106.424 39.425c-.784-1.043-1.176-2.547-1.176-4.51 0-1.876.382-3.35 1.145-4.424.764-1.073 2.047-1.604 3.85-1.592 1.672 0 2.856.473 3.549 1.429a5.729 5.729 0 0 1 1.036 3.445v1.185c0 .708-.361 1.058-1.08 1.058h-5.992a2.622 2.622 0 0 0 .758 2.03c.58.491 1.323.74 2.077.694a8.255 8.255 0 0 0 2.029-.243 8.062 8.062 0 0 0 1.742-.637v1.738a.83.83 0 0 1-.435.681 4.455 4.455 0 0 1-1.511.504c-.678.131-1.366.198-2.056.2-1.837.011-3.15-.508-3.936-1.557zm5.926-5.723a2.683 2.683 0 0 0-.596-1.92 2.194 2.194 0 0 0-1.655-.627 2.099 2.099 0 0 0-1.707.703 3.18 3.18 0 0 0-.605 2.043h4.563v-.199zM117.75 29.09h1.925v.68c.419-.26.868-.467 1.337-.614a5.15 5.15 0 0 1 1.559-.24 4.063 4.063 0 0 1 2.843.934c.688.624 1.028 1.583 1.028 2.888v7.475a.486.486 0 0 1-.54.549h-2.012v-7.387a2.845 2.845 0 0 0-.366-1.605 1.354 1.354 0 0 0-1.193-.526c-.451-.002-.9.073-1.328.22a6.794 6.794 0 0 0-1.328.637v8.085c0 .38-.218.57-.653.57h-1.882v-11.03a.581.581 0 0 1 .153-.468.563.563 0 0 1 .457-.169zM129.795 25.047h2.099v2.065a.495.495 0 0 1-.134.414.473.473 0 0 1-.406.14h-2.055v-2.049c0-.38.165-.57.496-.57zm.065 4.042h2.012v11.03c0 .443-.2.638-.605.638h-1.934v-11.03c0-.421.166-.638.527-.638zM135.582 39.425c-.789-1.043-1.183-2.547-1.18-4.51 0-1.876.382-3.35 1.146-4.424.763-1.073 2.048-1.604 3.854-1.592 1.672 0 2.852.473 3.544 1.429a5.702 5.702 0 0 1 1.041 3.445v1.185c0 .708-.361 1.058-1.084 1.058h-5.992a2.622 2.622 0 0 0 .757 2.03 2.95 2.95 0 0 0 2.078.694 8.287 8.287 0 0 0 2.033-.243 8.03 8.03 0 0 0 1.742-.637v1.738a.831.831 0 0 1-.435.681 4.519 4.519 0 0 1-1.516.504c-.677.132-1.366.198-2.055.2-1.829.017-3.149-.51-3.933-1.557zm5.945-5.723a2.682 2.682 0 0 0-.593-1.92 2.19 2.19 0 0 0-1.654-.627 2.091 2.091 0 0 0-.935.152c-.297.122-.562.31-.777.551a3.218 3.218 0 0 0-.605 2.043h4.564v-.199z" fill="#ED1C24"/>
</svg>
