<svg width="190" height="50" viewBox="0 0 190 50" fill="none" xmlns="http://www.w3.org/2000/svg">
    <g clip-path="url(#cqifnh49va)">
        <path d="m11.838 37.697-3.925-4.77 5.707-6.95h-3.115a3.871 3.871 0 0 0-1.772.318 3.83 3.83 0 0 0-1.428 1.085l-3.01 3.645V21H1.283a1.29 1.29 0 0 0-.91.37 1.263 1.263 0 0 0-.374.9v18.72h3.01a1.296 1.296 0 0 0 .91-.374 1.27 1.27 0 0 0 .374-.902v-4.982l2.458 2.965 2.076 2.527a1.947 1.947 0 0 0 1.536.766h4.208l-2.733-3.293zM19.573 40.99a3.78 3.78 0 0 1-2.835-1.08 3.697 3.697 0 0 1-.846-1.286c-.188-.483-.271-1-.245-1.517V22.27a1.25 1.25 0 0 1 .375-.9 1.282 1.282 0 0 1 .91-.37h3.016v15.324c0 .303.122.593.338.807.217.215.51.335.817.335h3.071v2.266c0 .339-.135.663-.377.902-.242.24-.57.374-.913.374l-3.311-.018z" fill="#231F20"/>
        <path d="m24.795 24.877-.264.273s-.817.82-3.14.82H10.426a3.722 3.722 0 0 0-1.77.331 3.678 3.678 0 0 0-1.4 1.121l-.344.42v.03L4.737 30.52a5.1 5.1 0 0 1 2.985-.948h13.694c1.665 0 3.256-.486 3.391-1.713.003-.055.003-.11 0-.164l-.012-2.82zM31.313 37.988v-6.495h-1.708v-1.695a.559.559 0 0 1 .177-.46.574.574 0 0 1 .475-.148h1.056v-2.248c0-.443.185-.644.615-.644h2.027v2.892h1.462a4.614 4.614 0 0 0 1.843-.249v1.671c0 .802-1.057.893-1.96.893h-1.327v5.918c0 .954.27 1.489 1.395 1.489a4.194 4.194 0 0 0 1.892-.359v1.714a.681.681 0 0 1-.473.668 6.587 6.587 0 0 1-2.298.31c-1.855-.012-3.176-.79-3.176-3.257zM38.464 35.072c0-3.47 1.192-6.076 5.198-6.076 3.845 0 4.767 2.716 4.767 4.94v1.215a.967.967 0 0 1-.298.806.991.991 0 0 1-.826.263h-6.236c0 1.823 1.173 2.759 2.949 2.759a9.04 9.04 0 0 0 3.938-.893v1.762a.784.784 0 0 1-.449.686c-.7.444-2.383.711-3.716.711-4.024-.012-5.327-2.455-5.327-6.173zm7.372-1.027v-.194c0-1.823-.921-2.583-2.334-2.583-1.554 0-2.384.979-2.408 2.777h4.742zM51.058 37.952V24.773c0-.45.228-.65.676-.65h1.984v13.829c0 .936.424 1.027.695 1.027.333.012.666-.025.989-.11v1.513a.651.651 0 0 1-.449.644 3.062 3.062 0 0 1-1.056.2c-2.114.007-2.839-1.056-2.839-3.274zM56.667 35.072c0-3.47 1.192-6.076 5.198-6.076 3.84 0 4.767 2.716 4.767 4.94v1.215a.969.969 0 0 1-.3.809.992.992 0 0 1-.83.26h-6.23c0 1.823 1.174 2.759 2.95 2.759a9.04 9.04 0 0 0 3.937-.893v1.762a.777.777 0 0 1-.455.686c-.694.444-2.383.711-3.686.711-4.048-.012-5.35-2.455-5.35-6.173zm7.373-1.027v-.194c0-1.823-.922-2.583-2.341-2.583-1.548 0-2.384.979-2.402 2.777h4.743zM68.586 35.048c0-4.047 2.34-5.87 5.854-5.87a9.51 9.51 0 0 0 2.605-.249v1.957c0 .492-.921.65-2.402.65-2.457 0-3.354 1.215-3.354 3.536 0 2.534.897 3.803 2.746 3.803a7.86 7.86 0 0 0 3.459-.644v1.823a.735.735 0 0 1-.467.693 8.512 8.512 0 0 1-2.906.486c-4.16 0-5.535-2.333-5.535-6.185zM78.913 35.139c0-4.497 2.027-6.143 5.308-6.143 3.28 0 5.332 1.646 5.332 6.143 0 4.496-2.046 6.076-5.332 6.076-3.287 0-5.308-1.58-5.308-6.076zm7.943 0c0-2.807-.897-3.78-2.635-3.78-1.739 0-2.605.973-2.605 3.78s.879 3.736 2.605 3.736 2.635-.923 2.635-3.736zM91.986 29.822c0-.443.227-.644.676-.644h1.978v.711a5.052 5.052 0 0 1 2.857-.893c2.949 0 4.497 2.03 4.497 5.851 0 5.298-2.967 6.386-5.664 6.386a6.733 6.733 0 0 1-1.69-.2v3.408c0 .328-.203.553-.651.553h-2.003V29.822zm7.31 5.025c0-2.2-.853-3.445-2.457-3.445a3.335 3.335 0 0 0-2.23.954v6.319c.482.144.984.212 1.487.2 1.444 0 3.2-.419 3.2-4.028z" fill="#ED1C24"/>
    </g>
    <defs>
        <clipPath id="cqifnh49va">
            <path fill="#fff" transform="translate(0 21)" d="M0 0h102v24H0z"/>
        </clipPath>
    </defs>
</svg>
