<svg width="190" height="50" viewBox="0 0 190 50" fill="none" xmlns="http://www.w3.org/2000/svg">
    <g clip-path="url(#0wj49ni2ua)">
        <path d="M54.446 21.123a.406.406 0 0 1 .11.295v1.432a.387.387 0 0 1-.105.324.37.37 0 0 1-.316.107h-4.4v13.857c0 .318-.14.477-.423.477h-1.598a.507.507 0 0 1-.321-.08c-.068-.05-.1-.176-.1-.374v-13.89h-4.31a.365.365 0 0 1-.317-.107.385.385 0 0 1-.106-.324v-1.432a.404.404 0 0 1 .113-.295.378.378 0 0 1 .288-.113h11.194a.38.38 0 0 1 .29.113M64.09 34.98c.228-.205.44-.429.634-.67.213-.256.421-.53.622-.795.2-.265.38-.514.541-.77l.402-.59c.152-.198.262-.426.32-.67.025-.184.037-.37.036-.557v-9.494c.043-.288.169-.431.376-.431h1.467c.311 0 .482.202.502.613v9.36a7.69 7.69 0 0 1-.088 1.207 2.594 2.594 0 0 1-.502 1.134c-.516.684-1.041 1.363-1.575 2.035-.47.608-1 1.168-1.577 1.67-.263.247-.585.42-.933.501-.323.06-.65.09-.978.09h-1.114c-.327 0-.654-.03-.976-.09a2.03 2.03 0 0 1-.933-.5 11.5 11.5 0 0 1-1.577-1.67c-.534-.675-1.06-1.353-1.578-2.036a2.595 2.595 0 0 1-.501-1.134c-.06-.4-.09-.802-.088-1.206v-9.364c.015-.41.185-.613.502-.613h1.464c.208 0 .334.144.379.431v9.52c-.002.19.01.381.032.57.06.248.17.48.322.682.105.15.25.344.4.578.151.233.345.485.545.752.2.267.411.526.632.782.2.235.415.456.645.66.115.118.25.215.398.285.13.04.266.06.402.056h1.003c.136.003.271-.016.401-.056.149-.07.284-.167.4-.285" fill="#ED1C24"/>
        <path d="M34.975 37.107c0 .88-.59 1.645-1.382 1.645h-3.825a.296.296 0 0 0-.244.08.31.31 0 0 0-.097.243v1.55a.332.332 0 0 0 .083.27.319.319 0 0 0 .258.102h4.013a3.506 3.506 0 0 0 2.06-.741c.95-.811 1.45-1.97 1.45-3.754v-11.65a.344.344 0 0 0-.089-.265.327.327 0 0 0-.253-.105h-1.613c-.225 0-.36.116-.36.393v8.894h-2.852a1.613 1.613 0 0 1-1.089-.347c-1.833-1.506-2.195-2.083-2.195-3.335v-5.21c0-.277-.135-.392-.34-.392h-1.608a.342.342 0 0 0-.268.112.358.358 0 0 0-.093.28v5.281a4.642 4.642 0 0 0 .86 2.897c1.608 2.012 3.102 2.918 4.733 2.918h2.851v1.134zm-16.97-5.535c.401-.041.803.065 1.134.3 1.357 1.135 2.217 2.34 2.217 3.08v2.13c0 .256.113.415.387.415h1.53c.27 0 .383-.115.383-.462v-2.08c0-.742-.113-1.738-.815-2.526a25.294 25.294 0 0 0-1.924-1.968c.542-.534 1.312-1.042 1.856-1.809.596-.748.91-1.69.883-2.653V24.91c0-.231-.067-.416-.36-.416h-1.563a.338.338 0 0 0-.287.1.354.354 0 0 0-.1.293v1.11c0 .927-.752 1.88-2.172 3.013a1.6 1.6 0 0 1-1.178.347h-1.924v-7.63c0-.302-.113-.44-.43-.44h-1.471c-.316 0-.41.207-.41.464v15.31c0 .346.159.438.432.438h1.505c.271 0 .384-.046.384-.439v-5.489h1.924zM7.526 37.5c2.006 0 3.237-1.784 3.237-3.405v-1.938c0-1.25-1.54-2.802-2.854-2.802H3.577c-.703 0-1.157-.37-1.157-.88v-.81c0-.624.454-.95 1.089-.95H9.62c.293 0 .406-.162.406-.44v-1.413a.366.366 0 0 0-.11-.273.35.35 0 0 0-.273-.097H3.123c-1.448 0-2.945 1.135-2.945 2.31v2.502c0 1.183 1.427 2.27 2.877 2.27h4.301c.263.03.508.148.697.337.189.19.31.438.344.706v1.552c-.01.288-.124.561-.32.767a1.115 1.115 0 0 1-.743.344H.429c-.316 0-.429.139-.429.439v1.345c0 .346.178.438.429.438l7.095-.002z" fill="#414042"/>
    </g>
    <defs>
        <clipPath id="0wj49ni2ua">
            <path fill="#fff" transform="translate(0 21)" d="M0 0h69v20H0z"/>
        </clipPath>
    </defs>
</svg>
