<svg width="190" height="50" viewBox="0 0 190 50" fill="none" xmlns="http://www.w3.org/2000/svg">
    <path d="m40.026 37.798-.055-7.644c-.02-2.9-1.997-4.312-4.574-4.314a5.262 5.262 0 0 0-2.223.485 5.4 5.4 0 0 0-1.831 1.384c-.7-1.182-2.006-1.869-3.627-1.871a5.538 5.538 0 0 0-3.627 1.49V26.01h-4.418l.091 11.776h4.385l-.051-7.021c-.011-1.595.625-2.414 1.892-2.414 1.515 0 1.655 1.49 1.664 2.892l.047 6.539h4.388l-.055-7.252c0-1.4.518-2.157 1.897-2.154 1.512 0 1.649 1.49 1.66 2.89l.046 6.54 4.391-.009zM48.543 31.867l-.038 1.815c-.11 1.457-.685 2.152-1.773 2.122-1.035-.031-1.129-1.097-1.116-1.55.017-.794.326-1.316.838-1.634.512-.318 2.089-.753 2.089-.753zm5.27 4.389c-.92-.027-.969-1.018-.96-1.358l.125-5.486c.056-2.455-2.856-3.412-5.37-3.484-3.366-.099-5.39 1.549-5.39 1.549l.464 1.988a5.316 5.316 0 0 1 3.717-1.512c1.032.029 2.214.805 2.193 1.755a.73.73 0 0 1-.064.372.708.708 0 0 1-.239.287 6.991 6.991 0 0 1-1.784.462h-.055c-3.6.62-5.219 1.288-5.27 3.601-.049 2.02 1.524 3.322 4.105 3.397a4.473 4.473 0 0 0 1.856-.309 4.576 4.576 0 0 0 1.579-1.047c.555.923 1.54 1.316 2.686 1.36l2.934.083.036-1.639-.563-.02zM80.09 27.71c0-.507-.014-1.817-.014-1.817h-4.46l.097 11.885h4.467l-.043-5.206c-.016-.692-.042-1.409.137-1.907.265-.825 1.156-1.354 2.26-1.406a5.855 5.855 0 0 1 2.084.287l-.043-3.842s-3.115-.283-4.484 2.005zM74.567 36.14h-1.235c-1.125 0-1.306-.99-1.31-1.787 0 0-.028-5.838-.026-6.03h2.326v-2.305h-2.33l-.02-4.13-4.339 1.663v2.454h-1.98v2.306h1.982l.026 5.643c0 1.975.555 3.829 3.84 3.838h3.057l.009-1.653zM13.48 28.032c-1.68-.658-3.13-1.23-3.135-2.313 0-1.191.911-1.873 2.641-1.82 2.03.063 3.341 1.59 3.698 2.053l1.081-2.662s-1.51-1.235-4.678-1.24c-4.005 0-6.58 1.868-6.567 4.775.017 3.037 2.6 3.987 4.877 4.827 1.732.637 3.226 1.192 3.237 2.548.01 1.356-1.417 1.955-2.834 1.95a5.027 5.027 0 0 1-2.585-.696 5.211 5.211 0 0 1-1.895-1.937l-.94 3.4a10.565 10.565 0 0 0 4.759 1.074c4.354 0 7.497-2.086 7.48-4.987-.01-2.951-2.735-4.022-5.14-4.972zM60.288 27.795c0-.502-.01-1.8-.01-1.8h-4.432l.083 11.775h4.42l-.031-5.157c-.017-.686-.04-1.397.138-1.889.267-.818 1.144-1.34 2.24-1.39a5.82 5.82 0 0 1 2.07.284l-.026-3.798s-3.095-.291-4.452 1.975zM91.488 25.704c-4.23.081-6.597 2.633-6.497 6.293.1 3.73 2.868 5.964 7.088 5.882 4.22-.08 6.776-2.194 6.663-6.281-.099-3.871-2.96-5.98-7.254-5.894zm2.633 5.924c.074 1.468-.175 4.459-2.102 4.494-1.572.028-2.362-2.161-2.41-4.057-.075-2.701.607-4.562 2.184-4.592 1.935-.051 2.278 3.025 2.334 4.142l-.006.013z" fill="#1D1D1B"/>
    <path d="M34.786 8.214C22.322 9.76 10.398 14.348.011 21.6c11.121-5.956 23.468-9.085 36.006-9.126 12.497-.062 24.831 2.913 35.998 8.682l-.096-8.43a76.888 76.888 0 0 0-37.133-4.51z" fill="#D62D1C"/>
</svg>
