<svg width="190" height="50" viewBox="0 0 190 50" fill="none" xmlns="http://www.w3.org/2000/svg">
    <path d="M72.249 27.571v-1.86h-8.887l-.005 2.089h5.719l-6.348 7.692v1.86h1.357l3.042-3.624 5.122-6.157z" fill="url(#8vrz8a7zpa)"/>
    <path d="M72.244 33.98c-1.072 1.012-2.125 1.282-3.431 1.282h-2.515l-1.755 2.092H69.488c2.05-.029 3.008-.396 4.512-1.755l-1.756-1.62z" fill="url(#2mrio4mpxb)"/>
    <path d="M58.952 37.355h-3.538c-.133 0-.26 0-.386-.017h-.018c-1.563-.125-2.502-.979-2.882-2.06l-3.296-9.57h2.462l2.676 8.21.025.08c.367 1.187.941 1.361 1.893 1.361h.85v-4.143c-.02-1.091-.128-2.138-.744-2.735a1.416 1.416 0 0 0-.855-.461l-.769-2.298h.523c1.491 0 2.197.492 2.91 1.257.934 1.012 1.1 2.346 1.153 3.986l-.004 6.39z" fill="url(#vcie600pyc)"/>
    <path d="m11.287 25.917 2.545-3.533v3.325h4.676l-1.464 2.001h-3.212v6.295c0 .85.45 1.354 1.397 1.354h1.903l1.464 2.002h-3.841c-2.371 0-3.468-1.563-3.468-3.242v-8.202z" fill="url(#2wvua5k88d)"/>
    <path d="m43.167 25.711-2.95 8.206-3.022-8.204H34.5l4.418 11.1-.7 1.815c-.375.942-.748 1.247-1.82 1.247H34.5l1.247 2.113h1.026c.974 0 1.897-.207 2.596-.85.416-.404.733-.903.925-1.454l4.129-10.338-1.256-3.635z" fill="url(#rjwh3kbthe)"/>
    <path d="M33.807 25.711h-.478c-1.731 0-2.55.524-3.378 1.264-1.083.98-1.253 2.27-1.313 3.858v6.528h2.547v-6.288c.025-1.058.175-2.043.868-2.644.478-.415 1.095-.594 1.846-.594l.77.033-.862-2.157z" fill="url(#stsh6ujqff)"/>
    <path d="m60.972 26.914-1.306.956v9.49l1.13-1.377v-2.36a.387.387 0 0 1-.244-.356c0-.112.044-.22.122-.3a.415.415 0 0 1 .59 0c.079.08.123.188.123.3a.394.394 0 0 1-.245.355v1.941l.43-.517c.444-.55.703-1.016.703-1.692V27.87l-1.303-.956z" fill="url(#87xet3fv4g)"/>
    <path d="m59.348 27.272 1.622-1.189 1.622 1.189v-4.605h-3.244v4.605z" fill="#00B6CC"/>
    <path d="m59.348 27.272 1.622-1.189 1.622 1.189v-2.305l-3.244-2.3v4.605z" fill="#69C5D8"/>
    <path d="M5.314 37.5c-2.07 0-3.819-.322-5.314-1.68l1.672-1.537c1.025.964 2.395 1.218 3.642 1.218 1.549 0 2.773-.505 2.773-1.608 0-.782-.476-1.287-1.698-1.38l-2.022-.16C1.996 32.168.62 31.18.62 29.136c0-2.276 2.123-3.564 4.769-3.564 1.897 0 3.52.368 4.693 1.311l-1.598 1.494c-.8-.623-1.922-.852-3.122-.852-1.521 0-2.295.624-2.295 1.495 0 .69.4 1.22 1.748 1.332l1.995.162c2.373.184 3.77 1.217 3.77 3.287 0 2.433-2.246 3.699-5.267 3.699z" fill="url(#5ml0wa483h)"/>
    <path d="m51.833 35.517-.056-.16h-.873c-.95 0-1.526-.174-1.891-1.359l-.03-.08-2.684-8.205h-2.443l3.282 9.57c.377 1.082 1.319 1.934 2.882 2.059l.022.017v-.017c.125.01.252.017.384.017h3.23l-.06-.032a2.926 2.926 0 0 1-1.082-.703 2.974 2.974 0 0 1-.681-1.107z" fill="url(#jhdc4rwxci)"/>
    <path d="M26.423 26.948c-.773-.726-1.918-1.293-3.47-1.368v2.103c.565.045 1.1.271 1.53.646.781.711.882 1.931.882 3.194 0 1.264-.1 2.482-.882 3.192a2.755 2.755 0 0 1-1.891.69 2.69 2.69 0 0 1-1.865-.69c-.779-.71-.882-1.928-.882-3.192 0-1.263.103-2.493.882-3.194.427-.379.964-.607 1.53-.648v-2.103c-1.562.07-2.693.64-3.468 1.37-1.21 1.149-1.511 2.62-1.511 4.571 0 1.952.301 3.446 1.511 4.595.83.781 2.066 1.378 3.803 1.378s3.01-.595 3.831-1.376c1.208-1.15 1.512-2.62 1.512-4.595 0-1.974-.296-3.422-1.512-4.573z" fill="url(#lfauh8qsmj)"/>
    <defs>
        <linearGradient id="8vrz8a7zpa" x1="70.366" y1="24.005" x2="60.282" y2="35.137" gradientUnits="userSpaceOnUse">
            <stop/>
            <stop offset=".5" stop-color="#404040"/>
            <stop offset="1"/>
        </linearGradient>
        <linearGradient id="2mrio4mpxb" x1="71.791" y1="33.566" x2="66.639" y2="39.253" gradientUnits="userSpaceOnUse">
            <stop/>
            <stop offset=".5" stop-color="#404040"/>
            <stop offset="1"/>
        </linearGradient>
        <linearGradient id="vcie600pyc" x1="56.735" y1="28.307" x2="49.728" y2="36.041" gradientUnits="userSpaceOnUse">
            <stop/>
            <stop offset=".5" stop-color="#404040"/>
            <stop offset="1"/>
        </linearGradient>
        <linearGradient id="2wvua5k88d" x1="17.907" y1="27.669" x2="10.032" y2="37.639" gradientUnits="userSpaceOnUse">
            <stop/>
            <stop offset=".5" stop-color="#404040"/>
            <stop offset="1"/>
        </linearGradient>
        <linearGradient id="rjwh3kbthe" x1="44.244" y1="24.614" x2="33.102" y2="37.718" gradientUnits="userSpaceOnUse">
            <stop/>
            <stop offset=".5" stop-color="#404040"/>
            <stop offset="1"/>
        </linearGradient>
        <linearGradient id="stsh6ujqff" x1="34.783" y1="27.049" x2="26.863" y2="36.365" gradientUnits="userSpaceOnUse">
            <stop/>
            <stop offset=".5" stop-color="#404040"/>
            <stop offset="1"/>
        </linearGradient>
        <linearGradient id="87xet3fv4g" x1="59.666" y1="32.136" x2="62.275" y2="32.136" gradientUnits="userSpaceOnUse">
            <stop/>
            <stop offset=".5" stop-color="#404040"/>
            <stop offset="1"/>
        </linearGradient>
        <linearGradient id="5ml0wa483h" x1="9.348" y1="26.069" x2="1.766" y2="36.756" gradientUnits="userSpaceOnUse">
            <stop/>
            <stop offset=".5" stop-color="#404040"/>
            <stop offset="1"/>
        </linearGradient>
        <linearGradient id="jhdc4rwxci" x1="50.826" y1="29.188" x2="45.559" y2="35.002" gradientUnits="userSpaceOnUse">
            <stop/>
            <stop offset=".5" stop-color="#404040"/>
            <stop offset="1"/>
        </linearGradient>
        <linearGradient id="lfauh8qsmj" x1="26.265" y1="26.796" x2="18.842" y2="36.173" gradientUnits="userSpaceOnUse">
            <stop/>
            <stop offset=".5" stop-color="#404040"/>
            <stop offset="1"/>
        </linearGradient>
    </defs>
</svg>
