<svg width="190" height="50" viewBox="0 0 190 50" fill="none" xmlns="http://www.w3.org/2000/svg">
    <g clip-path="url(#a49f7ysjxa)" fill="#120064">
        <path d="M19.593 27.752a4.083 4.083 0 0 0-2.851 1.107l-.256.253v-5.567h-2.923v9.5c0 3.546 2.09 5.747 5.456 5.747 3.29 0 5.678-2.317 5.678-5.51 0-3.192-2.142-5.53-5.104-5.53zm-.461 8.337a2.743 2.743 0 0 1-1.54-.474 2.8 2.8 0 0 1-1.02-1.26 2.843 2.843 0 0 1 .601-3.06 2.735 2.735 0 0 1 3.019-.609c.506.213.938.573 1.243 1.035a2.837 2.837 0 0 1-.348 3.544 2.76 2.76 0 0 1-1.959.824h.004zM8.717 23.542l-5.769 6.783v-6.783H0v14.902h2.948v-6.726l5.886 6.726h3.792l-6.512-7.451 6.336-7.451H8.717zM61 28.1h-3.248l-3.732 4.468v-9.026h-2.914v14.903h2.914v-4.467l3.732 4.467H61l-4.32-5.172L61 28.1zM45.397 27.752c-1.8 0-2.91.853-3.44 1.45V28.11h-2.822v10.342h2.916v-5.637c0-1.404.967-2.392 2.178-2.392 1.21 0 2.177.983 2.177 2.392v5.632h2.915v-6.52c0-2.42-1.731-4.175-3.924-4.175zM31.702 27.752c-3.256 0-5.62 2.325-5.62 5.53 0 3.206 2.178 5.51 5.178 5.51a4.212 4.212 0 0 0 1.816-.418 4.268 4.268 0 0 0 1.466-1.162l.165-.231v1.466h2.653v-5.165c-.008-3.205-2.388-5.53-5.658-5.53zm.088 8.337a2.743 2.743 0 0 1-1.54-.474 2.8 2.8 0 0 1-1.02-1.26 2.843 2.843 0 0 1-.157-1.622 2.82 2.82 0 0 1 .758-1.437 2.735 2.735 0 0 1 3.018-.609c.507.213.94.572 1.244 1.034a2.837 2.837 0 0 1-.35 3.545 2.76 2.76 0 0 1-1.961.823h.008z"/>
    </g>
    <defs>
        <clipPath id="a49f7ysjxa">
            <path fill="#fff" transform="translate(0 23.542)" d="M0 0h61v15.25H0z"/>
        </clipPath>
    </defs>
</svg>
