<svg width="160" height="50" viewBox="0 0 160 50" fill="none" xmlns="http://www.w3.org/2000/svg">
    <path d="m22.664 34.286-7.524-9.933L26.061 9.895H20.11c-2.677 0-4.503.885-6.128 2.922L8.224 20.43V-.473h-5.77C1.099-.473 0 .709 0 2.173v38.994h5.764c1.361 0 2.46-1.182 2.46-2.647V28.145l4.678 6.163 3.971 5.264c.802 1.087 1.86 1.595 2.94 1.595h8.055l-5.204-6.881zM37.46 41.167c-4.435 0-7.516-3.3-7.516-8.085V2.166c0-1.465 1.106-2.64 2.468-2.64h5.77V31.43c0 1.313.99 2.378 2.204 2.378h5.878v4.713c0 1.465-1.105 2.647-2.467 2.647h-6.343.007z" fill="#231F20"/>
    <path d="m9.013 19.357.013-.014s-.013.007-.02.014h.007zM47.45 7.597l-.505.572s-1.564 1.712-6.013 1.712H19.953c-3.31 0-4.873 1.45-6.06 3.023l-.66.87s-.034.036-.048.058l-4.166 5.51c1.51-1.225 3.593-1.964 5.71-1.964h26.21c3.181 0 6.235-1.015 6.484-3.575.034-.203.027-.333.027-.333V7.597zM82.936 40.028c-.823-1.102-1.234-2.828-1.234-5.184V7.292c0-.9.431-1.349 1.294-1.349h3.802v28.858c0 1.428.445 2.139 1.341 2.139.749 0 1.382-.08 1.901-.232v3.204c0 .341-.08.631-.236.856a1.194 1.194 0 0 1-.627.486c-.72.275-1.395.42-2.029.42-1.988 0-3.39-.551-4.212-1.646zM95.393 16.493h3.802v1.487c1.726-1.24 3.559-1.857 5.487-1.857 2.825 0 4.968 1.037 6.438 3.111 1.469 2.074 2.204 5.112 2.204 9.107 0 8.889-3.626 13.334-10.887 13.334-1.152 0-2.231-.138-3.242-.421v7.113c0 .776-.418 1.16-1.254 1.16H94.1V17.842c0-.9.431-1.349 1.294-1.349zm11.035 18.562c1.139-1.131 1.706-3.372 1.706-6.714 0-2.32-.405-4.104-1.207-5.344-.809-1.24-1.962-1.856-3.458-1.856-.688 0-1.463.188-2.312.558-.85.37-1.504.856-1.962 1.443v13.196c.923.276 1.874.42 2.851.42 1.787 0 3.25-.565 4.389-1.696l-.007-.007zM117.504 8.126c.088-.776.25-1.334.499-1.675.243-.34.613-.514 1.099-.514h4.017c-.431 1.116-.647 2.878-.647 5.3v6.692c.776-.53 1.672-.957 2.677-1.305a9.622 9.622 0 0 1 3.114-.508c2.42 0 4.314.66 5.683 1.972 1.368 1.32 2.049 3.357 2.049 6.113V40c0 .775-.364 1.16-1.079 1.16h-4.017V25.55c0-1.516-.243-2.647-.735-3.394-.492-.747-1.281-1.117-2.373-1.117-.923 0-1.807.153-2.656.464-.849.312-1.732.762-2.656 1.35v17.096c0 .805-.431 1.21-1.294 1.21h-3.802V11.52c0-1.486.04-2.617.128-3.393h-.007zM142.493 39.84c-1.395-1.225-2.097-3.045-2.097-5.46 0-3.255 1.039-5.474 3.108-6.67 2.076-1.19 4.827-1.791 8.251-1.791h1.557v-.971c0-1.646-.343-2.748-1.038-3.321-.687-.573-1.84-.863-3.458-.863-.836 0-1.766.087-2.784.254a18.3 18.3 0 0 0-2.703.63 2.052 2.052 0 0 1-.479.095c-.458 0-.694-.276-.694-.834v-3.531c2.393-.834 4.982-1.255 7.779-1.255 2.562 0 4.591.595 6.094 1.791 1.497 1.197 2.245 3.321 2.245 6.388v11.615c0 .407.067.69.195.863.128.167.351.254.668.254.229 0 .519-.043.863-.138v2.835c0 .617-.277 1.102-.823 1.443-.546.341-1.227.508-2.029.508a4.455 4.455 0 0 1-2.265-.602 3.166 3.166 0 0 1-1.402-1.718c-.546.681-1.382 1.24-2.508 1.674-1.125.435-2.177.653-3.155.653-2.157 0-3.936-.61-5.332-1.834l.007-.015zm8.838-3.255c.808-.261 1.469-.61 1.988-1.044v-5.67h-1.166c-2.622 0-4.415.362-5.379 1.094-.964.726-1.45 1.791-1.45 3.183 0 1.893 1.22 2.835 3.674 2.835.748 0 1.524-.13 2.333-.391v-.007zM57.637 34.38c0-7.156 5.615-8.454 11.365-8.454h1.557v-.978c0-3.437-1.429-4.184-4.496-4.184-1.773 0-4.018.42-5.487.884-.647.189-1.166.044-1.166-.74v-3.53c2.116-.747 4.665-1.255 7.779-1.255 4.449 0 8.339 1.487 8.339 8.18V35.99c0 .457.027.9.478 1.022.418.11.883-.065.883-.065v2.792c0 1.254-.923 1.95-2.48 1.95-1.558 0-3.108-.747-3.674-2.327-1.166 1.442-3.85 2.327-5.663 2.327-4.065 0-7.428-2.233-7.428-7.294l-.007-.015zm12.916 1.16v-5.67h-1.166c-5.575 0-6.83 1.719-6.83 4.271 0 2.045 1.43 2.835 3.675 2.835 1.47 0 3.242-.558 4.32-1.443v.008z" fill="#ED1C24"/>
</svg>
