<svg width="193" height="49" viewBox="0 0 193 49" fill="none" xmlns="http://www.w3.org/2000/svg">
    <g clip-path="url(#x9nxmavuma)">
        <path d="m23.136 33.071-7.669-9.458 11.14-13.744h-6.083c-2.725 0-4.597.83-6.257 2.78l-5.87 7.234V0H2.507A2.513 2.513 0 0 0 0 2.522v37.087h5.892a2.516 2.516 0 0 0 2.506-2.516v-9.869l4.77 5.87 4.06 5.01c.818 1.028 1.894 1.505 2.999 1.505h8.218l-5.314-6.538h.005z" fill="url(#c0knl31job)"/>
        <path d="M26.382 38.368c-.482-.528-2.371-3.028-4.743-5.83-3.139-3.707-6.346-7.954-7.142-8.903 1.228-1.51 9.222-11.374 10.175-12.536l.42-.495h-4.888c-1.923 0-4.059.972-5.303 2.432l-7.008 8.639s-.045.05-.1.05a.137.137 0 0 1-.135-.134V.74H2.506C1.53.741.734 1.545.734 2.528v36.35h5.158c.975 0 1.766-.802 1.766-1.79V25.336a.13.13 0 0 1 .134-.135.13.13 0 0 1 .101.04l5.91 7.29 4.114 5.066c.7.792 1.62 1.27 2.461 1.27h6.464l-.465-.506.005.006z" fill="url(#toxcyp6lgc)"/>
        <path d="M38.25 39.609c-4.547 0-7.675-3.134-7.675-7.684V2.516A2.52 2.52 0 0 1 33.087 0h5.897v30.347a2.256 2.256 0 0 0 2.254 2.258h5.998v4.488a2.522 2.522 0 0 1-2.517 2.516h-6.47z" fill="url(#co94agic1d)"/>
        <path d="M38.25 38.879c-4.137 0-6.94-2.809-6.94-6.954V2.516c0-.983.796-1.786 1.777-1.786h5.163v29.617c0 1.651 1.34 3 2.988 3h5.264v3.746c0 .983-.796 1.786-1.777 1.786H38.25z" fill="url(#34r2c4wore)"/>
        <path style="mix-blend-mode:screen" opacity=".5" d="M.84 12.857h-.1v25.977h.1V12.857z" fill="url(#0g1gpj2ymf)"/>
        <path style="mix-blend-mode:screen" opacity=".25" d="M1.368 38.879h4.603c.818 0 1.693-.742 1.693-1.865v-11.57h-.101v11.57c0 1.005-.824 1.752-1.587 1.752H1.368v.113z" fill="url(#bm9ugi5xjg)"/>
        <path style="mix-blend-mode:screen" opacity=".25" d="M31.411 12.649V2.399c0-.77.796-1.556 1.564-1.556h5.163l.107-.113h-5.27c-.824 0-1.67.843-1.67 1.668v10.25h.106z" fill="url(#gkhyqxfgnh)"/>
        <path style="mix-blend-mode:screen" opacity=".25" d="M31.41 32.088v-19.36h-.105v19.36h.106z" fill="url(#uf0s0ucnpi)"/>
        <path style="mix-blend-mode:screen" opacity=".5" d="M38.133 29.999c0 .376.022.736.1 1.067.152.663.5 1.207.97 1.612.555.483 1.295.77 2.293.77h4.978v-.102c-.74 0-5.05.012-5.05.012-1.172 0-1.924-.422-2.467-1.05a3.042 3.042 0 0 1-.645-1.264c-.073-.326-.078-.675-.078-1.04h-.107l.006-.005z" fill="url(#yker23a2fj)"/>
        <path style="mix-blend-mode:screen" opacity=".25" d="M44.635 38.772H38.15c-3.975-.006-6.688-2.707-6.688-6.684h-.106c0 4.033 2.763 6.79 6.794 6.79h6.486v-.106z" fill="url(#0wovmb9lck)"/>
        <path style="mix-blend-mode:multiply" d="M31.305 19.355h6.94v-4.448h-6.94v4.448z" fill="url(#z20342u26l)"/>
        <path style="mix-blend-mode:screen" opacity=".25" d="M14.447 23.64s9.3-11.463 10.332-12.732h-.135L14.352 23.6l.095.04z" fill="url(#88efetszom)"/>
        <path style="mix-blend-mode:multiply" d="M20.16 10.543c-1.861 0-3.93.938-5.14 2.347l-6.992 8.616 6.48 2.078s9.425-11.626 10.473-12.901c-1.256 0-4.821-.14-4.821-.14z" fill="url(#so18k65pjn)"/>
        <path style="mix-blend-mode:screen" opacity=".25" d="M18.03 37.705c.605.69 1.535 1.168 2.331 1.168h5.68l-.096-.107h-5.584c-.633 0-1.693-.415-2.332-1.061z" fill="url(#8sew2mu0oo)"/>
        <path style="mix-blend-mode:screen" opacity=".25" d="M7.03.741H2.433C1.61.741.74 1.483.74 2.601v11.823h.107V2.6c0-1.006.824-1.758 1.586-1.758H7.03V.736.74z" fill="url(#d2o6q64ghp)"/>
        <path d="M41.793 10.846c-4.754 0-21.998.011-21.998.011-2.983 0-4.95 1.062-6.335 2.752l-4.255 5.257s0-.01-.006 0c1.542-1.179 3.667-1.881 5.842-1.881h26.752c3.392 0 6.649-1.04 6.649-3.718 0-2.68-.309-4.151-.309-4.151s-1.592 1.73-6.346 1.73h.006z" fill="url(#5ho672b4sq)"/>
        <path d="m9.26 18.793 4.923-6.071c1.21-1.494 2.803-2.876 6.189-2.876h21.42c4.53 0 6.111-1.612 6.123-1.629l.52-.55v5.594s.068.803-.672 1.612c-1.037 1.135-3.044 1.713-5.976 1.713H15.001c-3.414 0-5.74 2.207-5.74 2.207z" fill="url(#kmuo12th8r)"/>
        <path style="mix-blend-mode:screen" opacity=".7" d="M48.408 13.547c-.028.54-.74 2.915-6.61 2.915H15.417c-2.438 0-4.333.691-6.127 2.286l-.045.051c1.413-1.14 3.162-2.224 6.178-2.224h26.382c6.627 0 6.61-3.022 6.61-3.022l-.006-.006z" fill="url(#l0533k67bs)"/>
        <path d="M64.217 34.824c2.052.028 4.12.028 6.2 0 .746-.029 1.385-.146 1.918-.36.538-.208.801-.657.801-1.342 0-.388-.117-.725-.358-1.006-.242-.28-.668-.544-1.29-.78l-7.052-2.505c-1.727-.658-2.938-1.478-3.639-2.46-.7-.983-1.048-2.163-1.048-3.534 0-1.91.673-3.398 2.007-4.47 1.34-1.073 3.195-1.64 5.578-1.702a58.31 58.31 0 0 1 4.597 0c1.16.062 2.18.022 3.055-.113.875-.134 1.626-.365 2.254-.69v2.859c0 .505-.135.938-.398 1.297-.27.36-.628.657-1.093.893-.466.241-.992.41-1.581.517-.6.106-1.222.14-1.878.112a68.91 68.91 0 0 0-5 0c-.836.028-1.43.152-1.784.36-.353.207-.549.522-.583.938-.028.449.079.775.314.982.236.208.656.433 1.25.669l6.874 2.46c1.401.505 2.573 1.247 3.526 2.213.953.972 1.412 2.32 1.385 4.044 0 1.19-.23 2.19-.69 2.994a5.708 5.708 0 0 1-1.872 1.965c-.791.506-1.71.871-2.77 1.096-1.06.224-2.18.337-3.37.337h-5.218c-.864 0-1.57-.09-2.12-.27-.549-.18-.98-.427-1.289-.736a2.38 2.38 0 0 1-.628-1.027 4.293 4.293 0 0 1-.157-1.186v-1.965c0-.18.09-.236.27-.18.414.151.986.275 1.715.382.729.106 1.424.174 2.074.202v.006zM92.023 27.359a233.13 233.13 0 0 1 2.64 2.971l2.787 3.196c.942 1.073 1.867 2.134 2.792 3.173.925 1.045 1.788 2.011 2.59 2.904h-4.911c-.981 0-1.817-.387-2.5-1.162l-7.591-8.717v7.779c0 .595-.202 1.095-.6 1.5-.404.404-.903.606-1.497.606h-2.988v-27.41c0-.359.022-.82.067-1.387a6.166 6.166 0 0 1 .36-1.651c.19-.54.465-1 .823-1.387.353-.388.847-.579 1.47-.579H88.9a6.13 6.13 0 0 0-.847 2.258 15.423 15.423 0 0 0-.224 2.707v12.834l7.321-7.29c.538-.54 1.015-.848 1.452-.938.432-.09.987-.135 1.67-.135h4.418L92.017 27.365l.006-.006zM111.156 49l3.213-10.419a4.556 4.556 0 0 1-2.119-1.028c-.639-.539-1.166-1.387-1.581-2.55l-5.937-16.586c-.179-.505-.207-.91-.09-1.207.152-.388.522-.585 1.116-.585h3.571l5.847 17.036c.062.18.118.32.179.427.056.106.163.157.314.157.18 0 .326-.197.449-.584l3.705-12.52c.152-.505.337-1.027.555-1.567a7.14 7.14 0 0 1 .808-1.455 4.136 4.136 0 0 1 1.115-1.072c.432-.281.914-.427 1.447-.427h4.019c-.656.415-1.233 1.09-1.743 2.01-.505.922-.953 1.983-1.34 3.174l-7.944 25.174c-.241.685-.532 1.19-.869 1.522-.342.326-.824.489-1.452.489h-3.257l-.006.011zM135.341 7.15v26.022c0 .624.152 1.135.449 1.522.297.388.745.584 1.334.584h.359c.745 0 1.424-.028 2.029-.09a5.602 5.602 0 0 0 1.716-.443c.117-.062.179-.028.179.09v2.325c0 .955-.364 1.674-1.093 2.168-.729.494-1.66.736-2.792.736h-1.205c-1.133 0-2.075-.185-2.837-.556a4.925 4.925 0 0 1-1.828-1.5 5.883 5.883 0 0 1-.981-2.145 10.541 10.541 0 0 1-.291-2.505V9.25c0-.596.19-1.095.577-1.5.387-.404.88-.6 1.475-.6H135.341zM150.293 11.71c0 .596-.191 1.096-.583 1.5-.387.4-.909.607-1.559.607h-2.943v-3.623c0-1.432.684-2.145 2.052-2.145h3.033v3.668-.006zm0 4.921V37.02c0 .955-.163 1.623-.488 2.01-.331.388-.981.585-1.962.585h-2.635V18.687c0-.624.179-1.123.533-1.5.358-.37.863-.562 1.519-.562h3.033v.006zM163.546 16.625h1.788c2.68 0 4.356-.28 5.04-.848v2.82c0 .983-.454 1.69-1.362 2.123-.908.433-2.075.646-3.504.646h-1.962v16.142c0 1.404-.695 2.101-2.097 2.101h-2.988V21.366h-4.687v-2.685c0-1.37.701-2.056 2.097-2.056h2.59v-3.038c0-.983.168-1.87.516-2.662a5.984 5.984 0 0 1 3.414-3.286 6.887 6.887 0 0 1 2.5-.444h5.489v2.19c0 .866-.253 1.523-.757 1.966-.505.444-1.161.669-1.962.669h-2.411c-.505 0-.914.129-1.228.382-.314.253-.471.68-.471 1.275v2.948h-.005zM181.44 35.318c.684.056 1.469.084 2.366.067a81.606 81.606 0 0 0 2.366-.067c.443 0 .958-.04 1.541-.112a52.59 52.59 0 0 0 1.716-.248c.561-.09 1.082-.202 1.564-.337.477-.134.847-.275 1.116-.427.117-.061.179-.028.179.09v2.46c0 .686-.224 1.242-.673 1.68-.448.432-1.099.78-1.962 1.05-.476.146-1.037.27-1.67.36-.64.09-1.318.157-2.03.202a35.32 35.32 0 0 1-2.209.067h-2.164c-2.534 0-4.585-.724-6.155-2.168-1.581-1.443-2.411-3.465-2.5-6.06-.056-1.101-.09-2.331-.09-3.69 0-1.36.028-2.584.09-3.69.089-2.326.936-4.224 2.545-5.701 1.603-1.478 4.031-2.213 7.271-2.213h1.609c1.188 0 2.315.162 3.369.488 1.054.332 1.979.792 2.764 1.387a6.3 6.3 0 0 1 1.85 2.213c.448.882.673 1.854.673 2.927v1.83c0 1.967-.595 3.405-1.789 4.315-1.188.91-3.049 1.364-5.578 1.364h-7.764v.759c0 .359.05.73.151 1.117.107.388.292.747.561 1.073.263.331.633.612 1.093.848.46.242 1.048.377 1.76.405v.01zm6.604-11.447c0-.775-.353-1.393-1.071-1.86-.717-.46-1.637-.69-2.769-.69h-1.474c-.92 0-1.693.095-2.316.292-.628.197-1.126.45-1.496.758-.37.315-.64.658-.802 1.028a2.836 2.836 0 0 0-.247 1.14v1.831h7.675c.712 0 1.312-.044 1.783-.134.476-.09.717-.416.717-.983v-1.388.006z" fill="#E60012"/>
    </g>
    <defs>
        <radialGradient id="0g1gpj2ymf" cx="0" cy="0" r="1" gradientUnits="userSpaceOnUse" gradientTransform="matrix(10.4359 0 0 10.5102 1.203 25.476)">
            <stop stop-color="#fff"/>
            <stop offset="1" stop-color="#231815"/>
        </radialGradient>
        <radialGradient id="bm9ugi5xjg" cx="0" cy="0" r="1" gradientUnits="userSpaceOnUse" gradientTransform="matrix(5.41877 0 0 5.42904 7.446 38.797)">
            <stop stop-color="#fff"/>
            <stop offset="1" stop-color="#231815"/>
        </radialGradient>
        <radialGradient id="gkhyqxfgnh" cx="0" cy="0" r="1" gradientUnits="userSpaceOnUse" gradientTransform="matrix(8.0322 0 0 8.04743 32 1.499)">
            <stop stop-color="#fff"/>
            <stop offset="1" stop-color="#231815"/>
        </radialGradient>
        <radialGradient id="uf0s0ucnpi" cx="0" cy="0" r="1" gradientUnits="userSpaceOnUse" gradientTransform="matrix(7.78145 0 0 7.83686 31.797 22.217)">
            <stop stop-color="#fff"/>
            <stop offset="1" stop-color="#231815"/>
        </radialGradient>
        <radialGradient id="yker23a2fj" cx="0" cy="0" r="1" gradientUnits="userSpaceOnUse" gradientTransform="matrix(3.93843 0 0 3.94589 41.037 33.615)">
            <stop stop-color="#fff"/>
            <stop offset="1" stop-color="#231815"/>
        </radialGradient>
        <radialGradient id="0wovmb9lck" cx="0" cy="0" r="1" gradientUnits="userSpaceOnUse" gradientTransform="matrix(7.25548 0 0 7.26923 37.564 38.898)">
            <stop stop-color="#fff"/>
            <stop offset="1" stop-color="#231815"/>
        </radialGradient>
        <radialGradient id="88efetszom" cx="0" cy="0" r="1" gradientUnits="userSpaceOnUse" gradientTransform="matrix(3.69171 0 0 3.6987 17.251 20.963)">
            <stop stop-color="#fff"/>
            <stop offset="1" stop-color="#231815"/>
        </radialGradient>
        <radialGradient id="8sew2mu0oo" cx="0" cy="0" r="1" gradientUnits="userSpaceOnUse" gradientTransform="matrix(4.91618 0 0 4.9255 20.23 39.218)">
            <stop stop-color="#fff"/>
            <stop offset="1" stop-color="#231815"/>
        </radialGradient>
        <radialGradient id="d2o6q64ghp" cx="0" cy="0" r="1" gradientUnits="userSpaceOnUse" gradientTransform="matrix(-5.45532 0 0 -5.46566 -3.127 -3.01)">
            <stop stop-color="#fff"/>
            <stop offset="1" stop-color="#231815"/>
        </radialGradient>
        <radialGradient id="l0533k67bs" cx="0" cy="0" r="1" gradientUnits="userSpaceOnUse" gradientTransform="matrix(37.4836 0 0 37.5547 10.991 17.593)">
            <stop stop-color="#050000"/>
            <stop offset=".24" stop-color="#fff"/>
            <stop offset=".76" stop-color="#fff"/>
            <stop offset=".78" stop-color="#FAFAFA"/>
            <stop offset=".81" stop-color="#ECEBEB"/>
            <stop offset=".85" stop-color="#D5D4D4"/>
            <stop offset=".88" stop-color="#B4B3B3"/>
            <stop offset=".91" stop-color="#8B8888"/>
            <stop offset=".95" stop-color="#585555"/>
            <stop offset=".99" stop-color="#1D1818"/>
            <stop offset="1" stop-color="#050000"/>
        </radialGradient>
        <linearGradient id="c0knl31job" x1="14.223" y1="50.786" x2="14.223" y2="-10.054" gradientUnits="userSpaceOnUse">
            <stop stop-color="#444241"/>
            <stop offset="1" stop-color="#262A2A"/>
        </linearGradient>
        <linearGradient id="toxcyp6lgc" x1="13.791" y1="-7.807" x2="13.791" y2="47.523" gradientUnits="userSpaceOnUse">
            <stop stop-color="#333"/>
            <stop offset="1"/>
        </linearGradient>
        <linearGradient id="co94agic1d" x1="38.9" y1="40.288" x2="38.9" y2="-.14" gradientUnits="userSpaceOnUse">
            <stop stop-color="#444241"/>
            <stop offset="1" stop-color="#262A2A"/>
        </linearGradient>
        <linearGradient id="34r2c4wore" x1="38.9" y1=".73" x2="38.9" y2="38.177" gradientUnits="userSpaceOnUse">
            <stop stop-color="#333"/>
            <stop offset="1"/>
        </linearGradient>
        <linearGradient id="z20342u26l" x1="34.775" y1="19.338" x2="34.775" y2="17.704" gradientUnits="userSpaceOnUse">
            <stop stop-color="#fff"/>
            <stop offset="1" stop-color="#241C1D"/>
        </linearGradient>
        <linearGradient id="so18k65pjn" x1="16.51" y1="19.557" x2="16.51" y2="15.558" gradientUnits="userSpaceOnUse">
            <stop stop-color="#fff"/>
            <stop offset=".53" stop-color="#241C1D"/>
            <stop offset="1" stop-color="#fff"/>
        </linearGradient>
        <linearGradient id="5ho672b4sq" x1="48.217" y1="9.408" x2="9.122" y2="19.622" gradientUnits="userSpaceOnUse">
            <stop stop-color="#D10E1A"/>
            <stop offset=".48" stop-color="#A91118"/>
            <stop offset=".6" stop-color="#AC1018"/>
            <stop offset=".7" stop-color="#B60F18"/>
            <stop offset=".79" stop-color="#C80E19"/>
            <stop offset=".83" stop-color="#D10E1A"/>
            <stop offset=".93" stop-color="#A20F16"/>
            <stop offset=".95" stop-color="#9F0E15"/>
            <stop offset=".96" stop-color="#950E14"/>
            <stop offset=".97" stop-color="#850E13"/>
            <stop offset=".98" stop-color="#6F0D11"/>
            <stop offset=".99" stop-color="#530C0F"/>
            <stop offset="1" stop-color="#360C0D"/>
        </linearGradient>
        <linearGradient id="kmuo12th8r" x1="19.929" y1="5.735" x2="40.62" y2="23.063" gradientUnits="userSpaceOnUse">
            <stop stop-color="#BE111A"/>
            <stop offset=".02" stop-color="#D70B17"/>
            <stop offset=".04" stop-color="#DE2E28"/>
            <stop offset=".07" stop-color="#E65239"/>
            <stop offset=".1" stop-color="#EB6744"/>
            <stop offset=".11" stop-color="#ED7048"/>
            <stop offset=".25" stop-color="#EA4D37"/>
            <stop offset=".48" stop-color="#E60A16"/>
            <stop offset=".71" stop-color="#E60A16"/>
            <stop offset="1" stop-color="#D70B17"/>
        </linearGradient>
        <clipPath id="x9nxmavuma">
            <path fill="#fff" d="M0 0h193v49H0z"/>
        </clipPath>
    </defs>
</svg>
