<svg width="175" height="40" viewBox="0 0 175 40" fill="none" xmlns="http://www.w3.org/2000/svg">
    <path d="M9.71 17.75h.014-.013zm41.447-5.928V5.907l-.552.58c-.026 0-1.682 1.717-6.465 1.717H21.511c-3.574 0-5.256 1.466-6.53 3.037l-.697.871s-.053.04-.066.066l-4.494 5.546c1.63-1.228 3.864-1.98 6.15-1.98H44.14c3.43 0 6.715-1.004 6.99-3.592.04-.211.027-.343.027-.343v.013z" fill="#E60012"/>
    <g clip-path="url(#o6vfxitw3a)">
        <path d="m23.088 33.027-7.654-9.441 11.121-13.73h-6.072c-2.713 0-4.582.829-6.235 2.775L8.39 19.856V0H2.497C1.114 0 0 1.135 0 2.523v37.026h5.875a2.5 2.5 0 0 0 2.498-2.522v-9.856l4.761 5.856 4.043 4.991c.826 1.027 1.886 1.495 3 1.495h8.193l-5.3-6.522.018.036z" fill="url(#y6qzle5g9b)"/>
        <path d="M26.322 38.306c-.485-.522-2.372-3.027-4.725-5.82-3.127-3.711-6.325-7.945-7.133-8.882 1.24-1.514 9.199-11.352 10.151-12.523l.413-.504H20.16c-1.922 0-4.042.973-5.282 2.432l-6.99 8.63s-.035.055-.107.055-.126-.054-.126-.144V.739H2.516c-.989 0-1.78.81-1.78 1.784v36.306h5.14c.97 0 1.76-.793 1.76-1.784v-11.73s.054-.144.126-.144c.054 0 .09.036.108.036l5.893 7.28 4.115 5.063c.7.792 1.616 1.26 2.461 1.26h6.45l-.467-.504z" fill="url(#0rawkvvefc)"/>
        <path d="M38.162 39.55c-4.527 0-7.654-3.136-7.654-7.676V2.504A2.51 2.51 0 0 1 33.024 0h5.875v30.306a2.25 2.25 0 0 0 2.246 2.253h5.983v4.468a2.51 2.51 0 0 1-2.516 2.505h-6.45v.018z" fill="url(#urq9u287td)"/>
        <path d="M38.162 38.829c-4.133 0-6.917-2.811-6.917-6.937V2.504c0-.99.79-1.783 1.778-1.783h5.157v29.585a2.98 2.98 0 0 0 2.983 2.991h5.246v3.748c0 .991-.79 1.784-1.779 1.784h-6.468z" fill="url(#0zlum7kgbe)"/>
        <path style="mix-blend-mode:screen" opacity=".5" d="M.827 12.829h-.09v25.946h.09V12.829z" fill="url(#dy9yqowplf)"/>
        <path style="mix-blend-mode:screen" opacity=".25" d="M1.366 38.829h4.6c.826 0 1.688-.739 1.688-1.856v-11.55h-.108v11.55c0 1.009-.826 1.748-1.58 1.748h-4.6v.108z" fill="url(#9leci50dtg)"/>
        <path style="mix-blend-mode:screen" opacity=".25" d="M31.335 12.63V2.397c0-.756.79-1.55 1.563-1.55h5.157l.107-.107h-5.264c-.827 0-1.67.829-1.67 1.657v10.235h.107z" fill="url(#0svu8xv2qh)"/>
        <path style="mix-blend-mode:screen" opacity=".25" d="M31.335 32.054V12.703h-.108v19.333h.108v.018z" fill="url(#hosyvrudgi)"/>
        <path style="mix-blend-mode:screen" opacity=".5" d="M38.054 29.964c0 .378.018.739.108 1.063.144.667.503 1.207.97 1.604.557.486 1.294.774 2.282.774h4.959v-.108h-5.03c-1.169 0-1.923-.414-2.462-1.045a3.118 3.118 0 0 1-.647-1.261c-.072-.324-.072-.685-.072-1.045h-.108v.018z" fill="url(#v6eada4e9j)"/>
        <path style="mix-blend-mode:screen" opacity=".25" d="M44.54 38.72h-6.468c-3.97 0-6.665-2.702-6.665-6.666h-.108c0 4.018 2.767 6.775 6.773 6.775h6.469v-.108z" fill="url(#maslbdwi2k)"/>
        <path style="mix-blend-mode:multiply" d="M31.245 19.333h6.917v-4.432h-6.917v4.432z" fill="url(#qvt2o2qw0l)"/>
        <path style="mix-blend-mode:screen" opacity=".25" d="M14.428 23.604 24.74 10.9h-.144c-.27.324-10.277 12.666-10.277 12.666l.09.037h.018z" fill="url(#qmng7kuz4m)"/>
        <path style="mix-blend-mode:multiply" d="M20.123 10.523c-1.869 0-3.917.936-5.139 2.342l-6.97 8.612 6.467 2.072s9.397-11.603 10.457-12.882c-1.258 0-4.815-.144-4.815-.144z" fill="url(#074x8ftynn)"/>
        <path style="mix-blend-mode:screen" opacity=".25" d="M17.985 37.658c.611.684 1.528 1.17 2.336 1.17h5.66l-.09-.107h-5.57c-.647 0-1.689-.415-2.336-1.063z" fill="url(#2en8dxwa1o)"/>
        <path style="mix-blend-mode:screen" opacity=".25" d="M7.025.739h-4.6c-.808 0-1.688.739-1.688 1.856v11.801h.108V2.595c0-1.01.826-1.748 1.58-1.748h4.6V.739z" fill="url(#qu5slndmip)"/>
        <path d="M41.702 10.829H19.746c-2.965 0-4.941 1.063-6.325 2.739l-4.258 5.26c1.545-1.17 3.665-1.873 5.821-1.873h26.7c3.377 0 6.63-1.045 6.63-3.712 0-2.666-.306-4.144-.306-4.144s-1.581 1.73-6.324 1.73h.018z" fill="url(#kgoo2yrniq)"/>
        <path d="m9.253 18.775 4.905-6.072c1.204-1.496 2.803-2.865 6.181-2.865H41.72c4.51 0 6.09-1.604 6.109-1.622l.52-.558v5.585s.073.793-.664 1.604c-1.024 1.135-3.036 1.712-5.965 1.712H14.967c-3.396 0-5.732 2.216-5.732 2.216h.018z" fill="url(#syytie1zxr)"/>
        <path style="mix-blend-mode:screen" opacity=".7" d="M48.296 13.531c-.018.541-.737 2.901-6.594 2.901H15.38c-2.444 0-4.312.703-6.109 2.289l-.054.054c1.42-1.135 3.162-2.216 6.163-2.216h26.322c6.612 0 6.594-3.01 6.594-3.01v-.018z" fill="url(#8t356669rs)"/>
        <path d="M58.68 27.82c0-6.865 2.318-12 10.134-12 7.816 0 9.29 5.37 9.29 9.765v2.379c0 1.495-.881 2.108-2.193 2.108H63.765c0 3.658 2.282 5.46 5.75 5.46 3.018 0 5.75-.793 7.672-1.766v3.477c0 .667-.395 1.063-.88 1.37-1.366.882-4.654 1.405-7.241 1.405-7.852 0-10.385-4.829-10.385-12.18v-.018zm14.428-2.018v-.397c0-3.603-1.796-5.099-4.563-5.099-3.019 0-4.654 1.928-4.69 5.496h9.253zM82.936 38.829c-.43-.307-.916-.83-.916-1.496l.036-3.297c1.85.919 4.204 1.405 6.486 1.405 2.534 0 3.504-1.063 3.504-2.378 0-1.315-.521-2.162-2.228-2.775l-2.246-.793c-3.252-1.153-5.444-2.99-5.444-6.81 0-4.793 3.378-6.505 8.606-6.505 2.066 0 4.043-.09 4.995-.486v3.873c0 .92-2.102 1.19-4.78 1.19-2.371 0-3.557.522-3.557 2.018 0 .973.395 1.711 1.923 2.252l2.192.757c3.252 1.099 5.785 3.08 5.785 7.08 0 4.541-2.587 7.172-9.037 7.172-1.761 0-4.205-.486-5.355-1.19l.036-.017zM102.323 33.586V20.739h-3.342v-3.352c0-.793.45-1.225 1.276-1.225h2.066v-4.45c0-.883.341-1.28 1.222-1.28h3.952v5.712h2.857c1.402 0 2.498-.036 3.558-.486v3.297c0 1.586-2.067 1.766-3.809 1.766h-2.588v11.693c0 1.892.521 2.937 2.713 2.937 1.887 0 2.767-.306 3.684-.702v3.387c0 .667-.396 1.135-.917 1.315-1.186.433-2.587.613-4.473.613-3.594 0-6.181-1.532-6.181-6.414l-.018.036zM116.175 33.099c0-6.775 5.696-8 11.535-8h1.581v-.919c0-3.261-1.437-3.964-4.563-3.964-1.797 0-4.079.396-5.57.829-.665.18-1.186.036-1.186-.703V17.01c2.156-.703 4.743-1.19 7.888-1.19 4.509 0 8.462 1.406 8.462 7.748v10.991c0 .74.27 1.063.88 1.063.36 0 .522-.035.881-.126v2.685c0 1.19-1.312 1.838-2.893 1.838-1.581 0-3.162-.703-3.719-2.198-1.186 1.37-3.899 2.198-5.75 2.198-4.114 0-7.546-2.108-7.546-6.901v-.018zm13.116 1.1v-5.37h-1.186c-5.659 0-6.935 1.621-6.935 4.054 0 1.928 1.438 2.684 3.737 2.684 1.492 0 3.288-.522 4.384-1.369zM141.635 33.586V20.739h-3.342v-3.352c0-.793.449-1.225 1.276-1.225h2.066v-4.45c0-.883.341-1.28 1.222-1.28h3.952v5.712h2.857c1.402 0 2.498-.036 3.558-.486v3.297c0 1.586-2.067 1.766-3.809 1.766h-2.588v11.693c0 1.892.521 2.937 2.713 2.937 1.887 0 2.767-.306 3.684-.702v3.387c0 .667-.396 1.135-.917 1.315-1.185.433-2.587.613-4.473.613-3.594 0-6.181-1.532-6.181-6.414l-.018.036zM155.577 27.82c0-6.865 2.318-12 10.134-12 7.815 0 9.307 5.37 9.307 9.765v2.379c0 1.495-.881 2.108-2.192 2.108H160.68c0 3.658 2.282 5.46 5.749 5.46 3.019 0 5.75-.793 7.672-1.766v3.477c0 .667-.395 1.063-.88 1.37-1.366.882-4.654 1.405-7.241 1.405-7.852 0-10.403-4.829-10.403-12.18v-.018zm14.428-2.018v-.397c0-3.603-1.797-5.099-4.564-5.099-3.018 0-4.653 1.928-4.689 5.496h9.253z" fill="#ED1B23"/>
    </g>
    <defs>
        <radialGradient id="dy9yqowplf" cx="0" cy="0" r="1" gradientUnits="userSpaceOnUse" gradientTransform="matrix(10.459 0 0 10.4886 .86 25.104)">
            <stop stop-color="#fff"/>
            <stop offset="1" stop-color="#221E1F"/>
        </radialGradient>
        <radialGradient id="9leci50dtg" cx="0" cy="0" r="1" gradientUnits="userSpaceOnUse" gradientTransform="matrix(5.39949 0 0 5.41477 7.09 38.4)">
            <stop stop-color="#fff"/>
            <stop offset="1" stop-color="#221E1F"/>
        </radialGradient>
        <radialGradient id="0svu8xv2qh" cx="0" cy="0" r="1" gradientUnits="userSpaceOnUse" gradientTransform="matrix(8.00832 0 0 8.03099 31.565 1.186)">
            <stop stop-color="#fff"/>
            <stop offset="1" stop-color="#221E1F"/>
        </radialGradient>
        <radialGradient id="hosyvrudgi" cx="0" cy="0" r="1" gradientUnits="userSpaceOnUse" gradientTransform="matrix(7.79504 0 0 7.81694 31.36 21.854)">
            <stop stop-color="#fff"/>
            <stop offset="1" stop-color="#221E1F"/>
        </radialGradient>
        <radialGradient id="v6eada4e9j" cx="0" cy="0" r="1" gradientUnits="userSpaceOnUse" gradientTransform="matrix(3.92905 0 0 3.94018 40.569 33.23)">
            <stop stop-color="#fff"/>
            <stop offset="1" stop-color="#221E1F"/>
        </radialGradient>
        <radialGradient id="maslbdwi2k" cx="0" cy="0" r="1" gradientUnits="userSpaceOnUse" gradientTransform="matrix(7.23357 0 0 7.25405 37.114 38.494)">
            <stop stop-color="#fff"/>
            <stop offset="1" stop-color="#221E1F"/>
        </radialGradient>
        <radialGradient id="qmng7kuz4m" cx="0" cy="0" r="1" gradientUnits="userSpaceOnUse" gradientTransform="matrix(3.68398 0 0 3.69441 16.852 20.601)">
            <stop stop-color="#fff"/>
            <stop offset="1" stop-color="#221E1F"/>
        </radialGradient>
        <radialGradient id="2en8dxwa1o" cx="0" cy="0" r="1" gradientUnits="userSpaceOnUse" gradientTransform="matrix(4.90144 0 0 4.91531 19.825 38.812)">
            <stop stop-color="#fff"/>
            <stop offset="1" stop-color="#221E1F"/>
        </radialGradient>
        <radialGradient id="qu5slndmip" cx="0" cy="0" r="1" gradientUnits="userSpaceOnUse" gradientTransform="matrix(-5.43111 0 0 -5.44649 1.308 1.16)">
            <stop stop-color="#fff"/>
            <stop offset="1" stop-color="#221E1F"/>
        </radialGradient>
        <radialGradient id="8t356669rs" cx="0" cy="0" r="1" gradientUnits="userSpaceOnUse" gradientTransform="matrix(37.3616 0 0 37.4674 10.623 17.247)">
            <stop stop-color="#000101"/>
            <stop offset=".24" stop-color="#fff"/>
            <stop offset=".76" stop-color="#fff"/>
            <stop offset=".78" stop-color="#FAFAFA"/>
            <stop offset=".81" stop-color="#EBEBEB"/>
            <stop offset=".85" stop-color="#D4D4D4"/>
            <stop offset=".88" stop-color="#B3B3B3"/>
            <stop offset=".91" stop-color="#888989"/>
            <stop offset=".95" stop-color="#555"/>
            <stop offset=".99" stop-color="#181919"/>
            <stop offset="1" stop-color="#000101"/>
        </radialGradient>
        <linearGradient id="y6qzle5g9b" x1="14.194" y1="50.721" x2="14.194" y2="-10.036" gradientUnits="userSpaceOnUse">
            <stop stop-color="#414041"/>
            <stop offset="1" stop-color="#252B2B"/>
        </linearGradient>
        <linearGradient id="0rawkvvefc" x1="13.763" y1="-7.802" x2="13.763" y2="47.459" gradientUnits="userSpaceOnUse">
            <stop stop-color="#333"/>
            <stop offset="1"/>
        </linearGradient>
        <linearGradient id="urq9u287td" x1="38.809" y1="40.234" x2="38.809" y2="-.144" gradientUnits="userSpaceOnUse">
            <stop stop-color="#414041"/>
            <stop offset="1" stop-color="#252B2B"/>
        </linearGradient>
        <linearGradient id="0zlum7kgbe" x1="38.809" y1=".739" x2="38.809" y2="38.126" gradientUnits="userSpaceOnUse">
            <stop stop-color="#333"/>
            <stop offset="1"/>
        </linearGradient>
        <linearGradient id="qvt2o2qw0l" x1="34.694" y1="19.315" x2="34.694" y2="17.676" gradientUnits="userSpaceOnUse">
            <stop stop-color="#fff"/>
            <stop offset="1" stop-color="#221D1E"/>
        </linearGradient>
        <linearGradient id="074x8ftynn" x1="16.476" y1="19.532" x2="16.476" y2="15.531" gradientUnits="userSpaceOnUse">
            <stop stop-color="#fff"/>
            <stop offset=".53" stop-color="#221D1E"/>
            <stop offset="1" stop-color="#fff"/>
        </linearGradient>
        <linearGradient id="kgoo2yrniq" x1="48.116" y1="9.387" x2="9.113" y2="19.586" gradientUnits="userSpaceOnUse">
            <stop stop-color="#CF1F27"/>
            <stop offset=".48" stop-color="#A11D20"/>
            <stop offset=".59" stop-color="#A41D20"/>
            <stop offset=".68" stop-color="#AE1D22"/>
            <stop offset=".77" stop-color="#C01E24"/>
            <stop offset=".83" stop-color="#CF1F27"/>
            <stop offset=".93" stop-color="#991B1E"/>
            <stop offset=".95" stop-color="#961A1D"/>
            <stop offset=".96" stop-color="#8C191C"/>
            <stop offset=".97" stop-color="#7C181A"/>
            <stop offset=".98" stop-color="#661517"/>
            <stop offset=".99" stop-color="#4A1213"/>
            <stop offset="1" stop-color="#321010"/>
        </linearGradient>
        <linearGradient id="syytie1zxr" x1="19.89" y1="5.73" x2="40.546" y2="23.006" gradientUnits="userSpaceOnUse">
            <stop stop-color="#B81F24"/>
            <stop offset=".02" stop-color="#D71F26"/>
            <stop offset=".03" stop-color="#DD3130"/>
            <stop offset=".07" stop-color="#E95544"/>
            <stop offset=".09" stop-color="#F06A50"/>
            <stop offset=".11" stop-color="#F37355"/>
            <stop offset=".28" stop-color="#F05041"/>
            <stop offset=".48" stop-color="#ED2126"/>
            <stop offset=".71" stop-color="#ED2126"/>
            <stop offset="1" stop-color="#D71F26"/>
        </linearGradient>
        <clipPath id="o6vfxitw3a">
            <path fill="#fff" d="M0 0h175v40H0z"/>
        </clipPath>
    </defs>
</svg>
