<?xml version="1.0" encoding="utf-8"?>
<!-- Generator: Adobe Illustrator 24.1.1, SVG Export Plug-In . SVG Version: 6.00 Build 0)  -->
<svg version="1.1" id="Layer_1" xmlns="http://www.w3.org/2000/svg" xmlns:xlink="http://www.w3.org/1999/xlink" x="0px" y="0px"
	 viewBox="0 0 149 34" style="enable-background:new 0 0 149 34;" xml:space="preserve">
<style type="text/css">
	.st0{fill:#E60012;}
</style>
<path d="M12.9,20.1l9.2-11.4h-5c-2.3,0-3.8,0.7-5.2,2.3L7,17V0.4H2.2C1,0.4,0.1,1.3,0.1,2.5v31H5c1.1,0,2.1-1,2.1-2.1v-8.2l3.9,4.9
	l3.4,4.2c0.7,0.9,1.6,1.3,2.5,1.3h6.8l-4.4-5.5L12.9,20.1L12.9,20.1z M34.2,27.7c-1,0-1.9-0.9-1.9-1.9V0.4h-4.9
	c-1.2,0-2.1,0.9-2.1,2.1v24.6c0,3.8,2.6,6.4,6.3,6.4h5.5c1.2,0,2.1-0.9,2.1-2.1v-3.7L34.2,27.7L34.2,27.7L34.2,27.7z"/>
<path class="st0" d="M7.7,16.2L7.7,16.2L7.7,16.2z M40.2,11.5V6.8l-0.4,0.5c0,0-1.3,1.4-5.1,1.4H17c-2.8,0-4.1,1.2-5.1,2.4l-0.5,0.7
	c0,0,0,0-0.1,0.1l-3.5,4.4c1.3-1,3-1.6,4.8-1.6h22.2c2.7,0,5.3-0.8,5.5-2.8C40.2,11.6,40.2,11.5,40.2,11.5L40.2,11.5L40.2,11.5z"/>
<path d="M51.4,14.2H54v1.9c0.9-1,2.1-1.6,3.6-1.8c0.2,0,0.6-0.1,1.4-0.2c0.7-0.1,1.3-0.2,1.7-0.4v2.5c0,0.4-0.2,0.6-0.6,0.8
	c-0.4,0.2-1.1,0.3-2.2,0.4c-0.8,0.1-1.5,0.3-2.2,0.6c-0.6,0.3-1.2,0.7-1.6,1.2v13c0,0.6-0.3,0.8-0.9,0.8h-2.5V15
	C50.5,14.5,50.8,14.2,51.4,14.2L51.4,14.2z M64.8,31c-1.4-1.6-2-4.1-2-7.3c0-3.1,0.6-5.4,1.9-7.2c1.3-1.7,3.3-2.6,5.9-2.6
	c2.5,0,4.3,0.8,5.5,2.2c1.2,1.5,1.8,3.4,1.8,5.7v1.4c0,0.7-0.1,1.2-0.4,1.4c-0.3,0.3-0.8,0.4-1.4,0.4h-10c0,1.8,0.5,3.1,1.4,4
	s2.1,1.3,3.8,1.3c1.1,0,2.1-0.1,3.1-0.4s1.9-0.6,2.8-1V31c0,0.5-0.2,0.9-0.8,1.2C75.8,32.5,75,32.8,74,33s-2,0.3-3,0.3
	C68.2,33.5,66.1,32.7,64.8,31L64.8,31L64.8,31z M74.5,21.6c0-1.5-0.3-2.6-1.1-3.4c-0.7-0.8-1.7-1.2-3-1.2s-2.3,0.5-3,1.4
	s-1.1,2.2-1.1,3.9h8.3L74.5,21.6L74.5,21.6z M81.3,23.8c0-3.2,0.8-5.6,2.4-7.2s3.7-2.4,6.4-2.4c2,0,3.3-0.2,4-0.5v2.5
	c0,0.4-0.3,0.7-0.9,0.8c-0.6,0.2-1.6,0.3-2.8,0.3c-3.7,0-5.6,2.1-5.6,6.4c0,2.2,0.4,3.8,1.3,4.9s2.1,1.6,3.7,1.6
	c1.9,0,3.6-0.3,4.9-0.9v2.2c0,0.6-0.3,0.9-0.8,1.2c-0.4,0.2-1,0.4-1.8,0.5c-0.7,0.1-1.5,0.2-2.2,0.2C84.1,33.5,81.3,30.3,81.3,23.8
	L81.3,23.8z M98.8,14.2h2.6v1.9c0.9-1,2.1-1.6,3.6-1.8c0.2,0,0.6-0.1,1.4-0.2c0.7-0.1,1.3-0.2,1.7-0.4v2.5c0,0.4-0.2,0.6-0.6,0.8
	s-1.1,0.3-2.2,0.4c-0.8,0.1-1.5,0.3-2.2,0.6c-0.6,0.3-1.2,0.7-1.6,1.2v13c0,0.6-0.3,0.8-0.9,0.8h-2.5V15
	C98,14.5,98.3,14.2,98.8,14.2L98.8,14.2L98.8,14.2z M112.4,32c-1.1-1-1.6-2.6-1.6-4.8V15c0-0.5,0.3-0.8,0.8-0.8h2.6v12.3
	c0,1.3,0.2,2.3,0.8,2.9s1.3,1,2.4,1c0.8,0,1.5-0.1,2.1-0.4c0.7-0.3,1.4-0.7,2.1-1.1V18.4c0-1.6,0.1-2.7,0.3-3.3
	c0.2-0.6,0.5-0.9,1-0.9h2.7c-0.4,0.8-0.6,2.2-0.6,4v14c0,0.6-0.3,0.9-0.9,0.9h-2.6v-1.2c-0.7,0.5-1.5,0.9-2.2,1.1
	c-0.8,0.3-1.6,0.4-2.4,0.4C115,33.5,113.5,33,112.4,32L112.4,32L112.4,32z M130.9,7.7h2.9v2.8c0,0.6-0.3,0.8-0.8,0.8h-2.8V8.5
	C130.2,8,130.4,7.7,130.9,7.7L130.9,7.7z M131.1,14.3h2.6v18c0,0.6-0.3,0.9-0.8,0.9h-2.6v-18C130.3,14.5,130.6,14.2,131.1,14.3
	L131.1,14.3L131.1,14.3z M141.4,32.3c-0.8-0.8-1.3-2.2-1.3-4v-11h-2.8v-2.2c0-0.6,0.3-0.9,0.9-0.9h1.9v-3.8c0-0.6,0.3-0.9,0.9-0.9
	h2.6v4.7h2.3c1.2,0,2.2-0.2,2.8-0.5v2.2c0,0.5-0.3,0.9-0.8,1.1s-1.3,0.3-2.2,0.3h-2.1v10.3c0,1,0.2,1.7,0.6,2.1
	c0.4,0.4,1,0.7,1.9,0.7c1,0,1.9-0.2,2.8-0.5V32c0,0.6-0.3,0.9-0.8,1.1c-0.7,0.3-1.7,0.4-2.9,0.4C143.6,33.5,142.4,33.1,141.4,32.3
	L141.4,32.3L141.4,32.3z"/>
</svg>
