<?xml version="1.0" encoding="utf-8"?>
<!-- Generator: Adobe Illustrator 24.1.1, SVG Export Plug-In . SVG Version: 6.00 Build 0)  -->
<svg version="1.1" xmlns="http://www.w3.org/2000/svg" xmlns:xlink="http://www.w3.org/1999/xlink" x="0px" y="0px"
	 viewBox="0 0 148.9 34" style="enable-background:new 0 0 148.9 34;" xml:space="preserve">
<style type="text/css">
	.st0{display:none;}
	.st1{fill:#FFFFFF;}
	.st2{fill:#E60012;}
</style>
<g id="Layer_2" class="st0">
</g>
<g id="Layer_1">
	<path class="st1" d="M12.8,20.1L22,8.6h-5c-2.3,0-3.8,0.7-5.2,2.3l-4.9,6V0.3H2.1C0.9,0.3,0,1.3,0,2.4v31h4.9C6,33.4,7,32.5,7,31.3
		v-8.2l3.9,4.9l3.4,4.2c0.7,0.9,1.6,1.3,2.5,1.3h6.8L19.2,28L12.8,20.1C12.8,20.1,12.8,20.1,12.8,20.1z M34.1,27.6
		c-1,0-1.9-0.9-1.9-1.9V0.3h-4.9c-1.2,0-2.1,0.9-2.1,2.1V27c0,3.8,2.6,6.4,6.3,6.4H37c1.2,0,2.1-0.9,2.1-2.1v-3.7L34.1,27.6
		L34.1,27.6L34.1,27.6z"/>
	<path class="st2" d="M7.6,16.1L7.6,16.1L7.6,16.1z M40.1,11.4V6.8l-0.4,0.5c0,0-1.3,1.4-5.1,1.4H16.9c-2.8,0-4.1,1.2-5.1,2.4
		l-0.5,0.7c0,0,0,0-0.1,0.1l-3.5,4.4c1.3-1,3-1.6,4.8-1.6h22.2c2.7,0,5.3-0.8,5.5-2.8C40.1,11.5,40.1,11.4,40.1,11.4L40.1,11.4
		L40.1,11.4z"/>
	<path class="st1" d="M51.3,14.2h2.6v1.9c0.9-1,2.1-1.6,3.6-1.8c0.2,0,0.6-0.1,1.4-0.2c0.7-0.1,1.3-0.2,1.7-0.4v2.5
		c0,0.4-0.2,0.6-0.6,0.8c-0.4,0.2-1.1,0.3-2.2,0.4c-0.8,0.1-1.5,0.3-2.2,0.6c-0.6,0.3-1.2,0.7-1.6,1.2v13c0,0.6-0.3,0.8-0.9,0.8
		h-2.5v-18C50.4,14.5,50.7,14.2,51.3,14.2C51.3,14.2,51.3,14.2,51.3,14.2z M64.7,31c-1.4-1.6-2-4.1-2-7.3c0-3.1,0.6-5.4,1.9-7.2
		c1.3-1.7,3.3-2.6,5.9-2.6c2.5,0,4.3,0.8,5.5,2.2c1.2,1.5,1.8,3.4,1.8,5.7v1.4c0,0.7-0.1,1.2-0.4,1.4c-0.3,0.3-0.8,0.4-1.4,0.4H66
		c0,1.8,0.5,3.1,1.4,4c0.9,0.9,2.1,1.3,3.8,1.3c1.1,0,2.1-0.1,3.1-0.4c1-0.3,1.9-0.6,2.8-1v2.1c0,0.5-0.2,0.9-0.8,1.2
		c-0.6,0.3-1.4,0.6-2.4,0.8c-1,0.2-2,0.3-3,0.3C68.1,33.4,66,32.6,64.7,31L64.7,31L64.7,31z M74.4,21.5c0-1.5-0.3-2.6-1.1-3.4
		c-0.7-0.8-1.7-1.2-3-1.2s-2.4,0.5-3.1,1.4s-1.1,2.2-1.1,3.9h8.3L74.4,21.5L74.4,21.5z M81.2,23.7c0-3.2,0.8-5.6,2.4-7.2
		c1.6-1.6,3.7-2.4,6.4-2.4c2,0,3.3-0.2,4-0.5v2.5c0,0.4-0.3,0.7-0.9,0.8c-0.6,0.2-1.6,0.3-2.8,0.3c-3.7,0-5.6,2.1-5.6,6.4
		c0,2.2,0.4,3.8,1.3,4.9c0.9,1.1,2.1,1.6,3.7,1.6c1.9,0,3.6-0.3,4.9-0.9v2.2c0,0.6-0.3,0.9-0.8,1.2c-0.4,0.2-1,0.4-1.8,0.5
		c-0.7,0.1-1.5,0.2-2.2,0.2C84,33.5,81.2,30.2,81.2,23.7L81.2,23.7z M98.7,14.2h2.6v1.9c0.9-1,2.1-1.6,3.6-1.8
		c0.2,0,0.6-0.1,1.4-0.2c0.7-0.1,1.3-0.2,1.7-0.4v2.5c0,0.4-0.2,0.6-0.6,0.8c-0.4,0.2-1.1,0.3-2.2,0.4c-0.8,0.1-1.5,0.3-2.2,0.6
		c-0.6,0.3-1.2,0.7-1.6,1.2v13c0,0.6-0.3,0.8-0.9,0.8h-2.5v-18C97.9,14.5,98.2,14.2,98.7,14.2L98.7,14.2L98.7,14.2z M112.3,31.9
		c-1.1-1-1.6-2.6-1.6-4.8V15c0-0.5,0.3-0.8,0.8-0.8h2.6v12.3c0,1.3,0.2,2.3,0.8,2.9s1.3,1,2.4,1c0.8,0,1.5-0.1,2.1-0.4
		c0.7-0.3,1.4-0.7,2.1-1.1V18.3c0-1.6,0.1-2.7,0.3-3.3c0.2-0.6,0.5-0.9,1-0.9h2.7c-0.4,0.8-0.6,2.2-0.6,4v14c0,0.6-0.3,0.9-0.9,0.9
		h-2.6v-1.2c-0.7,0.5-1.5,0.9-2.2,1.1c-0.8,0.3-1.6,0.4-2.4,0.4C114.9,33.4,113.4,32.9,112.3,31.9L112.3,31.9L112.3,31.9z
		 M130.8,7.6h2.9v2.8c0,0.6-0.3,0.8-0.8,0.8h-2.8V8.4C130.1,7.9,130.4,7.6,130.8,7.6L130.8,7.6z M131,14.2h2.6v18
		c0,0.6-0.3,0.9-0.8,0.9h-2.6v-18C130.2,14.5,130.5,14.2,131,14.2L131,14.2L131,14.2z M141.4,32.2c-0.8-0.8-1.3-2.2-1.3-4V17.2h-2.8
		v-2.2c0-0.6,0.3-0.9,0.9-0.9h1.9v-3.8c0-0.6,0.3-0.9,0.9-0.9h2.6v4.7h2.3c1.2,0,2.2-0.2,2.8-0.5v2.2c0,0.5-0.3,0.9-0.8,1.1
		c-0.5,0.2-1.3,0.3-2.2,0.3h-2.1v10.3c0,1,0.2,1.7,0.6,2.1c0.4,0.4,1,0.7,1.9,0.7c1,0,1.9-0.2,2.8-0.5v2.1c0,0.6-0.3,0.9-0.8,1.1
		c-0.7,0.3-1.7,0.4-2.9,0.4C143.5,33.4,142.3,33,141.4,32.2L141.4,32.2L141.4,32.2z"/>
</g>
</svg>
