<svg width="48" height="42" viewBox="0 0 48 42" fill="none" xmlns="http://www.w3.org/2000/svg">
    <path d="M28.975 41.023c-.36 0-.707-.17-.94-.479a1.326 1.326 0 0 1-.073-1.474l2.402-3.986c-1.482-1.169-4.01-3.648-4.01-6.966 0-.7.538-1.27 1.2-1.27.662 0 1.201.57 1.201 1.27 0 3.085 3.808 5.478 3.846 5.5.285.174.49.46.57.798.078.338.023.694-.155.988l-1.153 1.916 5.61-2.105s1.063-.429 1.245-.505c3.818-1.633 4.895-3.376 5.444-4.864 1.555-4.48-.641-9.493-4.899-11.145-1.88-.73-4.298-.708-6.158.058-.617.254-1.314-.069-1.554-.722-.24-.654.065-1.39.683-1.645 2.408-.99 5.417-1.02 7.853-.076 2.665 1.035 4.789 3.104 5.983 5.83a11.766 11.766 0 0 1 .333 8.6c-1.04 2.814-3.133 4.756-6.793 6.32-.192.084-1.314.534-1.314.534l-8.923 3.35c-.13.051-.268.073-.402.073h.004z" fill="#111"/>
    <path d="m35.078 28.525-.852 2.817h-1.708l3.416-10.708h1.52l3.416 10.708h-1.708l-.856-2.817h-3.228zm2.738-1.623-1.124-3.743-1.124 3.743h2.252-.004zM20.782 37.116c-.228 0-.452-.066-.646-.2-.283-.193-6.956-4.746-7.81-5.41l-.085-.066c-1.7-1.321-2.402-1.868-4.191-4.003a14.436 14.436 0 0 1-3.345-9.145C4.653 10.414 10.946 3.96 18.73 3.907h.096c7.733 0 14.066 6.367 14.115 14.195 0 9.345-7.75 12.374-10.336 13.124l-.682 4.883a1.17 1.17 0 0 1-.672.904c-.152.067-.31.1-.468.1v.003zM18.825 6.242h-.08c-6.514.043-11.776 5.443-11.733 12.037a12.057 12.057 0 0 0 2.8 7.65c1.632 1.945 2.185 2.379 3.84 3.663l.085.067c.524.407 3.855 2.698 6.165 4.279l.534-3.812c.069-.497.448-.894.936-.984.375-.07 9.268-1.848 9.268-11.03-.042-6.54-5.34-11.867-11.809-11.867l-.006-.003z" fill="#111"/>
    <path d="m24.47 24.72-1.315 1.652-1.783-1.884c-.9.605-1.968.92-3.097.92-3.378 0-6.04-2.801-6.04-7.82 0-5.02 2.662-7.82 6.04-7.82s6.04 2.8 6.04 7.82c0 2.28-.544 4.098-1.464 5.418l1.615 1.714h.004zm-5.853-3.139 1.332-1.674 1.33 1.424c.545-.942.826-2.196.826-3.743 0-3.45-1.445-5.563-3.83-5.563s-3.826 2.113-3.826 5.563c0 3.45 1.444 5.563 3.826 5.563.565 0 1.05-.106 1.503-.334l-1.164-1.236h.003z" fill="#111"/>
</svg>
