<svg width="120" height="40" viewBox="0 0 120 40" fill="none" xmlns="http://www.w3.org/2000/svg">
    <path d="m23.236 22.071 5.508-6.759h-3.006c-1.346 0-2.268.411-3.092 1.367l-2.901 3.554V10.46h-2.908c-.682 0-1.235.557-1.235 1.237v18.23h2.907a1.24 1.24 0 0 0 1.242-1.238v-4.847l2.354 2.886 2.004 2.463c.4.503.94.742 1.488.742h4.063l-2.625-3.211-3.792-4.65h-.007zm12.731 4.424a1.118 1.118 0 0 1-1.112-1.109v-14.92H31.94a1.24 1.24 0 0 0-1.242 1.237v14.455c0 2.23 1.55 3.775 3.787 3.775h3.203a1.24 1.24 0 0 0 1.241-1.238v-2.2h-2.969.006z" fill="#fff"/>
    <path d="M20.145 19.736h.006-.006zm19.388-2.75V14.24l-.258.27c-.013 0-.787.796-3.025.796H25.665c-1.672 0-2.46.68-3.055 1.41l-.326.404s-.025.018-.031.03l-2.102 2.574c.762-.57 1.807-.919 2.877-.919H36.25c1.605 0 3.142-.465 3.27-1.666.019-.099.013-.16.013-.16v.006z" fill="#E60012"/>
    <path d="M46.197 18.603h1.536v1.127c.541-.582 1.248-.931 2.127-1.06.11-.012.381-.049.812-.104.424-.055.756-.135 1.002-.233v1.49c0 .214-.123.36-.375.453-.246.092-.676.171-1.291.245a3.809 3.809 0 0 0-1.31.337 2.896 2.896 0 0 0-.97.723v7.665c0 .325-.18.49-.536.49H45.68v-10.6c0-.355.172-.533.51-.533h.007zM54.182 28.486c-.812-.968-1.211-2.408-1.211-4.32 0-1.795.387-3.204 1.162-4.215.774-1.011 1.954-1.52 3.546-1.52 1.476 0 2.564.441 3.258 1.318.695.876 1.046 1.997 1.046 3.352v.808c0 .399-.086.68-.265.852-.178.172-.46.257-.842.257h-5.877c.013 1.06.283 1.85.812 2.366.522.514 1.278.772 2.256.772.64 0 1.266-.074 1.875-.221a7.926 7.926 0 0 0 1.641-.582v1.25c0 .312-.148.545-.449.698-.338.184-.811.338-1.414.454a9.024 9.024 0 0 1-1.8.178c-1.679 0-2.92-.485-3.726-1.453l-.012.006zm5.815-5.57c0-.876-.209-1.544-.627-2.003-.418-.46-1.014-.692-1.777-.692-.762 0-1.42.275-1.875.827-.454.551-.682 1.311-.682 2.273h4.961v-.404zM64.042 24.228c0-1.869.473-3.272 1.426-4.216.953-.943 2.225-1.41 3.836-1.41 1.205 0 1.992-.091 2.36-.275v1.49c0 .226-.184.391-.553.49-.369.097-.928.146-1.684.146-2.213 0-3.32 1.263-3.32 3.781 0 1.287.258 2.255.775 2.898.516.644 1.248.968 2.182.968 1.162 0 2.14-.183 2.92-.551v1.317c0 .325-.154.552-.467.68-.24.13-.603.227-1.076.3a8.715 8.715 0 0 1-1.334.105c-3.38 0-5.071-1.906-5.071-5.71l.006-.013zM74.498 18.603h1.537v1.127c.541-.582 1.248-.931 2.127-1.06.11-.012.381-.049.811-.104.425-.055.757-.135 1.002-.233v1.49c0 .214-.122.36-.374.453-.246.092-.677.171-1.291.245a3.81 3.81 0 0 0-1.31.337 2.895 2.895 0 0 0-.971.723v7.665c0 .325-.178.49-.535.49h-1.512v-10.6c0-.355.172-.533.51-.533h.006zM82.582 29.05c-.645-.594-.971-1.538-.971-2.825v-7.15c0-.313.153-.466.467-.466h1.574v7.218c0 .778.147 1.354.448 1.728.302.374.775.564 1.427.564.454 0 .879-.074 1.278-.22.4-.148.812-.362 1.236-.65v-6.201c0-.932.055-1.575.16-1.924.104-.35.307-.521.608-.521h1.617c-.228.496-.338 1.28-.338 2.359v8.235c0 .356-.172.533-.51.533h-1.531v-.68a6.31 6.31 0 0 1-1.322.656 4.322 4.322 0 0 1-1.426.233c-1.162 0-2.071-.3-2.717-.895v.006zM93.647 14.743h1.727v1.636c0 .324-.153.49-.467.49h-1.684v-1.636c0-.325.141-.49.424-.49zm.104 3.866h1.556v10.594c0 .356-.166.534-.492.534H93.26V19.136c0-.355.165-.533.491-.533v.006zM99.96 29.216c-.504-.484-.756-1.275-.756-2.378v-6.434h-1.66V19.13c0-.355.179-.533.535-.533h1.131V16.39c0-.355.172-.533.51-.533h1.531v2.739h1.383c.738 0 1.297-.092 1.685-.276v1.275c0 .3-.16.508-.48.625-.319.122-.756.177-1.309.177h-1.279v6.048c0 .582.111.999.332 1.262.221.264.603.393 1.137.393.597 0 1.156-.098 1.685-.3v1.23c0 .326-.166.54-.492.638-.443.172-1.02.258-1.746.258-.965 0-1.703-.24-2.2-.724l-.007.013z" fill="#fff"/>
</svg>
