<svg width="70" height="70" viewBox="0 0 70 70" fill="none" xmlns="http://www.w3.org/2000/svg">
    <path d="M35.004 38.083 20.913 23.826c-3.575-3.617-3.575-9.493 0-13.11A9.043 9.043 0 0 1 27.393 8c2.453 0 4.749.965 6.479 2.716l1.132 1.145 1.132-1.146a9.094 9.094 0 0 1 12.96 0c3.574 3.618 3.574 9.494 0 13.111L35.003 38.083zm-7.612-27.42a6.503 6.503 0 0 0-4.623 1.93c-2.548 2.578-2.548 6.778 0 9.356l12.235 12.379 12.235-12.38c2.548-2.577 2.548-6.777 0-9.355a6.496 6.496 0 0 0-9.247 0l-2.988 3.023-2.988-3.023a6.46 6.46 0 0 0-4.624-1.93zM56.487 62.99l-2.191-1.464 10.893-16.697-4.833-19.73c-1.373.457-3.48 1.698-3.355 4.975.126 3.087 2.485 12.74 2.506 12.835l-2.548.637c-.105-.403-2.443-10.024-2.58-13.366-.23-5.728 4.352-7.722 6.805-7.976l1.133-.117 5.682 23.23L56.477 62.98l.01.01z" fill="#000"/>
    <path d="M45.018 60.157 42.48 59.5l2.873-11.245 6.186-7.552a4.565 4.565 0 0 1 3.334-1.665 4.536 4.536 0 0 1 3.45 1.41 4.646 4.646 0 0 1 .23 6.132l-5.273 6.48-2.024-1.686 5.274-6.481a1.977 1.977 0 0 0-.095-2.599 1.895 1.895 0 0 0-1.468-.594 1.907 1.907 0 0 0-1.415.71l-5.808 7.097-2.726 10.671v-.02zM13.522 62.99 2 45.328l5.683-23.23 1.132.116c2.453.255 7.035 2.25 6.804 7.977-.136 3.352-2.485 12.963-2.579 13.366l-2.548-.637c.021-.095 2.38-9.759 2.506-12.846.136-3.267-1.992-4.508-3.355-4.974L4.82 44.84l10.894 16.696L13.522 63v-.01z" fill="#000"/>
    <path d="m25.003 60.157-2.726-10.67-5.808-7.097a1.917 1.917 0 0 0-2.883-.117 1.965 1.965 0 0 0-.095 2.599l5.274 6.481-2.024 1.687-5.273-6.481a4.658 4.658 0 0 1 .23-6.132 4.566 4.566 0 0 1 3.45-1.41 4.548 4.548 0 0 1 3.334 1.665l6.186 7.553 2.872 11.243-2.537.658v.021z" fill="#000"/>
</svg>
