<svg width="70" height="70" viewBox="0 0 70 70" fill="none" xmlns="http://www.w3.org/2000/svg">
    <path d="M23.29 61.08h-9.97l-1.2-19.28L9 38.03V27.71c0-5.13 4.18-9.31 9.31-9.31 2.8 0 5.43 1.25 7.21 3.42l.79.97-1.93 1.58-.79-.97a6.78 6.78 0 0 0-5.27-2.5c-3.75 0-6.81 3.05-6.81 6.81v9.42l3.07 3.71 1.11 17.75h5.27L22.12 40l2.5.16-1.3 20.93-.03-.01z" fill="#111"/>
    <path d="M18.31 20.9c-3.28 0-5.95-2.67-5.95-5.95 0-3.28 2.67-5.95 5.95-5.95 3.28 0 5.95 2.67 5.95 5.95 0 3.28-2.67 5.95-5.95 5.95zm0-9.4c-1.9 0-3.45 1.55-3.45 3.45 0 1.9 1.55 3.45 3.45 3.45 1.9 0 3.45-1.55 3.45-3.45 0-1.9-1.55-3.45-3.45-3.45zM56.76 61.08h-9.97l-1.3-20.93 2.5-.16 1.16 18.59h5.27l1.11-17.75 3.07-3.71V27.7c0-3.75-3.05-6.81-6.81-6.81-2.05 0-3.97.91-5.27 2.5l-.79.97-1.93-1.58.79-.97a9.287 9.287 0 0 1 7.21-3.42c5.13 0 9.31 4.18 9.31 9.31v10.32l-3.12 3.77-1.2 19.28-.03.01z" fill="#111"/>
    <path d="M51.77 20.9c-3.28 0-5.95-2.67-5.95-5.95 0-3.28 2.67-5.95 5.95-5.95 3.28 0 5.95 2.67 5.95 5.95 0 3.28-2.67 5.95-5.95 5.95zm0-9.4c-1.9 0-3.45 1.55-3.45 3.45 0 1.9 1.55 3.45 3.45 3.45 1.9 0 3.45-1.55 3.45-3.45 0-1.9-1.55-3.45-3.45-3.45zM35.04 36.98 23.59 23.42l1.91-1.62 9.54 11.3 9.54-11.3 1.91 1.62-11.45 13.56z" fill="#111"/>
</svg>
