<svg width="70" height="70" viewBox="0 0 70 70" fill="none" xmlns="http://www.w3.org/2000/svg">
    <path d="M49.152 22.132 38.316 32.363 14.163 20.101l-1.585-.794a3.906 3.906 0 0 1-.841-.586c-1.379-1.301-1.462-3.475 0-4.855.923-.872 2.288-1.21 3.556-.872l4.977 1.354 28.882 7.797v-.013z" fill="#fff" stroke="#111" stroke-width="2.5" stroke-linecap="round" stroke-linejoin="round"/>
    <path d="M52.157 56.666 38.315 32.362l10.836-10.231 9.678 31.982c.358 1.198 0 2.486-.924 3.358-1.723 1.628-4.604 1.224-5.748-.794v-.012z" fill="#fff" stroke="#111" stroke-width="2.5" stroke-linecap="round" stroke-linejoin="round"/>
    <path d="M27.617 54.01c-.22-3.384 1.724-6.626 4.991-8.031 4.715-2.044 10.45-5.936 15.923-11.117 10.395-9.815 15.95-20.488 12.394-23.847-3.557-3.358-14.862 1.888-25.256 11.703-5.473 5.167-9.61 10.582-11.774 15.034-1.502 3.085-4.921 4.92-8.506 4.712l-5.376-.325L8 44.039l11.539 6.066L25.963 61l2.013-1.9-.345-5.077-.014-.013zM20.27 14.335 14.163 20.1l-1.585-.794a3.906 3.906 0 0 1-.841-.586c-1.379-1.301-1.462-3.475 0-4.855.923-.872 2.288-1.21 3.556-.872l4.977 1.354v-.013zM57.41 49.402l-6.108 5.767.841 1.497c.18.3.386.573.62.794 1.38 1.301 3.681 1.38 5.143 0 .923-.872 1.282-2.161.923-3.359l-1.433-4.699h.014z" fill="#fff" stroke="#111" stroke-width="2.5" stroke-linecap="round" stroke-linejoin="round"/>
</svg>
