<svg width="70" height="70" viewBox="0 0 70 70" fill="none" xmlns="http://www.w3.org/2000/svg">
    <path d="m9 54.852 14.066-9.928V10L9 19.928v34.924z" stroke="#0A0C06" stroke-width="2.4" stroke-linecap="round" stroke-linejoin="round"/>
    <path d="m37.153 54.852-14.087-9.928V10l14.087 9.928v34.924zM51.219 24.505V10l-14.066 9.928v34.924l4.786-3.365" stroke="#0A0C06" stroke-width="2.4" stroke-linecap="round" stroke-linejoin="round"/>
    <path d="M51.219 28.476c5.392 0 9.781 4.389 9.781 9.78 0 7.253-6.855 16.533-9.781 22.615-2.926-6.082-9.782-15.383-9.782-22.614 0-5.392 4.369-9.781 9.782-9.781v0zm0 5.914a3.871 3.871 0 0 1 3.866 3.867 3.871 3.871 0 0 1-3.866 3.866 3.871 3.871 0 0 1-3.867-3.866 3.871 3.871 0 0 1 3.867-3.867z" stroke="#0A0C06" stroke-width="2.4" stroke-linecap="round" stroke-linejoin="round"/>
</svg>
