<svg width="70" height="70" viewBox="0 0 70 70" fill="none" xmlns="http://www.w3.org/2000/svg">
    <path d="M39.21 47.757V61H9V9h30.21v6.732M9 54.026h30.21M9 12.943h30.21m-17.257 44.66h4.263m8.364-39.04h18.093c4.06 0 7.404 3.296 7.404 7.339v6.793c0 4.023-3.325 7.34-7.404 7.34h-5.018l-12.647 5.56 2.61-5.56H34.56c-4.06 0-7.404-3.296-7.404-7.34v-6.793c0-4.023 3.325-7.339 7.404-7.339h.02z" stroke="#111" stroke-width="2.5" stroke-linecap="round" stroke-linejoin="round"/>
    <path d="M43.575 34.736c-1.142 0-2.305-.384-3.182-1.111a.821.821 0 0 1-.102-1.153.84.84 0 0 1 1.163-.101c.897.728 2.285.95 3.243.505.551-.262.837-.687.837-1.253 0-.91-.653-1.274-2.142-1.92-1.367-.587-3.08-1.315-3.06-3.316-.04-1.072.673-2.063 1.836-2.548a3.954 3.954 0 0 1 4.365.87c.326.323.326.849 0 1.152-.326.323-.857.323-1.163 0a2.273 2.273 0 0 0-2.529-.506c-.408.182-.857.546-.836 1.032 0 .849.632 1.213 2.06 1.82 1.407.606 3.141 1.354 3.141 3.416 0 1.213-.653 2.204-1.774 2.73-.551.262-1.184.383-1.816.383h-.04z" fill="#010101"/>
    <path d="M43.637 36.799a.815.815 0 0 1-.816-.809v-2.062c0-.445.367-.809.816-.809.449 0 .816.364.816.809v2.062a.815.815 0 0 1-.816.809zM43.637 25.174a.815.815 0 0 1-.816-.809v-2.062c0-.445.367-.809.816-.809.449 0 .816.364.816.809v2.062a.815.815 0 0 1-.816.809z" fill="#010101"/>
</svg>
