<svg width="71" height="70" viewBox="0 0 71 70" fill="none" xmlns="http://www.w3.org/2000/svg">
    <path d="M48.364 10.313 60.29 22.295a1.955 1.955 0 0 1 0 2.763l-4.114 4.133a1.932 1.932 0 0 1-2.75 0L41.5 17.21a1.955 1.955 0 0 1 0-2.763l4.114-4.133a1.932 1.932 0 0 1 2.75 0v0zm-6.656 7.082 12.272 12.33c2.242 2.252 2.242 5.968 0 8.22L29.992 62.047c-2.242 2.252-5.94 2.252-8.181 0L9.539 49.717c-2.242-2.252-2.242-5.967 0-8.22l23.965-24.102c2.242-2.252 5.94-2.252 8.181 0h.023z" stroke="#111" stroke-width="2.5" stroke-linecap="round" stroke-linejoin="round"/>
    <path d="m34.29 21.807 4.183 4.203m21.192-4.342c1.479-1.486 1.225-4.226-.393-6.78.809-.86 1.456-1.742 1.895-2.578a3.088 3.088 0 0 0 2.519-.906 3.192 3.192 0 0 0 0-4.481c-1.225-1.23-3.212-1.23-4.46 0a3.12 3.12 0 0 0-.901 2.531c-.833.441-1.71 1.091-2.543 1.904-2.542-1.649-5.315-1.904-6.794-.418l10.677 10.728v0zM29.09 27.032l2.08 2.113M23.89 32.28l4.16 4.179M18.668 37.504l2.102 2.09M13.468 42.728l4.183 4.203" stroke="#111" stroke-width="2.5" stroke-linecap="round" stroke-linejoin="round"/>
</svg>
