<svg width="70" height="70" viewBox="0 0 70 70" fill="none" xmlns="http://www.w3.org/2000/svg">
    <path d="M17.347 10h9.511v20.97C19.203 30.97 13 25.219 13 18.12v-4.09c0-2.225 1.946-4.03 4.347-4.03v0zM44.142 30.97V10h9.511c2.4 0 4.347 1.805 4.347 4.03v4.09c0 7.087-6.203 12.85-13.858 12.85z" stroke="#111" stroke-width="2.5" stroke-linecap="round" stroke-linejoin="round"/>
    <path d="M47.1 30.031 50.124 10h-29.26l3.023 20.031c.57 3.814 3.244 6.93 6.825 8.41a3.072 3.072 0 0 1 1.907 2.839 3.08 3.08 0 0 1-1.933 2.851c-2.037.843-3.776 2.202-5.009 3.898H45.31c-1.233-1.696-2.972-3.056-5.009-3.898a3.1 3.1 0 0 1-1.933-2.851c0-1.203.713-2.346 1.907-2.84 3.595-1.491 6.255-4.595 6.825-8.409zM47.749 48.03H23.237V60H47.75V48.03z" fill="#fff" stroke="#111" stroke-width="2.5" stroke-linecap="round" stroke-linejoin="round"/>
    <path d="M30.44 54.021h10.108" stroke="#111" stroke-width="2.5" stroke-linecap="round" stroke-linejoin="round"/>
</svg>
