<svg width="70" height="70" viewBox="0 0 70 70" fill="none" xmlns="http://www.w3.org/2000/svg">
    <path d="M49.027 65H21.718l-3.53-35.592h34.369L49.027 65zm-24.83-2.613h22.352l3.011-30.366H21.183l3.01 30.366h.003zM52.346 24.788H49.62c0-5.865-6.391-10.638-14.25-10.638s-14.25 4.773-14.25 10.638h-2.724c0-7.305 7.614-13.25 16.974-13.25s16.975 5.943 16.975 13.25z" fill="#111"/>
    <path d="M57 32.02H14l1.582-8.412h39.836L57 32.02zm-39.74-2.612h36.48l-.6-3.187H17.86l-.6 3.187zM30.253 51.81l-5.897-5.273 1.858-1.911 3.906 3.49 3.454-3.55-3.902-3.492 1.858-1.909 5.896 5.273-7.173 7.372zM40.02 60.796l-7.689-6.877 5.5-5.651 1.99 1.781-3.64 3.742 3.704 3.312 3.64-3.742 1.994 1.782-5.499 5.653zM34.912 33.709l-.392 5.296 2.72.184.39-5.296-2.718-.184zM38.496 22.191l-2.718-.209L37.125 6h9.538v2.613H39.64l-1.144 13.578z" fill="#111"/>
</svg>
