<svg width="70" height="70" viewBox="0 0 70 70" fill="none" xmlns="http://www.w3.org/2000/svg">
    <path d="M39.685 56.454c12.02 0 21.764-9.727 21.764-21.727S51.705 13 39.684 13s-21.764 9.728-21.764 21.727c0 12 9.744 21.727 21.764 21.727z" fill="#fff" stroke="#111" stroke-width="2.5" stroke-linecap="round" stroke-linejoin="round"/>
    <path d="M30.764 56.454c12.02 0 21.763-9.727 21.763-21.727S42.783 13 30.764 13C18.744 13 9 22.728 9 34.727c0 12 9.744 21.727 21.764 21.727z" fill="#fff" stroke="#111" stroke-width="2.5" stroke-linecap="round" stroke-linejoin="round"/>
    <path d="M24.982 42.598h7.998a3.931 3.931 0 0 0 3.934-3.928 3.931 3.931 0 0 0-3.934-3.929h-4.078a3.931 3.931 0 0 1-3.935-3.928 3.931 3.931 0 0 1 3.935-3.929H36.9M30.948 22.573V46.64" stroke="#111" stroke-width="2.5" stroke-linecap="round" stroke-linejoin="round"/>
</svg>
