<svg width="70" height="70" viewBox="0 0 70 70" fill="none" xmlns="http://www.w3.org/2000/svg">
    <path d="M65 36.911v10.122H5V36.925c0-3.863 3.09-7.006 6.918-7.006h3.538L19.967 17h30.066l4.511 12.919h3.538c.21 0 .434.013.644.04 3.525.32 6.26 3.316 6.274 6.952v0z" fill="#fff" stroke="#111" stroke-width="2.5" stroke-linecap="round" stroke-linejoin="round"/>
    <path d="M18.613 53c3.254 0 5.892-2.672 5.892-5.967 0-3.295-2.638-5.967-5.892-5.967-3.254 0-5.892 2.672-5.892 5.967 0 3.295 2.638 5.967 5.892 5.967zM51.388 53c3.254 0 5.892-2.672 5.892-5.967 0-3.295-2.638-5.967-5.892-5.967-3.254 0-5.892 2.672-5.892 5.967 0 3.295 2.638 5.967 5.892 5.967zM25.228 22.847 22.939 29.4H35v-6.553h-9.772zM44.772 22.847H35V29.4h12.06l-2.288-6.553z" fill="#fff" stroke="#111" stroke-width="2.5" stroke-linecap="round" stroke-linejoin="round"/>
</svg>
