<svg width="70" height="70" viewBox="0 0 70 70" fill="none" xmlns="http://www.w3.org/2000/svg">
    <path d="M44.191 22.216H25.81L15.508 11h38.985L44.191 22.216zM58.985 45.844C58.985 57.805 48.238 59 34.992 59 21.747 59 11 57.805 11 45.844c0-11.962 10.762-21.662 24.008-21.662 13.245 0 23.992 9.7 23.992 21.662h-.015z" fill="#fff" stroke="#111" stroke-width="2.5" stroke-linecap="round" stroke-linejoin="round"/>
    <path d="M45.555 21.266H24.429c-1.922 0-3.48 1.305-3.48 2.916v.797c0 1.61 1.558 2.916 3.48 2.916h21.126c1.922 0 3.48-1.306 3.48-2.916v-.797c0-1.61-1.558-2.916-3.48-2.916z" fill="#fff" stroke="#111" stroke-width="2.5" stroke-linecap="round" stroke-linejoin="round"/>
    <path d="M29.611 49.48h7.22c1.963 0 3.557-1.336 3.557-2.98 0-1.645-1.594-2.981-3.556-2.981h-3.68c-1.962 0-3.556-1.337-3.556-2.981 0-1.645 1.594-2.98 3.556-2.98h7.221" fill="#fff"/>
    <path d="M29.611 49.48h7.22c1.963 0 3.557-1.336 3.557-2.98 0-1.645-1.594-2.981-3.556-2.981h-3.68c-1.962 0-3.556-1.337-3.556-2.981 0-1.645 1.594-2.98 3.556-2.98h7.221M35.008 34.294v18.244" stroke="#111" stroke-width="2.5" stroke-linecap="round" stroke-linejoin="round"/>
</svg>
