<svg width="70" height="70" viewBox="0 0 70 70" fill="none" xmlns="http://www.w3.org/2000/svg">
    <path d="M30.947 56.955h-3.993a1.14 1.14 0 0 1-1.134-1.146c0-.635.51-1.134 1.134-1.134h1.826c5.32.022 13.35.068 15.505-2.077.33-.329.477-.67.477-1.1 0-.431-.148-.75-.477-1.056-2.245-2.19-10.39-1.985-14.767-1.872-.896.023-1.68.046-2.314.046-1.77 0-2.972-.579-4.152-1.135-1.372-.658-2.778-1.328-5.49-1.328-3.277 0-6.918 1.203-10.809 3.586a1.125 1.125 0 0 1-1.553-.374 1.126 1.126 0 0 1 .374-1.555c4.253-2.598 8.291-3.915 12-3.915 3.221 0 5.025.863 6.477 1.555 1.066.51 1.916.919 3.164.919.613 0 1.372-.023 2.246-.045 6.828-.17 13.713-.114 16.412 2.519.76.737 1.157 1.667 1.157 2.677s-.385 1.952-1.145 2.712c-2.53 2.519-8.847 2.757-14.95 2.757l.012-.034z" fill="#000"/>
    <path d="M38.297 65c-3.8 0-7.985-.92-12.034-1.804-7.725-1.69-15.018-3.28-19.328 1.066a1.13 1.13 0 0 1-1.599 0 1.134 1.134 0 0 1 0-1.61c5.184-5.243 13.44-3.439 21.426-1.691 3.936.862 7.996 1.747 11.546 1.747 6.613 0 22.061-13.956 24.228-17.19-1.112-.647-4.674-.771-15.88 6.82l-.102.067a1.133 1.133 0 0 1-1.576-.306 1.134 1.134 0 0 1 .306-1.577l.102-.068c6.873-4.652 16.356-10.325 19.395-5.878.046.068.08.125.114.205.283.68-.057 1.327-.42 1.883-2.382 3.586-18.454 18.313-26.167 18.313l-.011.023zM34.996 36.77c-8.756 0-15.88-7.126-15.88-15.885C19.117 12.125 26.24 5 34.997 5s15.88 7.126 15.88 15.885c0 8.76-7.124 15.885-15.88 15.885zm0-29.5c-7.509 0-13.61 6.104-13.61 13.615s6.101 13.616 13.61 13.616c7.509 0 13.61-6.105 13.61-13.616 0-7.511-6.113-13.616-13.61-13.616z" fill="#000"/>
    <path d="M34.917 28.646c-1.554 0-3.176-.533-4.379-1.543a1.145 1.145 0 0 1-.147-1.6 1.144 1.144 0 0 1 1.6-.147c1.224 1.021 3.141 1.327 4.457.703.76-.352 1.145-.942 1.145-1.747 0-1.248-.896-1.77-2.949-2.655-1.882-.817-4.23-1.827-4.207-4.596-.046-1.486.93-2.859 2.529-3.54a5.412 5.412 0 0 1 6 1.203 1.14 1.14 0 0 1 0 1.6 1.14 1.14 0 0 1-1.6 0c-1.122-1.146-2.585-1.09-3.493-.704-.578.25-1.18.75-1.157 1.43 0 1.192.862 1.68 2.836 2.53 1.928.829 4.321 1.873 4.321 4.743 0 1.68-.896 3.064-2.45 3.801-.76.352-1.61.522-2.495.522h-.011z" fill="#000"/>
    <path d="M34.996 31.528c-.624 0-1.134-.51-1.134-1.134v-2.871c0-.624.51-1.135 1.134-1.135.624 0 1.134.51 1.134 1.135v2.87c0 .624-.51 1.135-1.134 1.135zM34.996 15.37c-.624 0-1.134-.51-1.134-1.134v-2.848c0-.624.51-1.135 1.134-1.135.624 0 1.134.511 1.134 1.135v2.848c0 .624-.51 1.135-1.134 1.135z" fill="#000"/>
</svg>
