<svg width="70" height="70" viewBox="0 0 70 70" fill="none" xmlns="http://www.w3.org/2000/svg">
    <path d="M48.846 53.139c0-1.777-.022-3.554-.044-5.33 3.74 2.51 7.458 4.997 11.198 7.506-3.696 2.555-7.392 5.13-11.065 7.685 0-1.71-.022-3.42-.044-5.153-10.601-.866-19.874 1.977-29.036-4.997-10.954-8.328-13.101-23.986-4.802-34.98 8.299-10.972 23.923-13.126 34.855-4.798 10.358 7.885 12.836 22.3 6.042 33.137M35 11v3M57 33h-3M35 55v-3M13 33h3M36.933 30.664 27.92 42M23 23l14 11.815" stroke="#111" stroke-width="2.5" stroke-linecap="round" stroke-linejoin="round"/>
</svg>
