<svg width="70" height="70" viewBox="0 0 70 70" fill="none" xmlns="http://www.w3.org/2000/svg">
    <path d="M35.353 59.683c4.746 0 8.595-11.063 8.595-24.71 0-13.646-3.849-24.709-8.595-24.709-4.747 0-8.595 11.063-8.595 24.71 0 13.646 3.848 24.709 8.595 24.709z" fill="#fff" stroke="#111" stroke-width="2.5" stroke-linecap="round" stroke-linejoin="round"/>
    <path d="M38.462 31.885a3.11 3.11 0 1 0-6.219 0v6.167a3.11 3.11 0 1 0 6.219 0v-6.167z" fill="#fff" stroke="#111" stroke-width="2.5" stroke-linecap="round" stroke-linejoin="round"/>
    <path d="m20.55 49.453 28.904-28.908" stroke="#111" stroke-width="2.5" stroke-linecap="round" stroke-linejoin="round"/>
    <path d="m53.53 12.155-4.079 4.079a3.047 3.047 0 0 0 0 4.309l.007.007a3.046 3.046 0 0 0 4.309 0l4.078-4.08a3.047 3.047 0 0 0 0-4.308l-.007-.008a3.046 3.046 0 0 0-4.308 0zM16.233 49.45l-4.079 4.08a3.047 3.047 0 0 0 0 4.308l.008.007a3.046 3.046 0 0 0 4.308 0l4.079-4.079a3.047 3.047 0 0 0 0-4.309l-.008-.007a3.046 3.046 0 0 0-4.308 0z" fill="#fff" stroke="#111" stroke-width="2.5" stroke-linecap="round" stroke-linejoin="round"/>
</svg>
