<svg width="27" height="26" viewBox="0 0 27 26" fill="none" xmlns="http://www.w3.org/2000/svg">
    <path d="m12.799 18.836 5.771 4.57-2.768 2.403-5.684-4.57 2.68-2.403zm5.918-7.998v1.01c0 1.622-.22 3.077-.66 4.366-.43 1.289-1.05 2.388-1.86 3.296a8.241 8.241 0 0 1-2.87 2.065c-1.104.479-2.33.718-3.678.718-1.337 0-2.563-.24-3.676-.718a8.206 8.206 0 0 1-2.886-2.065c-.81-.908-1.44-2.007-1.89-3.296-.44-1.29-.659-2.744-.659-4.365v-1.011c0-1.631.22-3.086.66-4.365.448-1.29 1.073-2.388 1.874-3.296a7.986 7.986 0 0 1 2.871-2.08C7.057.618 8.283.379 9.62.379c1.348 0 2.573.24 3.677.718a8.123 8.123 0 0 1 2.886 2.08c.81.908 1.435 2.007 1.875 3.296.44 1.279.659 2.734.659 4.365zm-4.439 1.01v-1.04c0-1.132-.107-2.128-.322-2.988-.205-.86-.508-1.582-.908-2.168-.39-.586-.874-1.025-1.45-1.318-.577-.303-1.236-.454-1.978-.454s-1.401.151-1.977.454c-.577.293-1.06.732-1.45 1.318-.391.586-.69 1.309-.894 2.168-.205.86-.308 1.856-.308 2.989v1.04c0 1.123.103 2.119.308 2.988.205.86.503 1.587.893 2.183.4.585.89 1.03 1.465 1.332.586.303 1.25.455 1.992.455.743 0 1.397-.152 1.963-.454a3.931 3.931 0 0 0 1.45-1.334c.4-.595.704-1.323.909-2.182.205-.87.307-1.865.307-2.988zm7.559 8.116c0-.625.215-1.148.644-1.567.44-.42 1.021-.63 1.744-.63.722 0 1.298.21 1.728.63.44.42.66.942.66 1.567s-.22 1.147-.66 1.567c-.43.42-1.006.63-1.728.63-.723 0-1.304-.21-1.744-.63-.43-.42-.644-.942-.644-1.567z" fill="#000"/>
</svg>
