<svg width="38" height="38" viewBox="0 0 38 38" fill="none" xmlns="http://www.w3.org/2000/svg">
    <circle cx="19" cy="19" r="18.5" fill="#fff" stroke="#D9D9D9"/>
    <path d="M24.733 17.864a.75.75 0 1 0 1.06 1.06l-1.06-1.06zm-8.243 2.515a.75.75 0 0 0 1.06-1.06l-1.06 1.06zm9.303-1.455.808-.808-1.06-1.06-.808.808 1.06 1.06zm-5.91-7.525-3.393 3.394 1.06 1.06 3.395-3.394-1.061-1.06zm-3.393 3.394a3.95 3.95 0 0 0 0 5.586l1.06-1.06a2.45 2.45 0 0 1 0-3.465l-1.06-1.061zM26.6 11.399a4.75 4.75 0 0 0-6.717 0l1.06 1.06a3.25 3.25 0 0 1 4.597 0l1.06-1.06zm0 6.717a4.75 4.75 0 0 0 0-6.717l-1.06 1.06a3.25 3.25 0 0 1 0 4.596l1.06 1.061z" fill="#000"/>
    <path d="m12.737 19.606-.808.808a4 4 0 0 0 0 5.657v0a4 4 0 0 0 5.657 0l3.394-3.394a3.2 3.2 0 0 0 0-4.525v0" stroke="#000" stroke-width="1.5" stroke-linecap="round"/>
</svg>
