<svg width="69" height="16" viewBox="0 0 69 16" fill="none" xmlns="http://www.w3.org/2000/svg">
    <g clip-path="url(#md81vkdxta)">
        <path d="M9.103 13.21 6.085 9.435l4.385-5.492H8.076c-1.07 0-1.806.332-2.458 1.11l-2.31 2.89V0H.985A.997.997 0 0 0 0 1.009v14.81h2.317a.993.993 0 0 0 .984-1.008v-3.943l1.878 2.343 1.593 1.996c.326.411.744.598 1.184.598h3.23l-2.09-2.609.007.015z" fill="url(#6w8me6vogb)"/>
        <path d="M10.378 15.322c-.191-.208-.935-1.21-1.863-2.327C7.282 11.51 6.02 9.816 5.702 9.44c.49-.605 3.627-4.54 4.003-5.009l.163-.201h-1.92c-.758 0-1.594.389-2.083.973L3.11 8.656s-.015.021-.043.021c-.028 0-.05-.021-.05-.057V.295H.991a.71.71 0 0 0-.701.714v14.523h2.026a.703.703 0 0 0 .694-.714v-4.692s.022-.058.05-.058c.021 0 .035.015.042.015l2.324 2.912 1.622 2.025c.277.317.638.504.97.504h2.544l-.184-.201z" fill="url(#8fsuzmk8zc)"/>
        <path d="M15.047 15.82c-1.785 0-3.018-1.254-3.018-3.07V1.002A.997.997 0 0 1 13.021 0h2.317v12.123c0 .497.396.9.885.9h2.36v1.788a.997.997 0 0 1-.993 1.002h-2.543v.007z" fill="url(#l65j6lf80d)"/>
        <path d="M15.047 15.531c-1.63 0-2.728-1.124-2.728-2.774V1.002c0-.397.312-.714.702-.714h2.033v11.835c0 .663.524 1.196 1.176 1.196h2.068v1.499a.705.705 0 0 1-.7.713h-2.551z" fill="url(#0dbllrwwze)"/>
        <path style="mix-blend-mode:screen" opacity=".5" d="M.326 5.132H.29V15.51h.036V5.132z" fill="url(#mq0uyy2adf)"/>
        <path style="mix-blend-mode:screen" opacity=".25" d="M.538 15.531h1.814c.326 0 .666-.295.666-.742v-4.62h-.043v4.62c0 .404-.326.7-.623.7H.538v.042z" fill="url(#u5jdnje9mg)"/>
        <path style="mix-blend-mode:screen" opacity=".25" d="M12.355 5.052V.96c0-.303.312-.62.616-.62h2.034l.042-.044h-2.076c-.325 0-.659.332-.659.664v4.093h.043z" fill="url(#myx4hyg97h)"/>
        <path style="mix-blend-mode:screen" opacity=".25" d="M12.356 12.822v-7.74h-.043v7.732h.043v.008z" fill="url(#vbp54fkrei)"/>
        <path style="mix-blend-mode:screen" opacity=".5" d="M15.004 11.986c0 .151.007.295.042.425.057.267.199.483.383.641.22.195.51.31.9.31h1.955v-.043H16.3c-.46 0-.758-.166-.97-.418a1.254 1.254 0 0 1-.255-.505c-.029-.13-.029-.274-.029-.418h-.042v.008z" fill="url(#eb6zhqn37j)"/>
        <path style="mix-blend-mode:screen" opacity=".25" d="M17.562 15.488h-2.55c-1.566 0-2.629-1.08-2.629-2.666h-.042c0 1.607 1.09 2.71 2.67 2.71h2.55v-.044z" fill="url(#mgok3op1qk)"/>
        <path style="mix-blend-mode:multiply" d="M12.32 7.733h2.727V5.96h-2.728v1.773z" fill="url(#m7e1de11tl)"/>
        <path style="mix-blend-mode:screen" opacity=".25" d="m5.689 9.441 4.066-5.08H9.7c-.107.13-4.053 5.066-4.053 5.066l.036.014h.007z" fill="url(#92fhsyb9im)"/>
        <path style="mix-blend-mode:multiply" d="M7.934 4.209c-.737 0-1.544.375-2.026.937L3.159 8.59l2.55.829s3.706-4.642 4.123-5.153c-.495 0-1.898-.058-1.898-.058z" fill="url(#4atanbvtcn)"/>
        <path style="mix-blend-mode:screen" opacity=".25" d="M7.09 15.063c.242.274.603.468.922.468h2.231l-.035-.043H8.012c-.255 0-.666-.165-.921-.425z" fill="url(#jelkxi7s0o)"/>
        <path style="mix-blend-mode:screen" opacity=".25" d="M2.77.295H.956C.637.295.29.591.29 1.038v4.72h.043v-4.72c0-.404.325-.7.623-.7H2.77V.296z" fill="url(#lox6azvx0p)"/>
        <path d="M16.443 4.332H7.786c-1.169 0-1.948.425-2.494 1.095L3.613 7.532c.61-.469 1.445-.75 2.296-.75h10.527c1.331 0 2.614-.418 2.614-1.485 0-1.066-.12-1.657-.12-1.657s-.624.692-2.494.692h.007z" fill="url(#ndqpjg5uxq)"/>
        <path d="M3.649 7.51 5.583 5.08c.474-.598 1.105-1.146 2.437-1.146h8.43c1.778 0 2.401-.641 2.408-.649l.206-.223v2.234s.028.317-.262.642c-.404.454-1.197.684-2.352.684H5.9c-1.338 0-2.26.887-2.26.887h.008z" fill="url(#es4tauoftr)"/>
        <path style="mix-blend-mode:screen" opacity=".7" d="M19.042 5.413c-.007.216-.29 1.16-2.6 1.16H6.064c-.964 0-1.7.281-2.409.915l-.021.022c.56-.454 1.247-.887 2.43-.887h10.378c2.607 0 2.6-1.203 2.6-1.203v-.007z" fill="url(#d2e73r1ifs)"/>
        <path d="M23.137 11.128c0-2.746.914-4.8 3.995-4.8 3.082 0 3.663 2.148 3.663 3.906v.952c0 .598-.347.843-.865.843h-4.788c0 1.463.9 2.184 2.267 2.184 1.19 0 2.266-.317 3.024-.707v1.391c0 .267-.155.425-.347.548-.538.353-1.834.562-2.855.562-3.095 0-4.094-1.931-4.094-4.872v-.007zm5.688-.807v-.159c0-1.441-.708-2.04-1.8-2.04-1.19 0-1.834.772-1.848 2.199h3.648zM32.7 15.531c-.17-.122-.361-.331-.361-.598l.014-1.319c.73.368 1.658.563 2.557.563 1 0 1.382-.426 1.382-.952s-.206-.865-.879-1.11l-.885-.317c-1.282-.461-2.147-1.196-2.147-2.724 0-1.917 1.332-2.602 3.394-2.602.814 0 1.594-.036 1.97-.195v1.55c0 .368-.83.476-1.885.476-.935 0-1.403.209-1.403.807 0 .39.156.685.758.9l.864.303c1.283.44 2.281 1.233 2.281 2.833 0 1.816-1.02 2.868-3.563 2.868-.694 0-1.658-.194-2.111-.475l.014-.008zM40.344 13.434V8.296h-1.318V6.955c0-.317.177-.49.503-.49h.815v-1.78c0-.353.135-.512.482-.512h1.558v2.285h1.127c.552 0 .984-.015 1.402-.195v1.319c0 .634-.814.706-1.502.706h-1.02v4.678c0 .757.206 1.175 1.07 1.175.744 0 1.091-.123 1.452-.281v1.354a.537.537 0 0 1-.361.527c-.468.173-1.02.245-1.764.245-1.417 0-2.437-.613-2.437-2.566l-.007.014zM45.806 13.24c0-2.71 2.245-3.2 4.548-3.2h.623v-.368c0-1.304-.567-1.586-1.8-1.586-.708 0-1.607.16-2.195.332-.263.072-.468.014-.468-.281V6.804c.85-.281 1.87-.476 3.11-.476 1.778 0 3.337.562 3.337 3.099v4.396c0 .296.106.426.347.426.142 0 .205-.015.347-.05v1.073c0 .476-.517.735-1.14.735-.624 0-1.247-.28-1.467-.88-.468.549-1.537.88-2.267.88-1.622 0-2.975-.843-2.975-2.76v-.007zm5.171.44V11.53h-.467c-2.232 0-2.735.65-2.735 1.622 0 .771.567 1.074 1.474 1.074.588 0 1.296-.209 1.728-.548zM55.844 13.434V8.296h-1.318V6.955c0-.317.177-.49.503-.49h.815v-1.78c0-.353.135-.512.482-.512h1.558v2.285h1.127c.552 0 .984-.015 1.402-.195v1.319c0 .634-.814.706-1.502.706h-1.02v4.678c0 .757.206 1.175 1.07 1.175.744 0 1.091-.123 1.452-.281v1.354a.537.537 0 0 1-.361.527c-.468.173-1.02.245-1.764.245-1.417 0-2.437-.613-2.437-2.566l-.007.014zM61.342 11.128c0-2.746.914-4.8 3.995-4.8 3.082 0 3.67 2.148 3.67 3.906v.952c0 .598-.347.843-.864.843h-4.79c0 1.463.9 2.184 2.268 2.184 1.19 0 2.267-.317 3.025-.707v1.391c0 .267-.156.425-.347.548-.539.353-1.835.562-2.856.562-3.095 0-4.101-1.931-4.101-4.872v-.007zm5.688-.807v-.159c0-1.441-.708-2.04-1.799-2.04-1.19 0-1.835.772-1.849 2.199h3.648z" fill="#ED1B23"/>
    </g>
    <defs>
        <radialGradient id="mq0uyy2adf" cx="0" cy="0" r="1" gradientUnits="userSpaceOnUse" gradientTransform="matrix(4.18361 0 0 4.19546 .34 10.042)">
            <stop stop-color="#fff"/>
            <stop offset="1" stop-color="#221E1F"/>
        </radialGradient>
        <radialGradient id="u5jdnje9mg" cx="0" cy="0" r="1" gradientUnits="userSpaceOnUse" gradientTransform="matrix(2.12894 0 0 2.16591 2.795 15.36)">
            <stop stop-color="#fff"/>
            <stop offset="1" stop-color="#221E1F"/>
        </radialGradient>
        <radialGradient id="myx4hyg97h" cx="0" cy="0" r="1" gradientUnits="userSpaceOnUse" gradientTransform="matrix(3.15757 0 0 3.2124 12.446 .474)">
            <stop stop-color="#fff"/>
            <stop offset="1" stop-color="#221E1F"/>
        </radialGradient>
        <radialGradient id="vbp54fkrei" cx="0" cy="0" r="1" gradientUnits="userSpaceOnUse" gradientTransform="matrix(3.11802 0 0 3.12677 12.365 8.741)">
            <stop stop-color="#fff"/>
            <stop offset="1" stop-color="#221E1F"/>
        </radialGradient>
        <radialGradient id="eb6zhqn37j" cx="0" cy="0" r="1" gradientUnits="userSpaceOnUse" gradientTransform="matrix(1.54917 0 0 1.57607 15.995 13.292)">
            <stop stop-color="#fff"/>
            <stop offset="1" stop-color="#221E1F"/>
        </radialGradient>
        <radialGradient id="mgok3op1qk" cx="0" cy="0" r="1" gradientUnits="userSpaceOnUse" gradientTransform="matrix(2.85209 0 0 2.90162 14.634 15.398)">
            <stop stop-color="#fff"/>
            <stop offset="1" stop-color="#221E1F"/>
        </radialGradient>
        <radialGradient id="92fhsyb9im" cx="0" cy="0" r="1" gradientUnits="userSpaceOnUse" gradientTransform="matrix(1.45254 0 0 1.47777 6.645 8.24)">
            <stop stop-color="#fff"/>
            <stop offset="1" stop-color="#221E1F"/>
        </radialGradient>
        <radialGradient id="jelkxi7s0o" cx="0" cy="0" r="1" gradientUnits="userSpaceOnUse" gradientTransform="matrix(1.93257 0 0 1.96612 7.816 15.525)">
            <stop stop-color="#fff"/>
            <stop offset="1" stop-color="#221E1F"/>
        </radialGradient>
        <radialGradient id="lox6azvx0p" cx="0" cy="0" r="1" gradientUnits="userSpaceOnUse" gradientTransform="matrix(-2.14141 0 0 -2.17859 .515 .464)">
            <stop stop-color="#fff"/>
            <stop offset="1" stop-color="#221E1F"/>
        </radialGradient>
        <radialGradient id="d2e73r1ifs" cx="0" cy="0" r="1" gradientUnits="userSpaceOnUse" gradientTransform="matrix(14.7311 0 0 14.987 4.188 6.899)">
            <stop stop-color="#000101"/>
            <stop offset=".24" stop-color="#fff"/>
            <stop offset=".76" stop-color="#fff"/>
            <stop offset=".78" stop-color="#FAFAFA"/>
            <stop offset=".81" stop-color="#EBEBEB"/>
            <stop offset=".85" stop-color="#D4D4D4"/>
            <stop offset=".88" stop-color="#B3B3B3"/>
            <stop offset=".91" stop-color="#888989"/>
            <stop offset=".95" stop-color="#555"/>
            <stop offset=".99" stop-color="#181919"/>
            <stop offset="1" stop-color="#000101"/>
        </radialGradient>
        <linearGradient id="6w8me6vogb" x1="5.597" y1="20.288" x2="5.597" y2="-4.014" gradientUnits="userSpaceOnUse">
            <stop stop-color="#414041"/>
            <stop offset="1" stop-color="#252B2B"/>
        </linearGradient>
        <linearGradient id="8fsuzmk8zc" x1="5.426" y1="-3.121" x2="5.426" y2="18.984" gradientUnits="userSpaceOnUse">
            <stop stop-color="#333"/>
            <stop offset="1"/>
        </linearGradient>
        <linearGradient id="l65j6lf80d" x1="15.302" y1="16.094" x2="15.302" y2="-.058" gradientUnits="userSpaceOnUse">
            <stop stop-color="#414041"/>
            <stop offset="1" stop-color="#252B2B"/>
        </linearGradient>
        <linearGradient id="0dbllrwwze" x1="15.302" y1=".295" x2="15.302" y2="15.25" gradientUnits="userSpaceOnUse">
            <stop stop-color="#333"/>
            <stop offset="1"/>
        </linearGradient>
        <linearGradient id="m7e1de11tl" x1="13.68" y1="7.726" x2="13.68" y2="7.07" gradientUnits="userSpaceOnUse">
            <stop stop-color="#fff"/>
            <stop offset="1" stop-color="#221D1E"/>
        </linearGradient>
        <linearGradient id="4atanbvtcn" x1="6.496" y1="7.813" x2="6.496" y2="6.213" gradientUnits="userSpaceOnUse">
            <stop stop-color="#fff"/>
            <stop offset=".53" stop-color="#221D1E"/>
            <stop offset="1" stop-color="#fff"/>
        </linearGradient>
        <linearGradient id="ndqpjg5uxq" x1="18.972" y1="3.755" x2="3.566" y2="7.726" gradientUnits="userSpaceOnUse">
            <stop stop-color="#CF1F27"/>
            <stop offset=".48" stop-color="#A11D20"/>
            <stop offset=".59" stop-color="#A41D20"/>
            <stop offset=".68" stop-color="#AE1D22"/>
            <stop offset=".77" stop-color="#C01E24"/>
            <stop offset=".83" stop-color="#CF1F27"/>
            <stop offset=".93" stop-color="#991B1E"/>
            <stop offset=".95" stop-color="#961A1D"/>
            <stop offset=".96" stop-color="#8C191C"/>
            <stop offset=".97" stop-color="#7C181A"/>
            <stop offset=".98" stop-color="#661517"/>
            <stop offset=".99" stop-color="#4A1213"/>
            <stop offset="1" stop-color="#321010"/>
        </linearGradient>
        <linearGradient id="es4tauoftr" x1="7.843" y1="2.292" x2="16.083" y2="9.085" gradientUnits="userSpaceOnUse">
            <stop stop-color="#B81F24"/>
            <stop offset=".02" stop-color="#D71F26"/>
            <stop offset=".03" stop-color="#DD3130"/>
            <stop offset=".07" stop-color="#E95544"/>
            <stop offset=".09" stop-color="#F06A50"/>
            <stop offset=".11" stop-color="#F37355"/>
            <stop offset=".28" stop-color="#F05041"/>
            <stop offset=".48" stop-color="#ED2126"/>
            <stop offset=".71" stop-color="#ED2126"/>
            <stop offset="1" stop-color="#D71F26"/>
        </linearGradient>
        <clipPath id="md81vkdxta">
            <path fill="#fff" d="M0 0h69v16H0z"/>
        </clipPath>
    </defs>
</svg>
