<svg width="39" height="18" viewBox="0 0 39 18" fill="none" xmlns="http://www.w3.org/2000/svg">
    <g clip-path="url(#x8ex5mtvwa)">
        <path d="M10.134 14.842 6.77 10.601l4.884-6.174H8.992a3.207 3.207 0 0 0-1.516.28 3.294 3.294 0 0 0-1.224.959l-2.574 3.25V0h-2.58C.805 0 .527.12.321.331A1.146 1.146 0 0 0 0 1.127v16.65h2.58c.291 0 .57-.119.776-.33.206-.211.322-.498.322-.797v-4.427l2.092 2.631 1.775 2.248c.153.21.352.38.58.497.228.118.48.18.734.181h3.602l-2.327-2.938zM16.75 17.78c-1.986 0-3.36-1.405-3.36-3.449V1.127a1.153 1.153 0 0 1 .321-.8 1.096 1.096 0 0 1 .779-.33h2.583v13.622c0 .269.104.527.289.717.185.19.435.298.697.299h2.628v2.015a1.158 1.158 0 0 1-.324.798 1.1 1.1 0 0 1-.779.33l-2.833.002z" fill="#231916"/>
        <path d="m21.221 3.446-.223.244c-.015 0-.702.731-2.689.731H8.924c-1.48 0-2.18.62-2.713 1.291l-.302.372-.02.024-1.864 2.353a4.251 4.251 0 0 1 2.554-.839h11.72c1.422 0 2.785-.433 2.9-1.526a.676.676 0 0 0 0-.14l.023-2.51zM25.773 1.827c0-.39.18-.601.518-.601h2.18v2.167a.535.535 0 0 1-.147.426.508.508 0 0 1-.414.15h-2.137V1.827zm.02 4.334c0-.393.16-.672.564-.672h2.098v11.598c0 .464-.226.672-.63.672H25.8L25.794 6.16zM31.62 17.375a1.003 1.003 0 0 1-.327-.334 1.033 1.033 0 0 1-.145-.45l.024-1.733a7.54 7.54 0 0 0 3.33.74c1.303 0 1.81-.555 1.81-1.239s-.27-1.133-1.15-1.455l-1.145-.418c-1.664-.598-2.788-1.57-2.788-3.579 0-2.52 1.73-3.421 4.407-3.421 1.058 0 2.07-.046 2.565-.254v2.034c0 .486-1.079.62-2.45.62-1.206 0-1.81.278-1.81 1.064 0 .508.203.901.99 1.177l1.127.393c1.664.58 2.969 1.616 2.969 3.715 0 2.381-1.33 3.768-4.633 3.768-.904 0-2.161-.254-2.746-.62" fill="#E60013"/>
    </g>
    <defs>
        <clipPath id="x8ex5mtvwa">
            <path fill="#fff" d="M0 0h39v18H0z"/>
        </clipPath>
    </defs>
</svg>
