<svg width="71" height="17" viewBox="0 0 71 17" fill="none" xmlns="http://www.w3.org/2000/svg">
    <g clip-path="url(#oy0l0fsuka)">
        <path d="M8.245 11.831 5.508 8.448 9.48 3.53H7.313c-.975 0-1.638.301-2.228.994L2.993 7.114V0h-2.1A.899.899 0 0 0 0 .9v13.272h2.1a.896.896 0 0 0 .893-.9V9.745l1.702 2.1 1.446 1.79c.29.37.675.543 1.069.543h2.93l-1.895-2.342v-.004zM13.624 14.172c-1.612 0-2.732-1.123-2.732-2.75V.9A.9.9 0 0 1 11.79 0h2.1v10.858c0 .448.358.81.803.81h2.138v1.605c0 .5-.401.9-.898.9H13.624z" fill="#221E1F"/>
        <path d="M3.276 6.748H3.27h.005zm13.983-4.002-.183.198s-.57.58-2.186.58H7.257c-1.206 0-1.775.496-2.207 1.03l-.239.296-.017.018L3.28 6.744c.552-.417 1.309-.667 2.078-.667h9.532c1.16 0 2.267-.344 2.36-1.218.014-.069.01-.112.01-.112V2.746zM21.792 12.033v-4.6h-1.189V6.232c0-.284.159-.44.454-.44h.735V4.2c0-.314.124-.456.436-.456h1.412v2.049h1.017c.5 0 .894-.017 1.27-.172v1.183c0 .568-.735.633-1.364.633h-.923v4.192c0 .676.188 1.054.97 1.054.672 0 .988-.112 1.318-.254v1.214a.485.485 0 0 1-.33.473c-.423.16-.923.22-1.595.22-1.283 0-2.206-.551-2.206-2.303h-.005zM26.774 9.968c0-2.458.83-4.304 3.618-4.304s3.319 1.924 3.319 3.499v.852c0 .538-.313.757-.783.757h-4.336c0 1.309.817 1.954 2.053 1.954a6.264 6.264 0 0 0 2.74-.628v1.244c0 .236-.14.378-.311.49-.484.314-1.66.504-2.583.504-2.801 0-3.712-1.735-3.712-4.364l-.005-.004zm5.153-.728v-.142c0-1.291-.641-1.829-1.629-1.829-1.082 0-1.66.693-1.676 1.971h3.305zM35.545 12.016V2.673c0-.315.154-.457.47-.457h1.377v9.787c0 .663.295.723.483.723.206 0 .407 0 .689-.077v1.089a.467.467 0 0 1-.312.456c-.27.095-.488.142-.736.142-1.47 0-1.971-.758-1.971-2.316v-.004zM39.445 9.968c0-2.458.83-4.304 3.618-4.304s3.319 1.924 3.319 3.499v.852c0 .538-.313.757-.783.757h-4.336c0 1.309.817 1.954 2.052 1.954a6.264 6.264 0 0 0 2.742-.628v1.244c0 .236-.142.378-.313.49-.483.314-1.659.504-2.583.504-2.8 0-3.711-1.735-3.711-4.364l-.005-.004zm5.153-.728v-.142c0-1.291-.641-1.829-1.629-1.829-1.082 0-1.66.693-1.676 1.971h3.305zM47.745 9.955c0-2.867 1.63-4.162 4.071-4.162.624 0 1.471-.03 1.818-.172v1.386c0 .348-.642.456-1.677.456-1.706 0-2.335.852-2.335 2.505 0 1.794.629 2.694 1.912 2.694.958 0 1.723-.125 2.412-.457v1.292c0 .254-.141.391-.33.486-.346.207-1.423.349-2.018.349-2.895 0-3.853-1.657-3.853-4.382v.005zM54.934 10.015c0-3.185 1.407-4.351 3.694-4.351 2.288 0 3.712 1.166 3.712 4.35 0 3.186-1.424 4.318-3.712 4.318-2.288 0-3.694-1.137-3.694-4.317zm5.529 0c0-1.988-.624-2.677-1.83-2.677s-1.818.693-1.818 2.677.612 2.647 1.818 2.647 1.83-.663 1.83-2.647zM64.03 6.25c0-.315.158-.457.47-.457h1.377v.503c.565-.378 1.206-.628 1.989-.628 2.052 0 3.13 1.433 3.13 4.145 0 3.748-2.066 4.523-3.947 4.523-.424 0-.817-.047-1.176-.142v2.41c0 .237-.141.396-.454.396h-1.394V6.25h.005zm5.088 3.563c0-1.563-.594-2.445-1.689-2.445-.453 0-1.193.254-1.552.68v4.476c.33.095.582.142 1.035.142.988 0 2.206-.301 2.206-2.853z" fill="#ED1B23"/>
    </g>
    <defs>
        <clipPath id="oy0l0fsuka">
            <path fill="#fff" d="M0 0h71v17H0z"/>
        </clipPath>
    </defs>
</svg>
