<svg width="48" height="42" viewBox="0 0 48 42" fill="none" xmlns="http://www.w3.org/2000/svg">
    <path d="m22.926 34.587-7.61-10.02L26.362 9.985h-6.02c-2.708 0-4.556.892-6.2 2.947L8.32 20.611V-.473H2.482C1.112-.473 0 .719 0 2.197v39.33h5.83c1.378 0 2.49-1.192 2.49-2.67V28.393l4.732 6.216 4.016 5.31c.812 1.097 1.882 1.609 2.973 1.609h8.149l-5.264-6.94zM37.894 41.527c-4.487 0-7.604-3.328-7.604-8.154V2.189c0-1.477 1.119-2.662 2.496-2.662h5.837v32.178c0 1.324 1.003 2.399 2.23 2.399h5.946v4.754c0 1.477-1.118 2.669-2.495 2.669h-6.417.007z" fill="#231F20"/>
    <path d="m9.117 19.529.014-.015s-.014.007-.02.015h.006zM48 7.666l-.51.578S45.905 9.97 41.405 9.97H20.185c-3.349 0-4.93 1.463-6.13 3.05l-.67.877s-.033.037-.047.059l-4.214 5.558c1.527-1.236 3.635-1.982 5.776-1.982h26.512c3.219 0 6.308-1.024 6.56-3.605.034-.205.027-.337.027-.337V7.667z" fill="#ED1C24"/>
</svg>
