<svg width="104" height="42" viewBox="0 0 104 42" fill="none" xmlns="http://www.w3.org/2000/svg">
    <g clip-path="url(#zhd6pgdpza)">
        <path d="m24.29 34.658-8.062-9.907L27.93 10.334h-6.383c-2.867 0-4.83.88-6.57 2.912L8.811 20.83V0H2.63A2.635 2.635 0 0 0 0 2.64v38.883h6.18a2.631 2.631 0 0 0 2.63-2.64V28.538l5.016 6.146 4.253 5.248c.861 1.084 1.994 1.586 3.152 1.586h8.637l-5.578-6.865v.006zM40.146 41.523c-4.755 0-8.055-3.29-8.055-8.06V2.633A2.637 2.637 0 0 1 34.735 0h6.185v31.808a2.375 2.375 0 0 0 2.365 2.373h6.303v4.703a2.642 2.642 0 0 1-2.644 2.639h-6.798z" fill="#000"/>
        <path d="m9.659 19.77.012-.012s-.012.012-.018.012h.006zM50.858 8.048l-.539.57c-.03.006-1.678 1.704-6.445 1.704H21.392c-3.548 0-5.226 1.45-6.501 3.01l-.706.868s-.037.037-.05.056L9.671 19.75c1.623-1.22 3.852-1.957 6.118-1.957h28.09c3.413 0 6.682-1.01 6.954-3.563.037-.204.031-.328.031-.328V8.048h-.006zM61.73 29.857c0-10.991 6.086-13.253 11.628-13.253 1.25 0 2.402.137 3.46.415v-4.987c0-4.2.23-5.545 1.846-5.545h4.29c-.464 1.109-.693 2.819-.693 5.266v28.395c0 .923-.458 1.338-1.387 1.338H76.82v-1.338c-1.666 1.108-3.554 1.846-5.864 1.846-6.043 0-9.225-4.2-9.225-12.144v.007zm15.089 5.266v-13.21c-.972-.278-1.709-.414-3.046-.414-2.91 0-6.508.83-6.508 8.45 0 4.573 1.759 7.156 4.984 7.156 1.338 0 3.511-.737 4.57-1.982zM88.868 40.755c-.465-.329-.972-.88-.972-1.574l.049-3.463c1.938.972 4.433 1.48 6.83 1.48 2.674 0 3.69-1.109 3.69-2.49 0-1.382-.558-2.262-2.36-2.906l-2.352-.83c-3.412-1.202-5.721-3.141-5.721-7.156 0-5.03 3.547-6.834 9.04-6.834 2.173 0 4.247-.093 5.262-.508v4.064c0 .973-2.216 1.246-5.027 1.246-2.496 0-3.74.551-3.74 2.125 0 1.016.415 1.797 2.03 2.354l2.31.787c3.418 1.152 6.093 3.234 6.093 7.435 0 4.758-2.724 7.527-9.504 7.527-1.845 0-4.427-.508-5.628-1.245v-.012z" fill="#ED1C24"/>
    </g>
    <defs>
        <clipPath id="zhd6pgdpza">
            <path fill="#fff" d="M0 0h104v42H0z"/>
        </clipPath>
    </defs>
</svg>
