<svg width="190" height="50" viewBox="0 0 190 50" fill="none" xmlns="http://www.w3.org/2000/svg">
    <g clip-path="url(#rq6llqf3ua)" fill="#0096FF">
        <path d="M38.198 18.667c-.396 0-.783.117-1.112.338a2.03 2.03 0 0 0-.306 3.102 1.995 1.995 0 0 0 2.18.439c.366-.153.679-.412.899-.743a2.027 2.027 0 0 0-.248-2.545 1.992 1.992 0 0 0-1.413-.591zM38.198 23.796c-.426 0-.835.17-1.137.474-.301.304-.47.716-.47 1.146v11.603c0 .43.169.842.47 1.146a1.601 1.601 0 0 0 2.274 0c.301-.304.47-.716.47-1.146V25.414c0-.43-.17-.841-.471-1.145a1.601 1.601 0 0 0-1.136-.473zM29.053 23.796a4.859 4.859 0 0 0-3.447 1.438 4.936 4.936 0 0 0-1.43 3.473v8.31c0 .43.169.842.47 1.145a1.601 1.601 0 0 0 2.274 0c.301-.303.47-.715.47-1.145v-8.31c0-.443.176-.87.487-1.183a1.654 1.654 0 0 1 2.348 0c.311.314.486.74.486 1.183v8.31c0 .43.17.842.471 1.145a1.601 1.601 0 0 0 2.274 0c.301-.303.47-.715.47-1.145v-8.31a4.936 4.936 0 0 0-1.428-3.471 4.859 4.859 0 0 0-3.445-1.44zM16.997 23.796a4.858 4.858 0 0 0-3.445 1.44 4.936 4.936 0 0 0-1.429 3.471v5.018c.001 1.12.381 2.204 1.077 3.076a4.868 4.868 0 0 0 2.751 1.718c1.084.24 2.218.1 3.212-.398a4.894 4.894 0 0 0 2.257-2.338 1.63 1.63 0 0 0-.76-2.203 1.597 1.597 0 0 0-1.796.31 1.621 1.621 0 0 0-.361.535 1.668 1.668 0 0 1-.767.798 1.65 1.65 0 0 1-2.033-.445 1.682 1.682 0 0 1-.37-1.048v-.463l4.888-1.12c.469-.106.887-.371 1.187-.75.299-.379.461-.849.46-1.333v-1.357a4.936 4.936 0 0 0-1.428-3.47 4.858 4.858 0 0 0-3.444-1.441zm1.667 5.386-3.321.764v-1.239c0-.443.175-.87.486-1.183a1.654 1.654 0 0 1 2.348 0c.312.314.487.74.487 1.183v.475zM50.356 32.147c.468-.106.887-.371 1.187-.75.299-.379.461-.849.46-1.333v-1.357a4.933 4.933 0 0 0-1.465-3.405 4.856 4.856 0 0 0-3.41-1.402 4.856 4.856 0 0 0-3.41 1.402 4.932 4.932 0 0 0-1.464 3.405v5.018a4.938 4.938 0 0 0 1.077 3.077 4.87 4.87 0 0 0 2.753 1.719c1.085.24 2.218.1 3.213-.399a4.896 4.896 0 0 0 2.258-2.339c.178-.39.196-.836.049-1.239a1.615 1.615 0 0 0-.835-.911 1.596 1.596 0 0 0-1.23-.05c-.4.149-.725.451-.903.842-.159.345-.43.625-.768.794a1.649 1.649 0 0 1-2.029-.444 1.682 1.682 0 0 1-.37-1.045v-.463l4.887-1.12zm-4.887-3.44a1.687 1.687 0 0 1 .463-1.223 1.66 1.66 0 0 1 1.196-.512 1.65 1.65 0 0 1 1.196.512 1.675 1.675 0 0 1 .463 1.223v.463l-3.318.764v-1.227zM8.293 23.928l-1.323.77a3.654 3.654 0 0 0-2.097-.67 4.859 4.859 0 0 0-3.444 1.44A4.936 4.936 0 0 0 0 28.937v4.785A4.952 4.952 0 0 0 1.433 37.2a4.847 4.847 0 0 0 3.452 1.437c.578 0 1.147-.14 1.66-.41v.861c-.01.454-.2.886-.526 1.2a1.694 1.694 0 0 1-1.212.474 1.737 1.737 0 0 1-1.293-.558 1.614 1.614 0 0 0-1.124-.514 1.603 1.603 0 0 0-1.156.437 1.625 1.625 0 0 0-.51 1.132 1.637 1.637 0 0 0 .433 1.165 4.97 4.97 0 0 0 3.638 1.579 4.9 4.9 0 0 0 3.485-1.424 4.977 4.977 0 0 0 1.469-3.488V24.775a.983.983 0 0 0-.485-.849.963.963 0 0 0-.971.002zm-1.76 9.682c0 .872-.523 1.787-1.66 1.787-.44-.001-.861-.178-1.172-.491a1.68 1.68 0 0 1-.486-1.183V28.94c0-.443.176-.868.486-1.181.311-.313.733-.49 1.172-.49 1.137 0 1.66.914 1.66 1.787v4.555z"/>
    </g>
    <defs>
        <clipPath id="rq6llqf3ua">
            <path fill="#fff" transform="translate(0 18.667)" d="M0 0h52v25.333H0z"/>
        </clipPath>
    </defs>
</svg>
