<svg width="190" height="50" viewBox="0 0 190 50" fill="none" xmlns="http://www.w3.org/2000/svg">
    <g clip-path="url(#9kq09yy1xa)">
        <path d="m11.403 37.562-3.778-4.677 5.491-6.796h-3c-1.344 0-2.267.412-3.082 1.373L4.14 31.04v-9.827H1.235a1.237 1.237 0 0 0-.874.367c-.231.233-.361.55-.361.879v18.335h2.904c.328-.001.643-.133.874-.367a1.25 1.25 0 0 0 .361-.879V34.67l2.353 2.901 2.002 2.475a1.864 1.864 0 0 0 1.479.736h4.051l-2.621-3.22z" fill="url(#uueu5gbk7b)"/>
        <path d="M13.004 40.188c-.244-.26-1.169-1.496-2.338-2.884-1.547-1.832-3.127-3.924-3.52-4.4l5.016-6.2.208-.245H9.96a3.616 3.616 0 0 0-2.609 1.197l-3.453 4.267a.056.056 0 0 1-.049.027.067.067 0 0 1-.047-.02.066.066 0 0 1-.019-.048V21.58H1.25a.873.873 0 0 0-.808.546.884.884 0 0 0-.066.337v17.97h2.54a.873.873 0 0 0 .809-.546.884.884 0 0 0 .066-.337v-5.813a.064.064 0 0 1 .065-.066.07.07 0 0 1 .05.022l2.911 3.603L8.845 39.8a1.709 1.709 0 0 0 1.22.628h3.174l-.235-.24z" fill="url(#99wguitq5c)"/>
        <path d="M18.854 40.794c-2.24 0-3.785-1.548-3.785-3.799v-14.54c.001-.33.132-.646.365-.879.232-.232.547-.363.875-.363h2.907v15.002c0 .296.116.58.325.79.208.21.49.328.785.328h2.956v2.208a1.25 1.25 0 0 1-.766 1.15c-.15.063-.311.096-.474.096l-3.188.007z" fill="url(#qg6yvmpjwd)"/>
        <path d="M18.855 40.434c-2.04 0-3.418-1.389-3.418-3.434V22.454c0-.233.093-.457.257-.623a.874.874 0 0 1 .62-.257h2.543v14.641c.004.39.16.761.433 1.036.274.276.644.432 1.031.436h2.595v1.849a.877.877 0 0 1-.879.883l-3.183.015z" fill="url(#whzt8hfzke)"/>
        <path style="mix-blend-mode:screen" opacity=".5" d="M.412 27.57H.364v12.844h.048V27.57z" fill="url(#54wcyz870f)"/>
        <path style="mix-blend-mode:screen" opacity=".25" d="M.676 40.434h2.267a.89.89 0 0 0 .835-.92v-5.722h-.054v5.72a.856.856 0 0 1-.78.865H.675v.056z" fill="url(#lej2z6ljtg)"/>
        <path style="mix-blend-mode:screen" opacity=".25" d="M15.484 27.465v-5.067a.847.847 0 0 1 .771-.773h2.546l.051-.054h-2.597a.889.889 0 0 0-.822.824v5.067l.05.003z" fill="url(#dg3he8ik0h)"/>
        <path style="mix-blend-mode:screen" opacity=".25" d="M15.483 37.078v-9.564h-.05v9.564h.05z" fill="url(#r6r2oazqwi)"/>
        <path style="mix-blend-mode:screen" opacity=".5" d="M18.796 36.044c-.004.176.014.352.051.524.073.313.244.593.488.8.317.265.721.401 1.133.382h2.453V37.7h-2.49a1.479 1.479 0 0 1-.973-.291 1.491 1.491 0 0 1-.56-.852 2.34 2.34 0 0 1-.039-.515l-.063.003z" fill="url(#nilf4xuucj)"/>
        <path style="mix-blend-mode:screen" opacity=".25" d="M21.996 40.38h-3.198c-1.952 0-3.297-1.337-3.297-3.3h-.051c0 1.99 1.362 3.354 3.348 3.354h3.198v-.054z" fill="url(#hri0e7islk)"/>
        <path style="mix-blend-mode:multiply" d="M15.433 30.78h3.417v-2.207h-3.417v2.207z" fill="url(#hi0snen7sl)"/>
        <path style="mix-blend-mode:screen" opacity=".25" d="M7.125 32.897s4.58-5.668 5.09-6.293h-.065L7.076 32.88l.049.017z" fill="url(#p25ffqcn2m)"/>
        <path style="mix-blend-mode:multiply" d="M9.938 26.425a3.512 3.512 0 0 0-2.533 1.16L3.959 31.85l3.195 1.03s4.637-5.749 5.162-6.377c-.62-.012-2.378-.078-2.378-.078z" fill="url(#7qekcgpgon)"/>
        <path style="mix-blend-mode:screen" opacity=".25" d="M8.886 39.852a1.658 1.658 0 0 0 1.15.582h2.8l-.047-.052h-2.753a1.88 1.88 0 0 1-1.15-.525v-.005z" fill="url(#129dffqero)"/>
        <path style="mix-blend-mode:screen" opacity=".25" d="M3.466 21.578H1.2a.882.882 0 0 0-.837.92v5.845h.05v-5.845a.86.86 0 0 1 .787-.868h2.265v-.052z" fill="url(#qxiuw4aelp)"/>
        <path d="M20.602 26.574H9.76c-1.464 0-2.44.52-3.121 1.359l-2.1 2.6a4.811 4.811 0 0 1 2.88-.932H20.6c1.672 0 3.28-.513 3.28-1.837a11.192 11.192 0 0 0-.15-2.05s-.784.86-3.127.86z" fill="url(#0x9yo9hzmq)"/>
        <path d="m4.567 30.503 2.426-3.002c.598-.735 1.384-1.42 3.05-1.42h10.56c2.232 0 3.01-.797 3.018-.804l.259-.272v2.764c-.002.3-.12.586-.33.8-.512.56-1.503.843-2.948.843H7.395a4.452 4.452 0 0 0-2.828 1.091z" fill="url(#n8d8rkn8or)"/>
        <path style="mix-blend-mode:screen" opacity=".7" d="M23.86 27.91c0 .266-.36 1.44-3.258 1.44H7.596a4.247 4.247 0 0 0-3.022 1.131l-.024.027a4.463 4.463 0 0 1 3.046-1.11h13.001c3.266 0 3.258-1.494 3.258-1.494l.005.007z" fill="url(#6cqngtzz0s)"/>
        <path d="M41.778 38.415c.102.339.2.623.288.851.087.228.175.43.263.608.088.18.171.334.244.474.089.15.188.295.298.431h-1.709a1.393 1.393 0 0 1-.69-.167 1.875 1.875 0 0 1-.518-.419c-.147-.17-.27-.36-.363-.564a4.373 4.373 0 0 1-.23-.596l-.925-2.916h-5.37l-1.232 3.735c-.078.257-.23.483-.44.65a1.36 1.36 0 0 1-.9.277h-1.606l4.42-13.388c.44-1.328 1.275-1.99 2.507-1.989a2.406 2.406 0 0 1 1.496.49c.479.4.82.942.976 1.548l3.49 10.975zm-5.673-10.163a1.244 1.244 0 0 0-.097-.199.205.205 0 0 0-.188-.088.184.184 0 0 0-.176.076c-.03.051-.058.108-.088.167l-1.694 5.479h3.805l-1.562-5.435zM44.218 40.78V26.33a1.07 1.07 0 0 1 .2-.675.76.76 0 0 1 .637-.246h1.836c.265-.019.53.046.756.187.184.143.332.33.43.542l3.173 6.783c.16.339.315.346.464.023l3.172-6.674c.115-.254.288-.478.506-.652.298-.164.637-.236.976-.209h2.309v14.362c.011.27-.083.535-.264.736a.937.937 0 0 1-.732.287h-1.516V29.821c0-.161-.044-.245-.131-.267-.088-.022-.19.044-.264.177l-2.197 4.66c-.512 1.075-1.201 1.613-2.067 1.613a1.725 1.725 0 0 1-1.286-.453 3.923 3.923 0 0 1-.757-1.094l-2.328-4.682c-.088-.162-.176-.233-.264-.22a.285.285 0 0 0-.112.065.37.37 0 0 0-.041.223v9.92c.01.272-.085.536-.267.737a.975.975 0 0 1-.746.287l-1.487-.008zM65.591 27.832c-.79 0-1.402.15-1.835.452-.432.304-.657.888-.671 1.758a79.804 79.804 0 0 0-.066 3.301c0 1.141.022 2.243.066 3.304.003.198.032.395.088.586.065.225.173.435.32.618.179.216.408.385.668.49a2.88 2.88 0 0 0 1.167.2h2.484c.22 0 .474 0 .76-.023.285-.022.57-.037.856-.066.286-.03.562-.066.825-.11.223-.035.444-.087.66-.155.058-.03.087-.015.087.044v1.346a.96.96 0 0 1-.361.798 2.355 2.355 0 0 1-.87.419 5.23 5.23 0 0 1-1.034.164c-.352.025-.637.035-.857.035h-2.353c-1.555 0-2.735-.354-3.539-1.06-.803-.706-1.243-1.716-1.32-3.029a58.188 58.188 0 0 1-.066-1.734 77.267 77.267 0 0 1 0-3.688c.015-.612.037-1.19.066-1.737.02-.699.158-1.39.408-2.043.206-.525.542-.988.976-1.346.455-.36.985-.61 1.55-.736a9.082 9.082 0 0 1 2.12-.22h2.576a8.837 8.837 0 0 0 1.571-.11 3.27 3.27 0 0 0 .913-.288v1.347c.015.272-.072.54-.244.75a1.767 1.767 0 0 1-.64.454c-.259.111-.532.185-.812.22a6.062 6.062 0 0 1-.76.057l-2.733.003z" fill="#ED1C24"/>
    </g>
    <defs>
        <radialGradient id="54wcyz870f" cx="0" cy="0" r="1" gradientUnits="userSpaceOnUse" gradientTransform="matrix(5.11531 0 0 5.184 .271 33.453)">
            <stop stop-color="#fff"/>
            <stop offset="1" stop-color="#231F20"/>
        </radialGradient>
        <radialGradient id="lej2z6ljtg" cx="0" cy="0" r="1" gradientUnits="userSpaceOnUse" gradientTransform="matrix(2.66183 0 0 2.67471 3.343 40.019)">
            <stop stop-color="#fff"/>
            <stop offset="1" stop-color="#231F20"/>
        </radialGradient>
        <radialGradient id="dg3he8ik0h" cx="0" cy="0" r="1" gradientUnits="userSpaceOnUse" gradientTransform="matrix(3.94869 0 0 3.9678 15.416 21.627)">
            <stop stop-color="#fff"/>
            <stop offset="1" stop-color="#231F20"/>
        </radialGradient>
        <radialGradient id="r6r2oazqwi" cx="0" cy="0" r="1" gradientUnits="userSpaceOnUse" gradientTransform="matrix(3.81419 0 0 3.86529 15.32 31.84)">
            <stop stop-color="#fff"/>
            <stop offset="1" stop-color="#231F20"/>
        </radialGradient>
        <radialGradient id="nilf4xuucj" cx="0" cy="0" r="1" gradientUnits="userSpaceOnUse" gradientTransform="matrix(1.9384 0 0 1.94779 19.859 37.463)">
            <stop stop-color="#fff"/>
            <stop offset="1" stop-color="#231F20"/>
        </radialGradient>
        <radialGradient id="hri0e7islk" cx="0" cy="0" r="1" gradientUnits="userSpaceOnUse" gradientTransform="matrix(3.56843 0 0 3.5857 18.154 40.07)">
            <stop stop-color="#fff"/>
            <stop offset="1" stop-color="#231F20"/>
        </radialGradient>
        <radialGradient id="p25ffqcn2m" cx="0" cy="0" r="1" gradientUnits="userSpaceOnUse" gradientTransform="matrix(1.81783 0 0 1.82663 8.161 31.221)">
            <stop stop-color="#fff"/>
            <stop offset="1" stop-color="#231F20"/>
        </radialGradient>
        <radialGradient id="129dffqero" cx="0" cy="0" r="1" gradientUnits="userSpaceOnUse" gradientTransform="matrix(2.41605 0 0 2.42774 9.626 40.226)">
            <stop stop-color="#fff"/>
            <stop offset="1" stop-color="#231F20"/>
        </radialGradient>
        <radialGradient id="qxiuw4aelp" cx="0" cy="0" r="1" gradientUnits="userSpaceOnUse" gradientTransform="matrix(-2.68038 0 0 -2.69335 2.807 23.996)">
            <stop stop-color="#fff"/>
            <stop offset="1" stop-color="#231F20"/>
        </radialGradient>
        <radialGradient id="6cqngtzz0s" cx="0" cy="0" r="1" gradientUnits="userSpaceOnUse" gradientTransform="matrix(18.4288 0 0 18.5179 5.087 29.564)">
            <stop stop-color="#010101"/>
            <stop offset=".24" stop-color="#fff"/>
            <stop offset=".76" stop-color="#fff"/>
            <stop offset=".78" stop-color="#FAFAFA"/>
            <stop offset=".81" stop-color="#ECECEC"/>
            <stop offset=".85" stop-color="#D4D4D4"/>
            <stop offset=".88" stop-color="#B3B3B3"/>
            <stop offset=".91" stop-color="#898989"/>
            <stop offset=".95" stop-color="#555"/>
            <stop offset=".99" stop-color="#191919"/>
            <stop offset="1" stop-color="#010101"/>
        </radialGradient>
        <linearGradient id="uueu5gbk7b" x1="7.012" y1="46.317" x2="7.012" y2="16.242" gradientUnits="userSpaceOnUse">
            <stop stop-color="#424242"/>
            <stop offset="1" stop-color="#282B2C"/>
        </linearGradient>
        <linearGradient id="99wguitq5c" x1="6.8" y1="17.353" x2="6.8" y2="44.703" gradientUnits="userSpaceOnUse">
            <stop stop-color="#333"/>
            <stop offset="1"/>
        </linearGradient>
        <linearGradient id="qg6yvmpjwd" x1="19.177" y1="41.13" x2="19.177" y2="21.142" gradientUnits="userSpaceOnUse">
            <stop stop-color="#424242"/>
            <stop offset="1" stop-color="#282B2C"/>
        </linearGradient>
        <linearGradient id="whzt8hfzke" x1="19.177" y1="21.574" x2="19.177" y2="40.085" gradientUnits="userSpaceOnUse">
            <stop stop-color="#333"/>
            <stop offset="1"/>
        </linearGradient>
        <linearGradient id="hi0snen7sl" x1="17.143" y1="30.773" x2="17.143" y2="29.964" gradientUnits="userSpaceOnUse">
            <stop stop-color="#fff"/>
            <stop offset="1" stop-color="#231F20"/>
        </linearGradient>
        <linearGradient id="7qekcgpgon" x1="8.137" y1="30.881" x2="8.137" y2="28.902" gradientUnits="userSpaceOnUse">
            <stop stop-color="#fff"/>
            <stop offset=".53" stop-color="#231F20"/>
            <stop offset="1" stop-color="#fff"/>
        </linearGradient>
        <linearGradient id="0x9yo9hzmq" x1="23.768" y1="25.863" x2="4.491" y2="30.884" gradientUnits="userSpaceOnUse">
            <stop stop-color="#CF2028"/>
            <stop offset=".48" stop-color="#A12022"/>
            <stop offset=".59" stop-color="#A42022"/>
            <stop offset=".68" stop-color="#AF2024"/>
            <stop offset=".77" stop-color="#C02026"/>
            <stop offset=".83" stop-color="#CF2028"/>
            <stop offset=".93" stop-color="#9A1E21"/>
            <stop offset=".95" stop-color="#971E21"/>
            <stop offset=".96" stop-color="#8E1D20"/>
            <stop offset=".97" stop-color="#7E1C1E"/>
            <stop offset=".98" stop-color="#681A1B"/>
            <stop offset=".99" stop-color="#4B1718"/>
            <stop offset="1" stop-color="#321515"/>
        </linearGradient>
        <linearGradient id="n8d8rkn8or" x1="9.824" y1="24.046" x2="20.047" y2="32.583" gradientUnits="userSpaceOnUse">
            <stop stop-color="#B72327"/>
            <stop offset=".02" stop-color="#D62328"/>
            <stop offset=".03" stop-color="#DB3030"/>
            <stop offset=".06" stop-color="#E85444"/>
            <stop offset=".09" stop-color="#F06A50"/>
            <stop offset=".11" stop-color="#F37255"/>
            <stop offset=".29" stop-color="#EF4F41"/>
            <stop offset=".48" stop-color="#EB2729"/>
            <stop offset=".71" stop-color="#EB2729"/>
            <stop offset="1" stop-color="#D62328"/>
        </linearGradient>
        <clipPath id="9kq09yy1xa">
            <path fill="#fff" transform="translate(0 21.213)" d="M0 0h71v19.787H0z"/>
        </clipPath>
    </defs>
</svg>
