<svg width="190" height="50" viewBox="0 0 190 50" fill="none" xmlns="http://www.w3.org/2000/svg">
    <g clip-path="url(#qlo7jcvpma)">
        <path d="m11.629 37.499-3.854-4.717 5.598-6.86h-3.057c-1.37 0-2.312.413-3.145 1.387L4.22 30.92V21H1.259c-.334 0-.654.133-.89.369a1.252 1.252 0 0 0-.369.886v18.51h2.953c.335-.002.655-.136.89-.371.237-.236.37-.555.37-.888v-4.925l2.399 2.929 2.038 2.499a1.898 1.898 0 0 0 1.51.75h4.142l-2.673-3.26z" fill="url(#6px94jbqpb)"/>
        <path d="M13.26 40.138c-.242-.264-1.19-1.51-2.385-2.909-1.575-1.853-3.187-3.97-3.588-4.442.618-.755 4.635-5.674 5.115-6.256l.21-.247h-2.454a3.724 3.724 0 0 0-2.668 1.213L3.97 31.81a.062.062 0 0 1-.051.025.066.066 0 0 1-.047-.02.064.064 0 0 1-.018-.047V21.379H1.259a.897.897 0 0 0-.63.264.888.888 0 0 0-.26.629V40.41h2.584a.9.9 0 0 0 .631-.263.89.89 0 0 0 .261-.63v-5.876a.064.064 0 0 1 .065-.065c.019.001.037.008.05.02l2.97 3.65 2.067 2.527a1.74 1.74 0 0 0 1.24.635h3.25l-.226-.27z" fill="url(#0ccqyyvapc)"/>
        <path d="M19.226 40.764c-2.284 0-3.86-1.564-3.86-3.835V22.252c.002-.332.136-.65.372-.885.236-.234.556-.366.89-.367h2.965v15.142c0 .298.119.584.33.795.212.21.5.329.799.329h3.015v2.246c0 .333-.133.652-.37.888a1.268 1.268 0 0 1-.892.37l-3.25-.006z" fill="url(#o1n98tl1qd)"/>
        <path d="M19.226 40.4c-2.08 0-3.49-1.405-3.49-3.471V22.252c.001-.235.095-.46.262-.626a.898.898 0 0 1 .63-.261h2.595v14.777c0 .397.158.777.44 1.057.282.28.663.437 1.062.437h2.645v1.87a.89.89 0 0 1-.26.63.9.9 0 0 1-.632.263h-3.252z" fill="url(#pxydegar2e)"/>
        <path style="mix-blend-mode:screen" opacity=".5" d="M.421 27.416H.37v12.963H.42V27.416z" fill="url(#3346mlbi3f)"/>
        <path style="mix-blend-mode:screen" opacity=".25" d="M.695 40.4h2.312a.908.908 0 0 0 .613-.296.898.898 0 0 0 .234-.637v-5.773H3.8v5.773a.862.862 0 0 1-.225.595.871.871 0 0 1-.574.281H.695v.056z" fill="url(#sm93fgciig)"/>
        <path style="mix-blend-mode:screen" opacity=".25" d="M15.79 27.31v-5.114a.84.84 0 0 1 .785-.78h2.597l.05-.054h-2.647a.911.911 0 0 0-.847.843v5.113l.062-.009z" fill="url(#bg8pwbqhqh)"/>
        <path style="mix-blend-mode:screen" opacity=".25" d="M15.79 37.01v-9.662h-.054v9.662h.054z" fill="url(#3nwgvb4p7i)"/>
        <path style="mix-blend-mode:screen" opacity=".5" d="M19.166 35.968c-.002.179.015.356.051.531.071.314.242.597.489.806a1.7 1.7 0 0 0 1.154.385h2.499v-.054h-2.54a1.527 1.527 0 0 1-1.24-.522 1.485 1.485 0 0 1-.325-.632 2.38 2.38 0 0 1-.04-.52l-.047.006z" fill="url(#i5eqhhsstj)"/>
        <path style="mix-blend-mode:screen" opacity=".25" d="M22.433 40.346h-3.255c-1.999 0-3.366-1.35-3.366-3.333h-.05c0 2.013 1.389 3.389 3.416 3.389h3.255v-.056z" fill="url(#k9l0ntzb4k)"/>
        <path style="mix-blend-mode:multiply" d="M15.736 30.659h3.487v-2.224h-3.487v2.224z" fill="url(#40uwr5vqpl)"/>
        <path style="mix-blend-mode:screen" opacity=".25" d="M7.261 32.793s4.675-5.72 5.195-6.351h-.068l-5.175 6.331.048.02z" fill="url(#4e85ssnqpm)"/>
        <path style="mix-blend-mode:multiply" d="M10.135 26.259a3.61 3.61 0 0 0-2.583 1.17l-3.515 4.3 3.258 1.038s4.737-5.8 5.262-6.438c-.63 0-2.422-.07-2.422-.07z" fill="url(#tge0d5qoun)"/>
        <path style="mix-blend-mode:screen" opacity=".25" d="M9.063 39.812a1.693 1.693 0 0 0 1.171.584h2.854l-.048-.053h-2.806a1.92 1.92 0 0 1-1.171-.53z" fill="url(#y2w287jv8o)"/>
        <path style="mix-blend-mode:screen" opacity=".25" d="M3.535 21.368H1.222a.903.903 0 0 0-.614.293.893.893 0 0 0-.233.636v5.897h.037v-5.897a.862.862 0 0 1 .8-.876h2.311l.012-.053z" fill="url(#4o9qkfbvup)"/>
        <path d="M21.021 26.41H9.966c-1.5 0-2.487.529-3.185 1.374l-2.14 2.622a4.937 4.937 0 0 1 2.936-.94h13.444c1.694 0 3.346-.517 3.346-1.854a11.096 11.096 0 0 0-.155-2.069s-.814.868-3.19.868z" fill="url(#c4s0jzflzq)"/>
        <path d="m4.647 30.378 2.473-3.03c.613-.746 1.412-1.434 3.106-1.434H21.02c2.279 0 3.072-.803 3.08-.812l.263-.28v2.79a1.148 1.148 0 0 1-.339.806c-.52.562-1.53.843-3.004.843H7.555a4.565 4.565 0 0 0-2.908 1.117z" fill="url(#woq3ryqb8r)"/>
        <path style="mix-blend-mode:screen" opacity=".7" d="M24.333 27.758c-.014.281-.373 1.455-3.326 1.455H7.752a4.368 4.368 0 0 0-3.082 1.14l-.023.028a4.585 4.585 0 0 1 3.105-1.123h13.27c3.33 0 3.325-1.508 3.325-1.508l-.014.008z" fill="url(#ecxcz3zb4s)"/>
        <path d="M37.912 38.566c.56-.03 1.119-.094 1.672-.191.43-.061.85-.185 1.245-.368.059-.031.09 0 .09.045v1.272a1.097 1.097 0 0 1-.392.842c-.281.25-.615.433-.977.536a7.478 7.478 0 0 1-1.77.281c-.599.025-1.214.02-1.841 0a5.992 5.992 0 0 1-2.064-.39 4.028 4.028 0 0 1-1.358-.893 3.316 3.316 0 0 1-.762-1.26 6.566 6.566 0 0 1-.302-1.52 25.574 25.574 0 0 1-.034-.842c-.008-.326 0-.649 0-.983v-.983c0-.32.02-.598.034-.842a3.985 3.985 0 0 1 1.222-2.777c.74-.69 1.805-1.088 3.196-1.193a12.36 12.36 0 0 1 1.37 0c.462.022.844.034 1.143.034.528.005 1.055-.018 1.58-.068.334-.02.66-.111.955-.266v1.403c.005.25-.073.494-.223.694a1.6 1.6 0 0 1-.584.458 3.032 3.032 0 0 1-.83.233 5.04 5.04 0 0 1-.943.044l-.997-.033h-.954c-.753 0-1.318.182-1.694.547a2.324 2.324 0 0 0-.638 1.595 19.063 19.063 0 0 0 0 2.589c.014.233.047.464.099.69a1.597 1.597 0 0 0 .847 1.082c.302.144.63.231.965.255.3.031.61.05.932.056a9.27 9.27 0 0 0 1.013-.047zM44.934 38.386c1.033.015 2.073.015 3.12 0 .328-.007.653-.067.962-.18a.64.64 0 0 0 .404-.668.76.76 0 0 0-.167-.489 1.632 1.632 0 0 0-.652-.39l-3.543-1.25c-.868-.325-1.478-.734-1.83-1.226a2.956 2.956 0 0 1-.525-1.764 2.686 2.686 0 0 1 1.008-2.23c.672-.535 1.61-.816 2.803-.841.362-.014.746-.023 1.158-.023.412 0 .796 0 1.155.023a7.599 7.599 0 0 0 1.535-.057c.393-.053.775-.17 1.13-.345v1.43c.006.23-.065.457-.2.645a1.563 1.563 0 0 1-.551.447c-.25.125-.52.21-.796.255a4.315 4.315 0 0 1-.943.056c-.387 0-.808-.022-1.257-.022-.448 0-.866 0-1.253.022a2.02 2.02 0 0 0-.898.18.633.633 0 0 0-.27.72.63.63 0 0 0 .135.237c.19.144.401.258.626.337l3.45 1.205c.667.232 1.273.61 1.773 1.106a2.689 2.689 0 0 1 .695 2.019 2.949 2.949 0 0 1-.347 1.494c-.23.398-.554.736-.944.982-.425.266-.896.45-1.389.545a8.194 8.194 0 0 1-1.693.169h-2.626c-.36.01-.719-.036-1.064-.135a1.613 1.613 0 0 1-.652-.368 1.123 1.123 0 0 1-.314-.511 2.144 2.144 0 0 1-.079-.593v-.993c0-.087.045-.118.136-.087.28.09.57.153.864.188.344.055.69.092 1.038.112z" fill="#ED1C24"/>
    </g>
    <defs>
        <radialGradient id="3346mlbi3f" cx="0" cy="0" r="1" gradientUnits="userSpaceOnUse" gradientTransform="matrix(5.32131 0 0 5.2308 .23 33.318)">
            <stop stop-color="#fff"/>
            <stop offset="1" stop-color="#231F20"/>
        </radialGradient>
        <radialGradient id="sm93fgciig" cx="0" cy="0" r="1" gradientUnits="userSpaceOnUse" gradientTransform="matrix(2.7142 0 0 2.69942 3.363 39.947)">
            <stop stop-color="#fff"/>
            <stop offset="1" stop-color="#231F20"/>
        </radialGradient>
        <radialGradient id="bg8pwbqhqh" cx="0" cy="0" r="1" gradientUnits="userSpaceOnUse" gradientTransform="matrix(4.0257 0 0 4.00379 15.674 21.384)">
            <stop stop-color="#fff"/>
            <stop offset="1" stop-color="#231F20"/>
        </radialGradient>
        <radialGradient id="3nwgvb4p7i" cx="0" cy="0" r="1" gradientUnits="userSpaceOnUse" gradientTransform="matrix(3.92115 0 0 3.89976 15.574 31.694)">
            <stop stop-color="#fff"/>
            <stop offset="1" stop-color="#231F20"/>
        </radialGradient>
        <radialGradient id="i5eqhhsstj" cx="0" cy="0" r="1" gradientUnits="userSpaceOnUse" gradientTransform="matrix(1.97664 0 0 1.96588 20.206 37.37)">
            <stop stop-color="#fff"/>
            <stop offset="1" stop-color="#231F20"/>
        </radialGradient>
        <radialGradient id="k9l0ntzb4k" cx="0" cy="0" r="1" gradientUnits="userSpaceOnUse" gradientTransform="matrix(3.63949 0 0 3.61968 18.466 39.998)">
            <stop stop-color="#fff"/>
            <stop offset="1" stop-color="#231F20"/>
        </radialGradient>
        <radialGradient id="4e85ssnqpm" cx="0" cy="0" r="1" gradientUnits="userSpaceOnUse" gradientTransform="matrix(1.85327 0 0 1.84318 8.277 31.07)">
            <stop stop-color="#fff"/>
            <stop offset="1" stop-color="#231F20"/>
        </radialGradient>
        <radialGradient id="y2w287jv8o" cx="0" cy="0" r="1" gradientUnits="userSpaceOnUse" gradientTransform="matrix(2.46477 0 0 2.45136 9.77 40.155)">
            <stop stop-color="#fff"/>
            <stop offset="1" stop-color="#231F20"/>
        </radialGradient>
        <radialGradient id="4o9qkfbvup" cx="0" cy="0" r="1" gradientUnits="userSpaceOnUse" gradientTransform="matrix(-2.73297 0 0 -2.7181 3.135 23.923)">
            <stop stop-color="#fff"/>
            <stop offset="1" stop-color="#231F20"/>
        </radialGradient>
        <radialGradient id="ecxcz3zb4s" cx="0" cy="0" r="1" gradientUnits="userSpaceOnUse" gradientTransform="matrix(18.7929 0 0 18.6906 5.141 29.395)">
            <stop stop-color="#010101"/>
            <stop offset=".24" stop-color="#fff"/>
            <stop offset=".76" stop-color="#fff"/>
            <stop offset=".78" stop-color="#FAFAFA"/>
            <stop offset=".81" stop-color="#ECECEC"/>
            <stop offset=".85" stop-color="#D4D4D4"/>
            <stop offset=".88" stop-color="#B3B3B3"/>
            <stop offset=".91" stop-color="#898989"/>
            <stop offset=".95" stop-color="#555"/>
            <stop offset=".99" stop-color="#191919"/>
            <stop offset="1" stop-color="#010101"/>
        </radialGradient>
        <linearGradient id="6px94jbqpb" x1="7.151" y1="46.34" x2="7.151" y2="15.982" gradientUnits="userSpaceOnUse">
            <stop stop-color="#414142"/>
            <stop offset="1" stop-color="#272B2C"/>
        </linearGradient>
        <linearGradient id="0ccqyyvapc" x1="6.934" y1="17.106" x2="6.934" y2="44.709" gradientUnits="userSpaceOnUse">
            <stop stop-color="#333"/>
            <stop offset="1"/>
        </linearGradient>
        <linearGradient id="o1n98tl1qd" x1="19.553" y1="41.104" x2="19.553" y2="20.927" gradientUnits="userSpaceOnUse">
            <stop stop-color="#414142"/>
            <stop offset="1" stop-color="#272B2C"/>
        </linearGradient>
        <linearGradient id="pxydegar2e" x1="19.553" y1="21.365" x2="19.553" y2="40.048" gradientUnits="userSpaceOnUse">
            <stop stop-color="#333"/>
            <stop offset="1"/>
        </linearGradient>
        <linearGradient id="40uwr5vqpl" x1="17.481" y1="30.65" x2="17.481" y2="29.833" gradientUnits="userSpaceOnUse">
            <stop stop-color="#fff"/>
            <stop offset="1" stop-color="#231F20"/>
        </linearGradient>
        <linearGradient id="tge0d5qoun" x1="8.297" y1="30.757" x2="8.297" y2="28.761" gradientUnits="userSpaceOnUse">
            <stop stop-color="#fff"/>
            <stop offset=".53" stop-color="#231F20"/>
            <stop offset="1" stop-color="#fff"/>
        </linearGradient>
        <linearGradient id="c4s0jzflzq" x1="24.237" y1="25.695" x2="4.607" y2="30.86" gradientUnits="userSpaceOnUse">
            <stop stop-color="#CF2128"/>
            <stop offset=".48" stop-color="#A11E21"/>
            <stop offset=".59" stop-color="#A41E22"/>
            <stop offset=".68" stop-color="#AF1F23"/>
            <stop offset=".77" stop-color="#C02026"/>
            <stop offset=".83" stop-color="#CF2128"/>
            <stop offset=".93" stop-color="#9A1C1F"/>
            <stop offset=".95" stop-color="#971C1F"/>
            <stop offset=".96" stop-color="#8E1B1D"/>
            <stop offset=".97" stop-color="#7E191B"/>
            <stop offset=".98" stop-color="#681719"/>
            <stop offset=".99" stop-color="#4B1415"/>
            <stop offset="1" stop-color="#331212"/>
        </linearGradient>
        <linearGradient id="woq3ryqb8r" x1="10.017" y1="23.861" x2="20.353" y2="32.579" gradientUnits="userSpaceOnUse">
            <stop stop-color="#B92025"/>
            <stop offset=".02" stop-color="#D72027"/>
            <stop offset=".03" stop-color="#DD3131"/>
            <stop offset=".07" stop-color="#E95544"/>
            <stop offset=".09" stop-color="#F06B51"/>
            <stop offset=".11" stop-color="#F37355"/>
            <stop offset=".28" stop-color="#F05041"/>
            <stop offset=".48" stop-color="#ED2227"/>
            <stop offset=".71" stop-color="#ED2227"/>
            <stop offset="1" stop-color="#D72027"/>
        </linearGradient>
        <clipPath id="qlo7jcvpma">
            <path fill="#fff" transform="translate(0 21)" d="M0 0h52v20H0z"/>
        </clipPath>
    </defs>
</svg>
