<svg width="190" height="50" viewBox="0 0 190 50" fill="none" xmlns="http://www.w3.org/2000/svg">
    <g clip-path="url(#g2vxtmebya)">
        <path d="m11.978 37.514-3.971-4.721 5.84-6.874h-3.159a4.004 4.004 0 0 0-1.796.32 3.863 3.863 0 0 0-1.446 1.076L4.401 30.92v-9.91H1.345c-.345 0-.676.132-.921.366a1.24 1.24 0 0 0-.387.886v18.514h3.065c.345-.003.675-.136.919-.373.243-.236.38-.556.38-.889v-4.927l2.438 2.928 2.102 2.495c.183.233.419.422.69.553.27.131.568.201.87.204h4.28l-2.803-3.252z" fill="url(#wninj6zysb)"/>
        <path d="M13.697 40.153c-.253-.261-1.234-1.504-2.467-2.91-1.626-1.802-3.289-3.973-3.737-4.441.635-.757 4.784-5.685 5.279-6.306l.215-.253h-2.532a3.942 3.942 0 0 0-1.534.325c-.483.209-.915.513-1.27.891l-3.634 4.316h-.056a.067.067 0 0 1-.046-.019.062.062 0 0 1-.02-.044V21.369H1.225a.952.952 0 0 0-.66.264.885.885 0 0 0-.274.637v18.135h2.672a.952.952 0 0 0 .66-.264.885.885 0 0 0 .274-.636v-5.856c0-.017.007-.033.02-.045a.066.066 0 0 1 .045-.018h.056l3.065 3.603 2.14 2.532c.155.184.348.335.566.443.219.109.459.172.704.187h3.354l-.15-.198z" fill="url(#vbldotz2rc)"/>
        <path d="M19.854 40.775a3.931 3.931 0 0 1-1.556-.24 3.818 3.818 0 0 1-1.321-.826 3.657 3.657 0 0 1-.86-1.273 3.55 3.55 0 0 1-.253-1.5V22.253a1.24 1.24 0 0 1 .387-.886c.245-.234.576-.366.921-.366h3.055v15.153c0 .299.123.585.342.796.22.212.517.33.826.33h3.111v2.243c0 .166-.034.33-.1.484a1.25 1.25 0 0 1-.287.408 1.304 1.304 0 0 1-.427.27c-.16.063-.33.093-.503.09h-3.335z" fill="url(#0sluge6rdd)"/>
        <path d="M19.854 40.405c-.48.026-.96-.046-1.41-.21a3.437 3.437 0 0 1-1.197-.747 3.289 3.289 0 0 1-.777-1.153 3.192 3.192 0 0 1-.223-1.358V22.252c0-.239.099-.468.274-.637a.952.952 0 0 1 .66-.264h2.682v14.802c0 .395.162.774.451 1.055.289.28.68.438 1.09.44h2.72v1.874a.885.885 0 0 1-.274.638.952.952 0 0 1-.66.263l-3.336-.018z" fill="url(#98g32fv96e)"/>
        <path style="mix-blend-mode:screen" opacity=".5" d="M.43 27.414H.383v12.973H.43V27.414z" fill="url(#q81qqok1ef)"/>
        <path style="mix-blend-mode:screen" opacity=".25" d="M.766 40.405H3.15a.95.95 0 0 0 .624-.282.884.884 0 0 0 .254-.618v-5.802H3.97v5.774a.883.883 0 0 1-.233.602.946.946 0 0 1-.59.3H.767v.026z" fill="url(#aklcv1gqeg)"/>
        <path style="mix-blend-mode:screen" opacity=".25" d="M16.303 27.315v-5.117a.834.834 0 0 1 .258-.532.893.893 0 0 1 .555-.243h2.682l.056-.054h-2.738a.95.95 0 0 0-.594.259.888.888 0 0 0-.275.57v5.126l.056-.009z" fill="url(#u6geqfshmh)"/>
        <path style="mix-blend-mode:screen" opacity=".25" d="M16.303 37.018v-9.667h-.056v9.667h.056z" fill="url(#s2t2sokh7i)"/>
        <path style="mix-blend-mode:screen" opacity=".5" d="M19.788 35.982c0 .176.018.35.056.523.073.315.25.6.505.81.33.27.754.409 1.186.388h2.588v-.054h-2.625a1.622 1.622 0 0 1-.703-.117 1.54 1.54 0 0 1-.913-1.036 3.016 3.016 0 0 1 0-.514h-.094z" fill="url(#6n5zuf55mj)"/>
        <path style="mix-blend-mode:screen" opacity=".25" d="M23.189 40.36h-3.363a3.4 3.4 0 0 1-1.354-.203 3.304 3.304 0 0 1-1.15-.718 3.162 3.162 0 0 1-.748-1.107 3.068 3.068 0 0 1-.215-1.305h-.056c-.024.452.05.904.22 1.326.168.422.426.805.759 1.125.332.319.73.567 1.168.729.439.161.907.232 1.376.207h3.363v-.054z" fill="url(#cfq8lgnahk)"/>
        <path style="mix-blend-mode:multiply" d="M16.247 30.658h3.607V28.44h-3.607v2.217z" fill="url(#127nqt8gsl)"/>
        <path style="mix-blend-mode:screen" opacity=".25" d="m7.502 32.802 5.41-6.36h-.075l-5.335 6.306v.054z" fill="url(#5aoxmwrl1m)"/>
        <path style="mix-blend-mode:multiply" d="M10.464 26.261a3.851 3.851 0 0 0-1.455.324c-.458.201-.868.49-1.208.847L4.176 31.74l3.354 1.036s4.896-5.811 5.438-6.442c-.654 0-2.504-.072-2.504-.072z" fill="url(#x1uke5rtbn)"/>
        <path style="mix-blend-mode:screen" opacity=".25" d="M9.362 39.82c.148.172.332.312.54.413.207.1.433.16.665.172h2.952l-.056-.054h-2.896a1.996 1.996 0 0 1-1.205-.531z" fill="url(#u4syb401jo)"/>
        <path style="mix-blend-mode:screen" opacity=".25" d="M3.653 21.37H1.271a.949.949 0 0 0-.625.282.884.884 0 0 0-.254.618v5.901-5.874a.883.883 0 0 1 .237-.604.946.946 0 0 1 .595-.297h2.382l.047-.027z" fill="url(#bie10cy5zp)"/>
        <path d="M21.694 26.414H10.277a4.092 4.092 0 0 0-1.814.306 3.953 3.953 0 0 0-1.475 1.064l-2.205 2.621a5.205 5.205 0 0 1 3.028-.9h13.883c1.757 0 3.448-.523 3.448-1.856.013-.694-.04-1.388-.16-2.072 0 0-.859.837-3.288.837z" fill="url(#9y2ncuyppq)"/>
        <path d="m4.812 30.387 2.55-3.036c.37-.478.858-.86 1.419-1.111a3.858 3.858 0 0 1 1.795-.33h11.118c2.345 0 3.167-.802 3.177-.81l.27-.271v2.775c0 .15-.032.297-.093.435s-.15.262-.261.366c-.533.568-1.58.901-3.093.901H7.792a4.774 4.774 0 0 0-2.98 1.081z" fill="url(#z9for7py5r)"/>
        <path style="mix-blend-mode:screen" opacity=".7" d="M25.123 27.766c0 .261-.383 1.45-3.429 1.45H8.007A4.601 4.601 0 0 0 4.82 30.36a4.777 4.777 0 0 1 3.204-1.117h13.67c3.437 0 3.428-1.504 3.428-1.504v.027z" fill="url(#6c465nk9qs)"/>
        <path d="M30.514 34.91c0-3.432 1.215-6 5.27-6 3.905 0 4.839 2.703 4.839 4.874v1.189a.94.94 0 0 1-.056.433.971.971 0 0 1-.246.365 1.043 1.043 0 0 1-.838.265h-6.325c0 1.802 1.186 2.703 2.99 2.703a9.462 9.462 0 0 0 3.99-.901v1.73a.781.781 0 0 1-.129.4.822.822 0 0 1-.32.284c-1.176.5-2.453.74-3.737.703-4.111.045-5.438-2.37-5.438-6.045zm7.474-1.01v-.197c0-1.802-.934-2.55-2.364-2.55-1.579 0-2.42.964-2.447 2.703l4.811.045zM43.127 40.405a.99.99 0 0 1-.33-.319.949.949 0 0 1-.147-.428v-1.649a8.113 8.113 0 0 0 3.383.703c1.317 0 1.821-.523 1.821-1.18 0-.658-.27-1.081-1.158-1.388l-1.15-.432c-1.69-.577-2.802-1.496-2.802-3.415 0-2.396 1.756-3.252 4.475-3.252a8.878 8.878 0 0 0 2.597-.243v1.937c0 .46-1.093.594-2.485.594-1.233 0-1.868.262-1.868 1.01 0 .486.205.9 1.009 1.125l1.14.37c1.681.55 3.008 1.54 3.008 3.54 0 2.27-1.345 3.604-4.672 3.604a6.68 6.68 0 0 1-2.821-.577zM53.208 37.793v-6.424H51.48v-1.675a.541.541 0 0 1 .175-.464.584.584 0 0 1 .488-.149h1.065v-2.225c0-.433.187-.63.645-.63h2.036v2.855h1.486a4.734 4.734 0 0 0 1.868-.243v1.648c0 .793-1.074.901-1.98.901h-1.374v5.847c0 .901.28 1.478 1.42 1.478a4.34 4.34 0 0 0 1.916-.352v1.676a.668.668 0 0 1-.128.403.709.709 0 0 1-.349.255 6.98 6.98 0 0 1-2.326.306c-1.869 0-3.214-.784-3.214-3.207zM60.42 37.514c0-3.388 2.962-4 5.999-4h.822v-.469c0-1.622-.757-1.973-2.373-1.973-.98.02-1.953.16-2.896.415-.346.09-.617 0-.617-.352v-1.63a13.293 13.293 0 0 1 4.102-.595c2.354 0 4.41.703 4.41 3.865v5.504c0 .37.13.523.448.523.155.002.31-.02.458-.063v1.342c0 .595-.682.901-1.505.901-.4.03-.8-.06-1.146-.257a1.918 1.918 0 0 1-.788-.842 4.6 4.6 0 0 1-2.99 1.099c-2.148.018-3.923-1.036-3.923-3.468zm6.821.55V35.36h-.617c-2.943 0-3.606.811-3.606 2.027 0 .964.757 1.343 1.943 1.343.808.01 1.6-.21 2.28-.63v-.037zM73.64 37.793v-6.424h-1.737v-1.675a.549.549 0 0 1 .18-.46.593.593 0 0 1 .484-.153h1.074v-2.225c0-.433.187-.63.635-.63h2.056v2.855h1.485a4.667 4.667 0 0 0 1.869-.243v1.648c0 .793-1.065.901-1.98.901H76.36v5.847c0 .901.27 1.478 1.41 1.478a4.34 4.34 0 0 0 1.916-.352v1.676a.667.667 0 0 1-.128.403.708.708 0 0 1-.349.255 6.98 6.98 0 0 1-2.326.306c-1.887 0-3.242-.784-3.242-3.207zM80.9 34.91c0-3.432 1.215-6 5.27-6 3.905 0 4.84 2.703 4.84 4.874v1.189a.94.94 0 0 1-.056.433.97.97 0 0 1-.247.365 1.043 1.043 0 0 1-.837.265h-6.316c0 1.802 1.186 2.703 2.98 2.703a9.541 9.541 0 0 0 3.999-.901v1.73a.772.772 0 0 1-.13.403.812.812 0 0 1-.328.281c-1.176.5-2.453.74-3.737.703-4.11.045-5.438-2.37-5.438-6.045zm7.475-1.01v-.197c0-1.802-.934-2.55-2.373-2.55-1.58 0-2.42.964-2.439 2.703l4.812.045z" fill="#ED1C24"/>
    </g>
    <defs>
        <radialGradient id="q81qqok1ef" cx="0" cy="0" r="1" gradientUnits="userSpaceOnUse" gradientTransform="matrix(5.43796 0 0 5.24432 .446 33.556)">
            <stop stop-color="#fff"/>
            <stop offset="1" stop-color="#231F20"/>
        </radialGradient>
        <radialGradient id="aklcv1gqeg" cx="0" cy="0" r="1" gradientUnits="userSpaceOnUse" gradientTransform="matrix(2.80773 0 0 2.70739 3.686 40.2)">
            <stop stop-color="#fff"/>
            <stop offset="1" stop-color="#231F20"/>
        </radialGradient>
        <radialGradient id="u6geqfshmh" cx="0" cy="0" r="1" gradientUnits="userSpaceOnUse" gradientTransform="matrix(4.16431 0 0 4.0155 16.413 21.597)">
            <stop stop-color="#fff"/>
            <stop offset="1" stop-color="#231F20"/>
        </radialGradient>
        <radialGradient id="s2t2sokh7i" cx="0" cy="0" r="1" gradientUnits="userSpaceOnUse" gradientTransform="matrix(4.05262 0 0 3.90847 16.31 31.931)">
            <stop stop-color="#fff"/>
            <stop offset="1" stop-color="#231F20"/>
        </radialGradient>
        <radialGradient id="6n5zuf55mj" cx="0" cy="0" r="1" gradientUnits="userSpaceOnUse" gradientTransform="matrix(2.04312 0 0 1.97009 21.1 37.615)">
            <stop stop-color="#fff"/>
            <stop offset="1" stop-color="#231F20"/>
        </radialGradient>
        <radialGradient id="cfq8lgnahk" cx="0" cy="0" r="1" gradientUnits="userSpaceOnUse" gradientTransform="matrix(3.76146 0 0 3.62703 19.299 40.252)">
            <stop stop-color="#fff"/>
            <stop offset="1" stop-color="#231F20"/>
        </radialGradient>
        <radialGradient id="5aoxmwrl1m" cx="0" cy="0" r="1" gradientUnits="userSpaceOnUse" gradientTransform="matrix(1.91567 0 0 1.84721 8.767 31.305)">
            <stop stop-color="#fff"/>
            <stop offset="1" stop-color="#231F20"/>
        </radialGradient>
        <radialGradient id="u4syb401jo" cx="0" cy="0" r="1" gradientUnits="userSpaceOnUse" gradientTransform="matrix(2.54874 0 0 2.45766 10.308 40.41)">
            <stop stop-color="#fff"/>
            <stop offset="1" stop-color="#231F20"/>
        </radialGradient>
        <radialGradient id="bie10cy5zp" cx="0" cy="0" r="1" gradientUnits="userSpaceOnUse" gradientTransform="matrix(-2.82417 0 0 -2.72324 .677 21.576)">
            <stop stop-color="#fff"/>
            <stop offset="1" stop-color="#231F20"/>
        </radialGradient>
        <radialGradient id="6c465nk9qs" cx="0" cy="0" r="1" gradientUnits="userSpaceOnUse" gradientTransform="matrix(19.428 0 0 18.7337 5.523 29.624)">
            <stop stop-color="#010101"/>
            <stop offset=".24" stop-color="#fff"/>
            <stop offset=".76" stop-color="#fff"/>
            <stop offset=".78" stop-color="#FAFAFA"/>
            <stop offset=".81" stop-color="#ECECEC"/>
            <stop offset=".85" stop-color="#D4D4D4"/>
            <stop offset=".88" stop-color="#B3B3B3"/>
            <stop offset=".91" stop-color="#898989"/>
            <stop offset=".95" stop-color="#555"/>
            <stop offset=".99" stop-color="#191919"/>
            <stop offset="1" stop-color="#010101"/>
        </radialGradient>
        <linearGradient id="wninj6zysb" x1="7.381" y1="46.351" x2="7.381" y2="15.982" gradientUnits="userSpaceOnUse">
            <stop stop-color="#414142"/>
            <stop offset="1" stop-color="#272B2C"/>
        </linearGradient>
        <linearGradient id="vbldotz2rc" x1="7.157" y1="17.099" x2="7.157" y2="44.721" gradientUnits="userSpaceOnUse">
            <stop stop-color="#333"/>
            <stop offset="1"/>
        </linearGradient>
        <linearGradient id="0sluge6rdd" x1="20.19" y1="41.117" x2="20.19" y2="20.928" gradientUnits="userSpaceOnUse">
            <stop stop-color="#414142"/>
            <stop offset="1" stop-color="#272B2C"/>
        </linearGradient>
        <linearGradient id="98g32fv96e" x1="20.19" y1="21.36" x2="20.19" y2="40.054" gradientUnits="userSpaceOnUse">
            <stop stop-color="#333"/>
            <stop offset="1"/>
        </linearGradient>
        <linearGradient id="127nqt8gsl" x1="18.05" y1="30.649" x2="18.05" y2="29.838" gradientUnits="userSpaceOnUse">
            <stop stop-color="#fff"/>
            <stop offset="1" stop-color="#231F20"/>
        </linearGradient>
        <linearGradient id="x1uke5rtbn" x1="8.567" y1="30.757" x2="8.567" y2="28.766" gradientUnits="userSpaceOnUse">
            <stop stop-color="#fff"/>
            <stop offset=".53" stop-color="#231F20"/>
            <stop offset="1" stop-color="#fff"/>
        </linearGradient>
        <linearGradient id="9y2ncuyppq" x1="25.02" y1="25.694" x2="4.844" y2="31.171" gradientUnits="userSpaceOnUse">
            <stop stop-color="#CF2128"/>
            <stop offset=".48" stop-color="#A11E21"/>
            <stop offset=".59" stop-color="#A41E22"/>
            <stop offset=".68" stop-color="#AF1F23"/>
            <stop offset=".77" stop-color="#C02026"/>
            <stop offset=".83" stop-color="#CF2128"/>
            <stop offset=".93" stop-color="#9A1C1F"/>
            <stop offset=".95" stop-color="#971C1F"/>
            <stop offset=".96" stop-color="#8E1B1D"/>
            <stop offset=".97" stop-color="#7E191B"/>
            <stop offset=".98" stop-color="#681719"/>
            <stop offset=".99" stop-color="#4B1415"/>
            <stop offset="1" stop-color="#331212"/>
        </linearGradient>
        <linearGradient id="z9for7py5r" x1="10.342" y1="23.856" x2="20.735" y2="32.904" gradientUnits="userSpaceOnUse">
            <stop stop-color="#B92025"/>
            <stop offset=".02" stop-color="#D72027"/>
            <stop offset=".03" stop-color="#DD3131"/>
            <stop offset=".07" stop-color="#E95544"/>
            <stop offset=".09" stop-color="#F06B51"/>
            <stop offset=".11" stop-color="#F37355"/>
            <stop offset=".28" stop-color="#F05041"/>
            <stop offset=".48" stop-color="#ED2227"/>
            <stop offset=".71" stop-color="#ED2227"/>
            <stop offset="1" stop-color="#D72027"/>
        </linearGradient>
        <clipPath id="g2vxtmebya">
            <path fill="#fff" transform="translate(0 21)" d="M0 0h91v20H0z"/>
        </clipPath>
    </defs>
</svg>
