<svg width="190" height="50" viewBox="0 0 190 50" fill="none" xmlns="http://www.w3.org/2000/svg">
    <g clip-path="url(#n4puwb22ma)">
        <path d="m11.953 38.24-3.962-4.932 5.76-7.166h-3.144c-1.411 0-2.378.434-3.234 1.45L4.34 31.365V21H1.295a1.287 1.287 0 0 0-.917.386 1.312 1.312 0 0 0-.378.928v19.334h3.045a1.287 1.287 0 0 0 .917-.386 1.313 1.313 0 0 0 .378-.928V35.18l2.467 3.06 2.096 2.61a1.955 1.955 0 0 0 1.553.786h4.25l-2.753-3.397z" fill="url(#mux9ib1nyb)"/>
        <path d="M13.631 41c-.247-.276-1.225-1.575-2.45-3.04-1.623-1.932-3.28-4.147-3.69-4.64l5.258-6.535.217-.259h-2.525a3.768 3.768 0 0 0-1.5.348c-.47.218-.893.53-1.24.92l-3.623 4.502a.073.073 0 0 1-.052.024.067.067 0 0 1-.061-.074V21.393h-2.67a.91.91 0 0 0-.846.575.935.935 0 0 0-.069.355v18.95h2.665a.915.915 0 0 0 .648-.276.935.935 0 0 0 .266-.657v-6.134c0-.018.007-.035.02-.048a.067.067 0 0 1 .047-.02.071.071 0 0 1 .052.021l3.054 3.813 2.127 2.64a1.786 1.786 0 0 0 1.275.663h3.338L13.63 41z" fill="url(#700if3ml9c)"/>
        <path d="M19.764 41.648c-2.348 0-3.968-1.634-3.968-4.007v-15.33c.001-.348.139-.681.382-.927.244-.246.574-.384.919-.384h3.048v15.82c0 .31.122.61.34.83.217.22.513.343.82.343h3.098v2.347c0 .347-.138.68-.381.926a1.293 1.293 0 0 1-.917.385l-3.34-.003z" fill="url(#6a9raoo3ed)"/>
        <path d="M19.765 41.267c-2.14 0-3.588-1.467-3.588-3.626v-15.33c0-.246.098-.482.27-.656a.918.918 0 0 1 .65-.274h2.668V36.82c0 .414.162.811.452 1.104.29.293.682.458 1.092.46h2.72v1.953a.938.938 0 0 1-.27.656.918.918 0 0 1-.65.274h-3.345z" fill="url(#miuwlp9dfe)"/>
        <path style="mix-blend-mode:screen" opacity=".5" d="M.433 27.703H.38v13.543h.053V27.703z" fill="url(#7lboo5tduf)"/>
        <path style="mix-blend-mode:screen" opacity=".25" d="M.705 41.267h2.39a.926.926 0 0 0 .63-.307.945.945 0 0 0 .24-.664v-6.031H3.91v6.03a.906.906 0 0 1-.232.621.888.888 0 0 1-.59.292H.711l-.006.059z" fill="url(#yhrp06dsjg)"/>
        <path style="mix-blend-mode:screen" opacity=".25" d="M16.232 27.591V22.25a.884.884 0 0 1 .255-.56.866.866 0 0 1 .555-.253h2.667l.055-.056h-2.722a.931.931 0 0 0-.6.275.949.949 0 0 0-.271.605v5.342l.06-.012z" fill="url(#j3vsyd17xh)"/>
        <path style="mix-blend-mode:screen" opacity=".25" d="M16.232 37.729V27.632h-.055V37.73h.055z" fill="url(#54j276z3oi)"/>
        <path style="mix-blend-mode:screen" opacity=".5" d="M19.706 36.647c-.004.186.014.372.053.554.071.328.247.623.499.842.332.279.755.423 1.187.405h2.572v-.056h-2.613a1.554 1.554 0 0 1-1.605-1.206 2.524 2.524 0 0 1-.04-.542l-.053.003z" fill="url(#0bs3qvh09j)"/>
        <path style="mix-blend-mode:screen" opacity=".25" d="M23.068 41.21h-3.353c-2.052 0-3.457-1.407-3.457-3.478h-.055c0 2.1 1.428 3.538 3.512 3.538h3.353v-.06z" fill="url(#jp553uwjhk)"/>
        <path style="mix-blend-mode:multiply" d="M16.177 31.09h3.588v-2.32h-3.588v2.32z" fill="url(#sgq6q5feil)"/>
        <path style="mix-blend-mode:screen" opacity=".25" d="M7.466 33.323s4.807-5.978 5.34-6.638h-.072c-.136.173-5.317 6.615-5.317 6.615l.049.023z" fill="url(#g6z3e4rtum)"/>
        <path style="mix-blend-mode:multiply" d="M10.418 26.494a3.66 3.66 0 0 0-1.453.337c-.457.21-.866.513-1.203.89L4.15 32.21l3.347 1.083s4.87-6.06 5.41-6.726c-.647 0-2.49-.074-2.49-.074z" fill="url(#3f03iszh6n)"/>
        <path style="mix-blend-mode:screen" opacity=".25" d="M9.315 40.654a1.744 1.744 0 0 0 1.204.61h2.938l-.052-.056h-2.886a1.965 1.965 0 0 1-1.204-.554z" fill="url(#7ur7l1r9xo)"/>
        <path style="mix-blend-mode:screen" opacity=".25" d="M3.631 21.393H1.257a.922.922 0 0 0-.63.305.942.942 0 0 0-.24.663v6.16H.44v-6.16a.909.909 0 0 1 .232-.622.89.89 0 0 1 .59-.293h2.374l-.006-.053z" fill="url(#k4r042w95p)"/>
        <path d="M21.599 26.653H10.232c-1.541 0-2.557.548-3.274 1.431l-2.2 2.743a5.03 5.03 0 0 1 3.021-.983h13.826c1.741 0 3.437-.54 3.437-1.936.013-.724-.04-1.448-.157-2.162 0 0-.83.907-3.286.907z" fill="url(#z164jfis8q)"/>
        <path d="m4.787 30.797 2.542-3.165c.627-.78 1.452-1.499 3.193-1.499h11.071c2.343 0 3.158-.839 3.164-.847l.27-.294v2.916a1.224 1.224 0 0 1-.348.842c-.534.587-1.573.88-3.089.88H7.744a4.652 4.652 0 0 0-2.957 1.167z" fill="url(#ecxr8gptkr)"/>
        <path style="mix-blend-mode:screen" opacity=".7" d="M25.015 28.06c0 .294-.38 1.52-3.416 1.52H7.956a4.43 4.43 0 0 0-3.158 1.2l-.023.026a4.655 4.655 0 0 1 3.193-1.158H21.61c3.422 0 3.416-1.576 3.416-1.576l-.012-.011z" fill="url(#urbb1os62s)"/>
        <path d="M47.044 40.293a1.93 1.93 0 0 1-.23 1.07c-.154.218-.485.326-.992.326h-1.408v-8.27a1.21 1.21 0 0 0-.264-.88 1.237 1.237 0 0 0-.795-.316 6.225 6.225 0 0 0-1.222.035c-.448.056-.854.12-1.223.2.08.24.118.492.114.745v7.087c.03.373-.054.747-.241 1.07-.163.218-.497.326-1.005.326h-1.404l.023-8.275c0-.481-.134-.81-.395-.989a1.626 1.626 0 0 0-1.013-.243 12.95 12.95 0 0 0-1.016.091c-.369.047-.708.094-1.016.14v7.853c.029.373-.049.747-.223 1.077-.154.226-.485.337-.993.337h-1.405V30.442c.337-.09.717-.181 1.14-.266.425-.085.845-.162 1.27-.232.423-.07.82-.13 1.198-.176.31-.042.622-.066.935-.07a7.098 7.098 0 0 1 1.489.058c.427.068.843.197 1.233.384.23-.061.505-.12.83-.173a18.79 18.79 0 0 1 1.014-.14c.354-.039.71-.07 1.074-.094.362-.024.679-.036.955-.036 1.108 0 1.98.294 2.612.88.633.587.952 1.536.958 2.846v6.87zM54.286 35.441c-.154-.194-.11-.293.134-.293h1.544a.688.688 0 0 1 .688.346l4.142 5.632c.087.144.05.214-.116.214h-1.773a.716.716 0 0 1-.535-.329l-.746-1.003a4.598 4.598 0 0 1-1.852 1.496c-.764.334-1.59.5-2.423.49a5.765 5.765 0 0 1-1.89-.293 4.145 4.145 0 0 1-1.422-.81 3.592 3.592 0 0 1-.897-1.255 4.014 4.014 0 0 1-.314-1.599 4.146 4.146 0 0 1 .343-1.737 5.35 5.35 0 0 1 .87-1.352 6.87 6.87 0 0 1 1.194-1.059c.437-.307.86-.59 1.268-.85.166-.103.378-.232.639-.385.265-.157.52-.332.763-.522.235-.179.45-.382.642-.607.166-.182.26-.419.267-.666a.887.887 0 0 0-.363-.742 1.57 1.57 0 0 0-.975-.293c-.535 0-.9.117-1.098.354a1.231 1.231 0 0 0-.29.801c-.005.192.028.382.096.56.056.14.12.274.191.405.076.118.053.173-.075.173h-.822a1.063 1.063 0 0 1-1.01-.48c-.2-.352-.3-.753-.29-1.16-.004-.367.08-.73.247-1.058.165-.323.4-.603.688-.822.318-.236.677-.41 1.06-.51.438-.12.891-.178 1.346-.173.487-.008.971.07 1.431.232.392.138.754.35 1.068.624a2.702 2.702 0 0 1 .897 2.036c.006.442-.102.878-.313 1.265-.213.379-.477.726-.784 1.032a7.215 7.215 0 0 1-1.03.839c-.378.25-.729.478-1.06.684-.383.243-.743.486-1.08.724-.315.22-.606.471-.87.751a3.293 3.293 0 0 0-.581.86c-.149.319-.224.668-.22 1.02-.01.304.053.606.182.88.117.236.29.438.505.587.23.161.49.276.764.337.306.072.62.108.934.106.318-.001.633-.047.938-.135a3.89 3.89 0 0 0 .885-.367c.264-.144.508-.322.726-.53.192-.174.345-.387.45-.626l-2.073-2.792zM63.734 39.196c1.059.015 2.123.015 3.193 0 .34-.006.675-.07.993-.188a.674.674 0 0 0 .415-.698.788.788 0 0 0-.186-.525 1.657 1.657 0 0 0-.667-.408l-3.634-1.317c-.89-.34-1.517-.768-1.878-1.282a3.098 3.098 0 0 1-.532-1.827 2.845 2.845 0 0 1 .24-1.3c.18-.409.455-.767.8-1.047.69-.561 1.651-.855 2.882-.88.369-.015.763-.024 1.187-.024.424 0 .819 0 1.187.024a7.729 7.729 0 0 0 1.582-.059 3.747 3.747 0 0 0 1.162-.36v1.492c.006.243-.067.48-.21.675-.149.198-.341.358-.563.466-.258.131-.535.221-.821.268a4.175 4.175 0 0 1-.967.058c-.4-.015-.83-.023-1.291-.023-.462 0-.892 0-1.292.023a2.108 2.108 0 0 0-.923.188.662.662 0 0 0-.297.468.671.671 0 0 0 .157.532c.198.15.416.268.648.352l3.553 1.282c.685.24 1.307.634 1.82 1.153a2.807 2.807 0 0 1 .717 2.109 3.12 3.12 0 0 1-.357 1.56c-.237.417-.57.769-.97 1.027-.439.276-.924.47-1.43.572a8.471 8.471 0 0 1-1.742.173h-2.7c-.37.01-.739-.037-1.094-.138a1.622 1.622 0 0 1-.668-.387 1.175 1.175 0 0 1-.322-.534 2.277 2.277 0 0 1-.081-.619v-1.009c0-.094.046-.126.136-.094.29.095.587.16.888.197.353.051.709.085 1.066.1z" fill="#ED1C24"/>
    </g>
    <defs>
        <radialGradient id="7lboo5tduf" cx="0" cy="0" r="1" gradientUnits="userSpaceOnUse" gradientTransform="matrix(5.40758 0 0 5.46472 .254 33.872)">
            <stop stop-color="#fff"/>
            <stop offset="1" stop-color="#231F20"/>
        </radialGradient>
        <radialGradient id="yhrp06dsjg" cx="0" cy="0" r="1" gradientUnits="userSpaceOnUse" gradientTransform="matrix(2.79065 0 0 2.82014 3.469 40.797)">
            <stop stop-color="#fff"/>
            <stop offset="1" stop-color="#231F20"/>
        </radialGradient>
        <radialGradient id="j3vsyd17xh" cx="0" cy="0" r="1" gradientUnits="userSpaceOnUse" gradientTransform="matrix(4.1391 0 0 4.18284 16.126 21.401)">
            <stop stop-color="#fff"/>
            <stop offset="1" stop-color="#231F20"/>
        </radialGradient>
        <radialGradient id="54j276z3oi" cx="0" cy="0" r="1" gradientUnits="userSpaceOnUse" gradientTransform="matrix(4.03129 0 0 4.07416 16.024 32.175)">
            <stop stop-color="#fff"/>
            <stop offset="1" stop-color="#231F20"/>
        </radialGradient>
        <radialGradient id="0bs3qvh09j" cx="0" cy="0" r="1" gradientUnits="userSpaceOnUse" gradientTransform="matrix(2.03232 0 0 2.0538 20.786 38.102)">
            <stop stop-color="#fff"/>
            <stop offset="1" stop-color="#231F20"/>
        </radialGradient>
        <radialGradient id="jp553uwjhk" cx="0" cy="0" r="1" gradientUnits="userSpaceOnUse" gradientTransform="matrix(3.74201 0 0 3.78155 19 40.85)">
            <stop stop-color="#fff"/>
            <stop offset="1" stop-color="#231F20"/>
        </radialGradient>
        <radialGradient id="g6z3e4rtum" cx="0" cy="0" r="1" gradientUnits="userSpaceOnUse" gradientTransform="matrix(1.90548 0 0 1.92561 8.52 31.52)">
            <stop stop-color="#fff"/>
            <stop offset="1" stop-color="#231F20"/>
        </radialGradient>
        <radialGradient id="7ur7l1r9xo" cx="0" cy="0" r="1" gradientUnits="userSpaceOnUse" gradientTransform="matrix(2.5342 0 0 2.56098 10.06 41.011)">
            <stop stop-color="#fff"/>
            <stop offset="1" stop-color="#231F20"/>
        </radialGradient>
        <radialGradient id="k4r042w95p" cx="0" cy="0" r="1" gradientUnits="userSpaceOnUse" gradientTransform="matrix(-2.80996 0 0 -2.83965 3.234 24.053)">
            <stop stop-color="#fff"/>
            <stop offset="1" stop-color="#231F20"/>
        </radialGradient>
        <radialGradient id="urbb1os62s" cx="0" cy="0" r="1" gradientUnits="userSpaceOnUse" gradientTransform="matrix(19.3222 0 0 19.5264 5.297 29.773)">
            <stop stop-color="#010101"/>
            <stop offset=".24" stop-color="#fff"/>
            <stop offset=".76" stop-color="#fff"/>
            <stop offset=".78" stop-color="#FAFAFA"/>
            <stop offset=".81" stop-color="#ECECEC"/>
            <stop offset=".85" stop-color="#D4D4D4"/>
            <stop offset=".88" stop-color="#B3B3B3"/>
            <stop offset=".91" stop-color="#898989"/>
            <stop offset=".95" stop-color="#555"/>
            <stop offset=".99" stop-color="#191919"/>
            <stop offset="1" stop-color="#010101"/>
        </radialGradient>
        <linearGradient id="mux9ib1nyb" x1="7.35" y1="47.474" x2="7.35" y2="15.758" gradientUnits="userSpaceOnUse">
            <stop stop-color="#414142"/>
            <stop offset="1" stop-color="#272B2C"/>
        </linearGradient>
        <linearGradient id="700if3ml9c" x1="7.126" y1="16.931" x2="7.126" y2="45.769" gradientUnits="userSpaceOnUse">
            <stop stop-color="#333"/>
            <stop offset="1"/>
        </linearGradient>
        <linearGradient id="6a9raoo3ed" x1="20.101" y1="42.003" x2="20.101" y2="20.924" gradientUnits="userSpaceOnUse">
            <stop stop-color="#414142"/>
            <stop offset="1" stop-color="#272B2C"/>
        </linearGradient>
        <linearGradient id="miuwlp9dfe" x1="20.104" y1="21.381" x2="20.104" y2="40.9" gradientUnits="userSpaceOnUse">
            <stop stop-color="#333"/>
            <stop offset="1"/>
        </linearGradient>
        <linearGradient id="sgq6q5feil" x1="17.971" y1="31.082" x2="17.971" y2="30.228" gradientUnits="userSpaceOnUse">
            <stop stop-color="#fff"/>
            <stop offset="1" stop-color="#231F20"/>
        </linearGradient>
        <linearGradient id="3f03iszh6n" x1="8.528" y1="31.194" x2="8.528" y2="29.108" gradientUnits="userSpaceOnUse">
            <stop stop-color="#fff"/>
            <stop offset=".53" stop-color="#231F20"/>
            <stop offset="1" stop-color="#fff"/>
        </linearGradient>
        <linearGradient id="z164jfis8q" x1="24.917" y1="25.905" x2="4.693" y2="31.142" gradientUnits="userSpaceOnUse">
            <stop stop-color="#CF2128"/>
            <stop offset=".48" stop-color="#A11E21"/>
            <stop offset=".59" stop-color="#A41E22"/>
            <stop offset=".68" stop-color="#AF1F23"/>
            <stop offset=".77" stop-color="#C02026"/>
            <stop offset=".83" stop-color="#CF2128"/>
            <stop offset=".93" stop-color="#9A1C1F"/>
            <stop offset=".95" stop-color="#971C1F"/>
            <stop offset=".96" stop-color="#8E1B1D"/>
            <stop offset=".97" stop-color="#7E191B"/>
            <stop offset=".98" stop-color="#681719"/>
            <stop offset=".99" stop-color="#4B1415"/>
            <stop offset="1" stop-color="#331212"/>
        </linearGradient>
        <linearGradient id="ecxr8gptkr" x1="10.299" y1="23.989" x2="21.067" y2="32.93" gradientUnits="userSpaceOnUse">
            <stop stop-color="#B92025"/>
            <stop offset=".02" stop-color="#D72027"/>
            <stop offset=".03" stop-color="#DD3131"/>
            <stop offset=".07" stop-color="#E95544"/>
            <stop offset=".09" stop-color="#F06B51"/>
            <stop offset=".11" stop-color="#F37355"/>
            <stop offset=".28" stop-color="#F05041"/>
            <stop offset=".48" stop-color="#ED2227"/>
            <stop offset=".71" stop-color="#ED2227"/>
            <stop offset="1" stop-color="#D72027"/>
        </linearGradient>
        <clipPath id="n4puwb22ma">
            <path fill="#fff" transform="translate(0 21)" d="M0 0h71v21H0z"/>
        </clipPath>
    </defs>
</svg>
