<svg width="190" height="50" viewBox="0 0 190 50" fill="none" xmlns="http://www.w3.org/2000/svg">
    <g clip-path="url(#tads5y5b1a)">
        <path d="m11.405 37.688-3.774-4.773 5.494-6.936h-3.008c-1.344 0-2.267.418-3.083 1.403l-2.894 3.65V21H1.236a1.226 1.226 0 0 0-.874.374 1.29 1.29 0 0 0-.362.899v18.715h2.904c.328 0 .642-.135.874-.373.232-.238.362-.56.362-.897v-4.979L6.499 37.7l2 2.526c.173.235.396.426.653.558.256.132.54.2.826.202h4.048l-2.62-3.298z" fill="url(#mc5vl63ykb)"/>
        <path d="M13.012 40.361c-.236-.266-1.18-1.526-2.338-2.941-1.547-1.873-3.128-4.014-3.52-4.493.607-.762 4.549-5.738 5.016-6.326l.207-.242H9.962c-.494.01-.98.123-1.429.333a3.63 3.63 0 0 0-1.183.886l-3.453 4.355a.062.062 0 0 1-.05.024.063.063 0 0 1-.047-.02.065.065 0 0 1-.019-.048V21.373H1.236a.867.867 0 0 0-.618.266.912.912 0 0 0-.255.636V40.62h2.54a.867.867 0 0 0 .62-.266.912.912 0 0 0 .254-.636v-5.923a.067.067 0 0 1 .018-.048.063.063 0 0 1 .048-.02.07.07 0 0 1 .05.02l2.912 3.677 2.03 2.557a1.673 1.673 0 0 0 1.215.641h3.184l-.222-.26z" fill="url(#2yynf6ohdc)"/>
        <path d="M18.857 40.988c-2.243 0-3.786-1.58-3.786-3.87v-14.85a1.29 1.29 0 0 1 .365-.897c.233-.238.548-.371.876-.371h2.904v15.316c0 .302.117.592.326.805a1.1 1.1 0 0 0 .785.335h2.958v2.264a1.29 1.29 0 0 1-.365.897 1.225 1.225 0 0 1-.876.37h-3.187z" fill="url(#y7k7i39cbd)"/>
        <path d="M18.857 40.62c-2.043 0-3.423-1.417-3.423-3.508V22.268c.001-.239.094-.467.258-.635a.866.866 0 0 1 .62-.263h2.543v14.946c0 .4.156.784.431 1.068.276.283.65.443 1.04.444h2.596v1.892a.912.912 0 0 1-.258.637.867.867 0 0 1-.62.263h-3.187z" fill="url(#9d1y7ku26e)"/>
        <path style="mix-blend-mode:screen" opacity=".5" d="M.413 27.488h-.05v13.11h.05v-13.11z" fill="url(#psdf181enf)"/>
        <path style="mix-blend-mode:screen" opacity=".25" d="M.675 40.62h2.267a.876.876 0 0 0 .605-.295.921.921 0 0 0 .23-.646v-5.838h-.05v5.838a.886.886 0 0 1-.22.606.844.844 0 0 1-.565.284H.675v.051z" fill="url(#5xl8zhkilg)"/>
        <path style="mix-blend-mode:screen" opacity=".25" d="M15.486 27.382V22.21a.869.869 0 0 1 .244-.539.828.828 0 0 1 .525-.248h2.548l.052-.053H16.26a.88.88 0 0 0-.562.264.922.922 0 0 0-.259.576v5.172h.047z" fill="url(#9zx2o9geph)"/>
        <path style="mix-blend-mode:screen" opacity=".25" d="M15.487 37.194v-9.773h-.053v9.773h.053z" fill="url(#w2sx46cebi)"/>
        <path style="mix-blend-mode:screen" opacity=".5" d="M18.798 36.14c-.003.18.015.36.052.537.067.317.233.603.472.815.317.27.72.41 1.132.39h2.465v-.054h-2.49a1.465 1.465 0 0 1-.668-.12 1.5 1.5 0 0 1-.864-1.048 2.523 2.523 0 0 1-.037-.525l-.062.005z" fill="url(#r3sxmyswuj)"/>
        <path style="mix-blend-mode:screen" opacity=".25" d="M22.004 40.57h-3.196c-1.958 0-3.303-1.365-3.303-3.37h-.052c0 2.034 1.364 3.425 3.35 3.425h3.196l.005-.056z" fill="url(#b4yckj6s8k)"/>
        <path style="mix-blend-mode:multiply" d="M15.434 30.769h3.42v-2.247h-3.42v2.247z" fill="url(#yya9yqkwnl)"/>
        <path style="mix-blend-mode:screen" opacity=".25" d="M7.115 32.93s4.585-5.788 5.095-6.426h-.066L7.07 32.908l.045.021z" fill="url(#t6nya4j9cm)"/>
        <path style="mix-blend-mode:multiply" d="M9.945 26.32c-.479.01-.95.121-1.386.325a3.527 3.527 0 0 0-1.147.86L3.96 31.86l3.194 1.048s4.644-5.865 5.16-6.51c-.617-.008-2.37-.078-2.37-.078z" fill="url(#1tdzmkungn)"/>
        <path style="mix-blend-mode:screen" opacity=".25" d="M8.888 40.028c.144.172.32.313.516.414.198.101.413.161.633.176h2.8l-.047-.053h-2.753a1.867 1.867 0 0 1-1.149-.537z" fill="url(#j3wxebowao)"/>
        <path style="mix-blend-mode:screen" opacity=".25" d="M3.468 21.373h-2.27a.876.876 0 0 0-.604.294.921.921 0 0 0-.23.644v5.968h.051v-5.968a.889.889 0 0 1 .222-.6.846.846 0 0 1 .561-.285h2.27v-.053z" fill="url(#2rnn6urtxp)"/>
        <path d="M20.605 26.475H9.755c-1.47 0-2.442.534-3.124 1.388l-2.1 2.662a4.769 4.769 0 0 1 2.883-.949h13.189c1.672 0 3.279-.525 3.279-1.875a11.68 11.68 0 0 0-.151-2.095s-.784.869-3.126.869z" fill="url(#08flfznlvq)"/>
        <path d="m4.567 30.486 2.427-3.065c.597-.753 1.383-1.452 3.05-1.452h10.561c2.234 0 3.012-.815 3.02-.822l.257-.279v2.824a1.172 1.172 0 0 1-.33.813c-.51.573-1.5.863-2.947.863H7.395a4.396 4.396 0 0 0-2.828 1.118z" fill="url(#svc7elyqer)"/>
        <path style="mix-blend-mode:screen" opacity=".7" d="M23.863 27.837c-.012.27-.361 1.47-3.258 1.47H7.6a4.202 4.202 0 0 0-3.021 1.155l-.024.026A4.415 4.415 0 0 1 7.6 29.366h13.005c3.267 0 3.258-1.527 3.258-1.527v-.002z" fill="url(#0t16sn87rs)"/>
        <path d="M41.812 25.297c-.35-.03-.7.043-1.01.212a1.817 1.817 0 0 0-.517.668l-3.212 6.815c-.149.332-.305.322-.472-.02l-3.225-6.918a1.512 1.512 0 0 0-.443-.552 1.24 1.24 0 0 0-.772-.196h-1.856a.761.761 0 0 0-.649.26c-.14.2-.211.442-.2.689v14.757h1.521a.973.973 0 0 0 .762-.295c.181-.202.277-.469.267-.743V29.833a.36.36 0 0 1 .047-.242l.108-.063c.092-.015.18.058.274.225l2.347 4.783c.196.413.458.791.774 1.117.177.163.383.288.608.367.224.08.462.113.699.098.884 0 1.583-.55 2.104-1.65l2.238-4.759c.078-.135.166-.196.272-.181.106.014.132.102.132.268V40.99h1.542a.939.939 0 0 0 .739-.295c.183-.2.282-.468.273-.743V25.297h-2.358M62.473 39.723c.028.34-.046.682-.212.98-.142.2-.443.3-.908.3h-1.29v-7.566a1.111 1.111 0 0 0-.236-.8 1.132 1.132 0 0 0-.732-.286 5.352 5.352 0 0 0-1.118.03c-.41.05-.78.113-1.12.183.072.219.107.449.104.68v6.479c.028.342-.05.685-.222.98-.146.2-.455.3-.92.3h-1.29l.018-7.566c0-.442-.117-.742-.356-.907a1.552 1.552 0 0 0-.932-.225c-.283.015-.592.046-.929.087-.337.041-.649.085-.93.126v7.185a1.81 1.81 0 0 1-.212.99c-.141.205-.443.31-.91.31h-1.293V30.73a13.89 13.89 0 0 1 1.045-.242c.387-.075.774-.15 1.163-.212.39-.063.753-.12 1.1-.16.283-.04.57-.062.856-.066a6.302 6.302 0 0 1 1.363.054c.392.06.774.179 1.132.353.213-.058.472-.111.762-.162a18.769 18.769 0 0 1 1.91-.21c.331-.02.626-.035.879-.035 1.014 0 1.814.27 2.4.81.586.54.878 1.404.878 2.6v6.265M72.857 32.828c.189-.015.378.016.553.09.174.075.33.19.452.338.224.301.353.665.37 1.043.012.171.022.382.022.631v1.553c0 .264 0 .484-.022.673-.07 1.129-.448 2.016-1.132 2.661-.684.645-1.646 1.024-2.885 1.137a12.01 12.01 0 0 1-2.073 0c-1.225-.14-2.155-.562-2.79-1.265-.633-.704-.994-1.723-1.077-3.058-.03-.37-.042-.794-.042-1.268s.012-.9.042-1.27c.07-1.335.47-2.376 1.203-3.12.733-.746 1.77-1.133 3.11-1.162a72.848 72.848 0 0 1 1.67-.022c.484 0 .949.014 1.394.041.502.034 1.006.01 1.502-.072.373-.059.736-.17 1.078-.33v1.464c.007.175-.028.35-.102.507a1.076 1.076 0 0 1-.32.4c-.313.23-.693.346-1.078.33h-3.68a2.69 2.69 0 0 0-1.609.483c-.448.33-.707.932-.76 1.813-.027.31-.042.66-.042 1.045 0 .384.015.725.043 1.042.042.682.22 1.193.528 1.524.334.347.775.562 1.248.608.112.019.224.03.338.034h.971c.114-.003.228-.015.34-.034 1.071-.17 1.649-.801 1.734-1.895.014-.142.021-.312.021-.513v-1.21c0-.195 0-.367-.021-.51a6.699 6.699 0 0 0-.127-.8 1.853 1.853 0 0 0-.472-.886h1.606M78.38 29.942l.624-.054c.236-.021.472-.038.708-.055l.708-.032h.604c1.366 0 2.377.334 3.033 1.002.656.668 1.026 1.627 1.109 2.879.014.21.026.484.033.83.007.346 0 .696 0 1.064v1.067c0 .341-.019.617-.033.83a3.645 3.645 0 0 1-.326 1.42 3.564 3.564 0 0 1-.853 1.168c-.713.634-1.71.951-2.991.951-.298 0-.64 0-1.024-.034-.385-.034-.781-.053-1.18-.094a17.217 17.217 0 0 1-1.142-.16 9.696 9.696 0 0 1-.943-.203 1.317 1.317 0 0 1-.495-.257.839.839 0 0 1-.236-.701V27.709c0-.293.025-.585.075-.874.044-.265.124-.523.236-.767.092-.212.233-.399.41-.544a.953.953 0 0 1 .614-.203h1.587c-.15.236-.265.495-.34.767a4.853 4.853 0 0 0-.17 1.427v2.42m0 8.481c.157.03.348.056.572.083.224.026.472.055.707.075.236.019.489.04.73.055.24.015.457.02.653.02.608 0 1.033-.16 1.278-.484.261-.353.406-.782.413-1.224.07-1.03.07-2.063 0-3.092a2.14 2.14 0 0 0-.432-1.258c-.261-.325-.75-.484-1.47-.508a9.704 9.704 0 0 0-1.195.031c-.43.034-.847.08-1.258.136l.003 6.166zM89.379 27.043a.987.987 0 0 1-.276.714.987.987 0 0 1-.74.288h-1.397v-1.728c0-.68.328-1.02.974-1.02h1.439v1.746zm0 2.345v10.378c.033.341-.05.683-.236.968-.156.184-.472.278-.93.278h-1.25V30.37a.935.935 0 0 1 .263-.725.886.886 0 0 1 .712-.258h1.44zM93.59 25.328v12.404c-.012.26.063.515.212.725a.739.739 0 0 0 .632.276h.17c.321.003.642-.012.962-.043.282-.025.558-.097.817-.213.054-.027.082-.012.082.046v1.105c.01.204-.033.408-.124.59a1.151 1.151 0 0 1-.395.446c-.396.247-.855.37-1.319.35h-.57a3.037 3.037 0 0 1-1.345-.266 2.32 2.32 0 0 1-.866-.713 2.794 2.794 0 0 1-.471-1.024 5.103 5.103 0 0 1-.137-1.192V26.317a1.009 1.009 0 0 1 .271-.725.943.943 0 0 1 .708-.288h1.373M101.523 38.721c.372.03.746.04 1.12.032.422 0 .797-.017 1.123-.032.243-.002.486-.02.726-.053.276-.036.545-.075.817-.116.271-.041.514-.097.74-.16.182-.048.359-.117.526-.203.057-.03.085-.015.085.041v1.173a1.071 1.071 0 0 1-.316.799c-.268.238-.587.41-.932.5a4.81 4.81 0 0 1-.792.172 12.33 12.33 0 0 1-.963.095c-.339.019-.686.033-1.047.033h-1.024c-1.198 0-2.17-.345-2.918-1.035-.745-.69-1.141-1.65-1.18-2.889a35.415 35.415 0 0 1 0-3.515c.007-.514.117-1.02.324-1.489.208-.467.508-.886.882-1.228.763-.701 1.912-1.053 3.447-1.054h.762c.54-.002 1.077.08 1.594.241.471.143.915.366 1.314.659a3.042 3.042 0 0 1 1.194 2.453v.873c0 .937-.283 1.623-.847 2.059-.565.435-1.445.651-2.642.648h-3.68v.36c.002.181.026.361.073.535.053.187.143.361.264.51.145.17.321.31.519.407.263.121.547.186.835.191m3.131-5.455c0-.18-.046-.358-.136-.513a.98.98 0 0 0-.372-.37 2.348 2.348 0 0 0-1.311-.332h-.708a3.763 3.763 0 0 0-1.099.138 2.04 2.04 0 0 0-.708.363c-.16.13-.29.296-.38.484a1.384 1.384 0 0 0-.115.544v.876h3.637c.283.004.566-.018.845-.065a.399.399 0 0 0 .264-.163.423.423 0 0 0 .076-.306l.007-.656z" fill="#EC2227"/>
    </g>
    <defs>
        <radialGradient id="psdf181enf" cx="0" cy="0" r="1" gradientUnits="userSpaceOnUse" gradientTransform="matrix(5.22917 0 0 5.31329 .669 34.11)">
            <stop stop-color="#fff"/>
            <stop offset="1" stop-color="#231F20"/>
        </radialGradient>
        <radialGradient id="5xl8zhkilg" cx="0" cy="0" r="1" gradientUnits="userSpaceOnUse" gradientTransform="matrix(2.67441 0 0 2.74283 3.75 40.842)">
            <stop stop-color="#fff"/>
            <stop offset="1" stop-color="#231F20"/>
        </radialGradient>
        <radialGradient id="9zx2o9geph" cx="0" cy="0" r="1" gradientUnits="userSpaceOnUse" gradientTransform="matrix(3.96591 0 0 4.06738 15.875 21.99)">
            <stop stop-color="#fff"/>
            <stop offset="1" stop-color="#231F20"/>
        </radialGradient>
        <radialGradient id="w2sx46cebi" cx="0" cy="0" r="1" gradientUnits="userSpaceOnUse" gradientTransform="matrix(3.89883 0 0 3.96154 15.778 32.459)">
            <stop stop-color="#fff"/>
            <stop offset="1" stop-color="#231F20"/>
        </radialGradient>
        <radialGradient id="r3sxmyswuj" cx="0" cy="0" r="1" gradientUnits="userSpaceOnUse" gradientTransform="matrix(1.9461 0 0 1.99589 20.336 38.223)">
            <stop stop-color="#fff"/>
            <stop offset="1" stop-color="#231F20"/>
        </radialGradient>
        <radialGradient id="b4yckj6s8k" cx="0" cy="0" r="1" gradientUnits="userSpaceOnUse" gradientTransform="matrix(3.58259 0 0 3.67424 18.623 40.893)">
            <stop stop-color="#fff"/>
            <stop offset="1" stop-color="#231F20"/>
        </radialGradient>
        <radialGradient id="t6nya4j9cm" cx="0" cy="0" r="1" gradientUnits="userSpaceOnUse" gradientTransform="matrix(1.8252 0 0 1.8719 8.589 31.824)">
            <stop stop-color="#fff"/>
            <stop offset="1" stop-color="#231F20"/>
        </radialGradient>
        <radialGradient id="j3wxebowao" cx="0" cy="0" r="1" gradientUnits="userSpaceOnUse" gradientTransform="matrix(2.42673 0 0 2.48881 10.063 41.05)">
            <stop stop-color="#fff"/>
            <stop offset="1" stop-color="#231F20"/>
        </radialGradient>
        <radialGradient id="2rnn6urtxp" cx="0" cy="0" r="1" gradientUnits="userSpaceOnUse" gradientTransform="matrix(-2.6921 0 0 -2.76098 -3.742 17.438)">
            <stop stop-color="#fff"/>
            <stop offset="1" stop-color="#231F20"/>
        </radialGradient>
        <radialGradient id="0t16sn87rs" cx="0" cy="0" r="1" gradientUnits="userSpaceOnUse" gradientTransform="matrix(18.5086 0 0 18.9821 5.502 30.124)">
            <stop stop-color="#010101"/>
            <stop offset=".24" stop-color="#fff"/>
            <stop offset=".76" stop-color="#fff"/>
            <stop offset=".78" stop-color="#FAFAFA"/>
            <stop offset=".81" stop-color="#ECECEC"/>
            <stop offset=".85" stop-color="#D4D4D4"/>
            <stop offset=".88" stop-color="#B3B3B3"/>
            <stop offset=".91" stop-color="#898989"/>
            <stop offset=".95" stop-color="#555"/>
            <stop offset=".99" stop-color="#191919"/>
            <stop offset="1" stop-color="#010101"/>
        </radialGradient>
        <linearGradient id="mc5vl63ykb" x1="7.013" y1="46.627" x2="7.013" y2="15.929" gradientUnits="userSpaceOnUse">
            <stop stop-color="#414142"/>
            <stop offset="1" stop-color="#272B2C"/>
        </linearGradient>
        <linearGradient id="2yynf6ohdc" x1="6.798" y1="17.061" x2="6.798" y2="44.98" gradientUnits="userSpaceOnUse">
            <stop stop-color="#333"/>
            <stop offset="1"/>
        </linearGradient>
        <linearGradient id="y7k7i39cbd" x1="19.178" y1="41.331" x2="19.178" y2="20.927" gradientUnits="userSpaceOnUse">
            <stop stop-color="#414142"/>
            <stop offset="1" stop-color="#272B2C"/>
        </linearGradient>
        <linearGradient id="9d1y7ku26e" x1="19.178" y1="21.37" x2="19.178" y2="40.264" gradientUnits="userSpaceOnUse">
            <stop stop-color="#333"/>
            <stop offset="1"/>
        </linearGradient>
        <linearGradient id="yya9yqkwnl" x1="17.145" y1="30.759" x2="17.145" y2="29.934" gradientUnits="userSpaceOnUse">
            <stop stop-color="#fff"/>
            <stop offset="1" stop-color="#231F20"/>
        </linearGradient>
        <linearGradient id="1tdzmkungn" x1="8.138" y1="30.868" x2="8.138" y2="28.851" gradientUnits="userSpaceOnUse">
            <stop stop-color="#fff"/>
            <stop offset=".53" stop-color="#231F20"/>
            <stop offset="1" stop-color="#fff"/>
        </linearGradient>
        <linearGradient id="08flfznlvq" x1="23.771" y1="25.749" x2="4.442" y2="30.682" gradientUnits="userSpaceOnUse">
            <stop stop-color="#CF2128"/>
            <stop offset=".48" stop-color="#A11E21"/>
            <stop offset=".59" stop-color="#A41E22"/>
            <stop offset=".68" stop-color="#AF1F23"/>
            <stop offset=".77" stop-color="#C02026"/>
            <stop offset=".83" stop-color="#CF2128"/>
            <stop offset=".93" stop-color="#9A1C1F"/>
            <stop offset=".95" stop-color="#971C1F"/>
            <stop offset=".96" stop-color="#8E1B1D"/>
            <stop offset=".97" stop-color="#7E191B"/>
            <stop offset=".98" stop-color="#681719"/>
            <stop offset=".99" stop-color="#4B1415"/>
            <stop offset="1" stop-color="#331212"/>
        </linearGradient>
        <linearGradient id="svc7elyqer" x1="9.825" y1="23.893" x2="20.22" y2="32.397" gradientUnits="userSpaceOnUse">
            <stop stop-color="#B92025"/>
            <stop offset=".02" stop-color="#D72027"/>
            <stop offset=".03" stop-color="#DD3131"/>
            <stop offset=".07" stop-color="#E95544"/>
            <stop offset=".09" stop-color="#F06B51"/>
            <stop offset=".11" stop-color="#F37355"/>
            <stop offset=".28" stop-color="#F05041"/>
            <stop offset=".48" stop-color="#ED2227"/>
            <stop offset=".71" stop-color="#ED2227"/>
            <stop offset="1" stop-color="#D72027"/>
        </linearGradient>
        <clipPath id="tads5y5b1a">
            <path fill="#fff" transform="translate(0 21)" d="M0 0h107v20H0z"/>
        </clipPath>
    </defs>
</svg>
