<svg width="190" height="50" viewBox="0 0 190 50" fill="none" xmlns="http://www.w3.org/2000/svg">
    <g clip-path="url(#4ki9c21yua)">
        <path d="M39.019 36.059a.266.266 0 0 0 .267.173c.072 0 .113-.092.113-.245V27.82a4.254 4.254 0 0 1 .339-1.817 1.135 1.135 0 0 1 1.1-.725h1.654c-.072.122-.133.245-.195.367a2.53 2.53 0 0 0-.175.48 4.855 4.855 0 0 0-.123.684c-.018.32-.018.64 0 .96v11.577c.01.373-.117.737-.36 1.021a1.45 1.45 0 0 1-1.14.388h-1.706l-5.827-10.781c-.082-.153-.164-.204-.277-.153-.114.05-.083.122-.083.286v9.515a1.015 1.015 0 0 1-.28.824 1.03 1.03 0 0 1-.82.309H30.09v-14.1a1.544 1.544 0 0 1 .318-1.02 1.027 1.027 0 0 1 .894-.378h2.055L39.02 36.06zM48.442 38.621H50.816a5.54 5.54 0 0 0 .77-.061c.295 0 .583-.04.864-.123.266-.04.53-.095.79-.163.194-.05.38-.121.556-.214h.092v1.225a1.095 1.095 0 0 1-.339.837c-.294.258-.647.44-1.027.53-.276.083-.558.14-.843.174-.319 0-.658.082-1.028.102-.37.02-.73 0-1.11 0h-1.089a4.395 4.395 0 0 1-3.083-1.082 4.08 4.08 0 0 1-1.253-3.063c0-.55-.052-1.163-.052-1.847 0-.684 0-1.287.052-1.828a3.888 3.888 0 0 1 1.274-2.848 5.286 5.286 0 0 1 3.658-1.103h.812c.57-.003 1.14.08 1.685.245.503.15.975.385 1.398.694.388.294.704.67.925 1.103.23.452.346.953.339 1.46v.909a2.497 2.497 0 0 1-.904 2.154 4.597 4.597 0 0 1-2.796.674h-3.905v.387a1.8 1.8 0 0 0 .083.552c.052.198.147.382.277.54.15.177.335.32.545.42.282.177.602.29.935.326zm3.32-5.707a1.017 1.017 0 0 0-.546-.929 2.581 2.581 0 0 0-1.387-.347h-.74a3.763 3.763 0 0 0-1.161.153 2.06 2.06 0 0 0-.76.378c-.174.135-.312.31-.401.51-.08.177-.122.368-.123.562v.919h3.863c.3.003.599-.017.894-.061a.442.442 0 0 0 .36-.49v-.695zM62.972 34.915l4.029 5.84H64l-2.846-4.084c-.072-.092-.144-.092-.227 0l-2.055 3.308c-.14.256-.346.47-.596.623a1.767 1.767 0 0 1-.791.173H55.43l3.843-5.819-3.494-4.757a.733.733 0 0 1-.164-.582c.051-.204.236-.317.565-.317h1.973l2.785 3.972c.061.092.113.092.174 0l2.056-3.124c.162-.23.36-.433.585-.603.275-.177.599-.263.925-.245h2.405c-.193.14-.378.29-.555.45a6.61 6.61 0 0 0-.863 1.04l-.473.675-2.22 3.45zM73.33 34.63c-.338 0-.708-.052-1.099-.062-.39-.01-.75 0-1.1-.05v5.175c0 .271-.108.53-.3.722a1.031 1.031 0 0 1-.727.3h-1.531v-15.04a26.883 26.883 0 0 1 5.292-.652c.62-.001 1.24.057 1.85.173.56.1 1.1.286 1.603.551.472.252.885.6 1.213 1.021.347.464.58 1.003.678 1.572.078.418.116.842.113 1.266 0 .423-.025.846-.072 1.266a4.38 4.38 0 0 1-.452 1.573 3.824 3.824 0 0 1-1.737 1.644 10.8 10.8 0 0 1-.884.357c.627 1.02 1.285 2.041 1.963 3.165.678 1.123 1.316 2.154 1.89 3.113h-2.054a1.374 1.374 0 0 1-.72-.183 1.527 1.527 0 0 1-.513-.51l-3.412-5.402zm3.279-5.554a1.73 1.73 0 0 0-.73-1.144 3.523 3.523 0 0 0-2.055-.46c-.431 0-.904 0-1.418.072-.514.072-.945.092-1.274.133v4.318c.565.08 1.135.128 1.706.143h1.664a2.54 2.54 0 0 0 1.398-.408 1.64 1.64 0 0 0 .688-1.113c.043-.27.064-.543.062-.817a5.321 5.321 0 0 0-.041-.724z" fill="#E60013"/>
        <path d="M11.592 37.488 7.769 32.73l5.6-6.85h-3.082a3.793 3.793 0 0 0-1.74.313 3.768 3.768 0 0 0-1.405 1.065l-2.96 3.614V20.96h-2.96a1.268 1.268 0 0 0-.886.372 1.251 1.251 0 0 0-.367.884v18.489h2.96a1.261 1.261 0 0 0 .89-.368 1.244 1.244 0 0 0 .363-.888v-4.88l2.405 2.93L8.642 40a1.93 1.93 0 0 0 1.51.745h4.111l-2.671-3.257z" fill="url(#z9oenmhaeb)"/>
        <path d="M13.256 40.132c-.236-.265-1.192-1.51-2.384-2.91-1.572-1.858-3.185-3.97-3.586-4.44l5.138-6.249.216-.245h-2.487a3.72 3.72 0 0 0-2.662 1.205l-3.524 4.308a.062.062 0 0 1-.052 0 .082.082 0 0 1-.072-.071V21.378h-2.59a.89.89 0 0 0-.819.549.873.873 0 0 0-.064.339v18.111h2.59a.888.888 0 0 0 .819-.549.874.874 0 0 0 .064-.339v-5.86a.072.072 0 0 1 .072-.061h.052l2.97 3.644 2.055 2.522a1.734 1.734 0 0 0 1.243.633h3.247l-.226-.235z" fill="url(#nudm7etn7c)"/>
        <path d="M19.227 40.745a3.7 3.7 0 0 1-2.787-1.062 3.653 3.653 0 0 1-1.077-2.767v-14.66a1.249 1.249 0 0 1 .37-.888 1.264 1.264 0 0 1 .894-.368h2.96v15.13c.002.299.124.585.337.795.214.21.502.328.803.328h3.011v2.236a1.25 1.25 0 0 1-.78 1.16 1.271 1.271 0 0 1-.484.096h-3.247z" fill="url(#ezskh5ymxd)"/>
        <path d="M19.227 40.377a3.328 3.328 0 0 1-2.526-.954 3.285 3.285 0 0 1-.968-2.507v-14.66c0-.236.094-.462.262-.628a.897.897 0 0 1 .632-.26h2.6V36.13c0 .395.158.775.44 1.054.28.28.662.437 1.06.437h2.641v1.868a.886.886 0 0 1-.262.628.897.897 0 0 1-.632.26h-3.247z" fill="url(#zvrov1wq3e)"/>
        <path style="mix-blend-mode:screen" opacity=".5" d="M.422 27.411H.37v12.946h.052V27.41z" fill="url(#q61lnevx4f)"/>
        <path style="mix-blend-mode:screen" opacity=".25" d="M.688 40.377h2.313a.896.896 0 0 0 .613-.292.885.885 0 0 0 .23-.637V33.68v5.768a.865.865 0 0 1-.227.596.876.876 0 0 1-.575.282H.73l-.042.051z" fill="url(#ajzpnmg39g)"/>
        <path style="mix-blend-mode:screen" opacity=".25" d="M15.784 27.31v-5.105a.855.855 0 0 1 .792-.776h2.59l.06-.051h-2.65a.907.907 0 0 0-.577.257.896.896 0 0 0-.266.57v5.104h.051z" fill="url(#hnn2n6wzih)"/>
        <path style="mix-blend-mode:screen" opacity=".25" d="M15.784 36.998V27.35h-.082v9.648h.082z" fill="url(#k651d4kb5i)"/>
        <path style="mix-blend-mode:screen" opacity=".5" d="M19.165 35.957c-.004.178.013.356.052.53.068.314.238.597.483.807.327.262.74.397 1.16.378h2.498-2.518a1.55 1.55 0 0 1-1.243-.531 1.436 1.436 0 0 1-.319-.623 2.83 2.83 0 0 1 0-.52l-.113-.041z" fill="url(#s7lzlcbc0j)"/>
        <path style="mix-blend-mode:screen" opacity=".25" d="M22.433 40.326h-3.258a3.214 3.214 0 0 1-2.431-.918 3.172 3.172 0 0 1-.94-2.41h-.05a3.208 3.208 0 0 0 .954 2.446 3.252 3.252 0 0 0 2.467.933h3.258v-.05z" fill="url(#qkqszkqndk)"/>
        <path style="mix-blend-mode:multiply" d="M15.702 30.689h3.494v-2.216h-3.494v2.216z" fill="url(#u619mg5j1l)"/>
        <path style="mix-blend-mode:screen" opacity=".25" d="m7.255 32.782 5.2-6.34h-.072l-5.138 6.32.01.02z" fill="url(#ccs473k42m)"/>
        <path style="mix-blend-mode:multiply" d="M10.132 26.258a3.636 3.636 0 0 0-2.59 1.174L4.04 31.72l3.257 1.02 5.261-6.431c-.637.02-2.425-.051-2.425-.051z" fill="url(#q6xkcuy9xn)"/>
        <path style="mix-blend-mode:screen" opacity=".25" d="M9.064 39.795a1.642 1.642 0 0 0 1.171.582h2.847v-.05h-2.806a1.875 1.875 0 0 1-1.171-.532h-.041z" fill="url(#6wtpac43go)"/>
        <path style="mix-blend-mode:screen" opacity=".25" d="M3.535 21.378H1.223a.89.89 0 0 0-.8.577.872.872 0 0 0-.053.342v5.9h.052v-5.9a.854.854 0 0 1 .227-.593.865.865 0 0 1 .574-.275h2.312v-.051z" fill="url(#7zwidjy3wp)"/>
        <path d="M21.005 26.41H9.947a3.856 3.856 0 0 0-1.759.31 3.832 3.832 0 0 0-1.426 1.07l-2.138 2.623a4.903 4.903 0 0 1 2.94-.94h13.44c1.706 0 3.35-.51 3.35-1.847.012-.684-.04-1.367-.154-2.042 0 0-.801.827-3.195.827z" fill="url(#ssv360c80q)"/>
        <path d="m4.655 30.372 2.477-3.063c.355-.472.822-.85 1.36-1.1a3.617 3.617 0 0 1 1.723-.329h10.77a4.503 4.503 0 0 0 3.082-.806l.257-.276v2.828a1.108 1.108 0 0 1-.34.806 4.05 4.05 0 0 1-3 .848H7.533a4.56 4.56 0 0 0-2.878 1.092z" fill="url(#ucq7hzfaar)"/>
        <path style="mix-blend-mode:screen" opacity=".7" d="M24.324 27.759c0 .265-.37 1.45-3.32 1.45H7.749a4.31 4.31 0 0 0-3.082 1.143 4.54 4.54 0 0 1 3.082-1.113h13.257c3.33 0 3.319-1.5 3.319-1.5v.02z" fill="url(#bsjwfrdkms)"/>
    </g>
    <defs>
        <radialGradient id="q61lnevx4f" cx="0" cy="0" r="1" gradientUnits="userSpaceOnUse" gradientTransform="matrix(5.2927 0 0 5.23328 .435 33.535)">
            <stop stop-color="#fff"/>
            <stop offset="1" stop-color="#231916"/>
        </radialGradient>
        <radialGradient id="ajzpnmg39g" cx="0" cy="0" r="1" gradientUnits="userSpaceOnUse" gradientTransform="matrix(2.71741 0 0 2.69974 3.568 40.166)">
            <stop stop-color="#fff"/>
            <stop offset="1" stop-color="#231916"/>
        </radialGradient>
        <radialGradient id="hnn2n6wzih" cx="0" cy="0" r="1" gradientUnits="userSpaceOnUse" gradientTransform="matrix(4.03318 0 0 4.00694 15.898 21.59)">
            <stop stop-color="#fff"/>
            <stop offset="1" stop-color="#231916"/>
        </radialGradient>
        <radialGradient id="k651d4kb5i" cx="0" cy="0" r="1" gradientUnits="userSpaceOnUse" gradientTransform="matrix(3.92402 0 0 3.89912 15.799 31.91)">
            <stop stop-color="#fff"/>
            <stop offset="1" stop-color="#231916"/>
        </radialGradient>
        <radialGradient id="s7lzlcbc0j" cx="0" cy="0" r="1" gradientUnits="userSpaceOnUse" gradientTransform="matrix(1.98043 0 0 1.96753 20.438 37.587)">
            <stop stop-color="#fff"/>
            <stop offset="1" stop-color="#231916"/>
        </radialGradient>
        <radialGradient id="qkqszkqndk" cx="0" cy="0" r="1" gradientUnits="userSpaceOnUse" gradientTransform="matrix(3.64434 0 0 3.62062 18.697 40.215)">
            <stop stop-color="#fff"/>
            <stop offset="1" stop-color="#231916"/>
        </radialGradient>
        <radialGradient id="ccs473k42m" cx="0" cy="0" r="1" gradientUnits="userSpaceOnUse" gradientTransform="matrix(1.85382 0 0 1.84175 8.492 31.285)">
            <stop stop-color="#fff"/>
            <stop offset="1" stop-color="#231916"/>
        </radialGradient>
        <radialGradient id="6wtpac43go" cx="0" cy="0" r="1" gradientUnits="userSpaceOnUse" gradientTransform="matrix(2.46875 0 0 2.45258 9.989 40.377)">
            <stop stop-color="#fff"/>
            <stop offset="1" stop-color="#231916"/>
        </radialGradient>
        <radialGradient id="7zwidjy3wp" cx="0" cy="0" r="1" gradientUnits="userSpaceOnUse" gradientTransform="matrix(-2.73553 0 0 -2.71771 .654 21.588)">
            <stop stop-color="#fff"/>
            <stop offset="1" stop-color="#231916"/>
        </radialGradient>
        <radialGradient id="bsjwfrdkms" cx="0" cy="0" r="1" gradientUnits="userSpaceOnUse" gradientTransform="matrix(18.8231 0 0 18.7008 5.35 29.61)">
            <stop stop-color="#070000"/>
            <stop offset=".24" stop-color="#fff"/>
            <stop offset=".76" stop-color="#fff"/>
            <stop offset=".78" stop-color="#FAFAFA"/>
            <stop offset=".81" stop-color="#ECECEC"/>
            <stop offset=".85" stop-color="#D6D4D4"/>
            <stop offset=".88" stop-color="#B5B3B3"/>
            <stop offset=".91" stop-color="#8C8989"/>
            <stop offset=".95" stop-color="#5A5555"/>
            <stop offset=".99" stop-color="#1F1919"/>
            <stop offset="1" stop-color="#070000"/>
        </radialGradient>
        <linearGradient id="z9oenmhaeb" x1="7.152" y1="46.309" x2="7.152" y2="15.998" gradientUnits="userSpaceOnUse">
            <stop stop-color="#444242"/>
            <stop offset="1" stop-color="#272A2B"/>
        </linearGradient>
        <linearGradient id="nudm7etn7c" x1="6.926" y1="17.11" x2="6.926" y2="44.685" gradientUnits="userSpaceOnUse">
            <stop stop-color="#333"/>
            <stop offset="1"/>
        </linearGradient>
        <linearGradient id="ezskh5ymxd" x1="19.556" y1="41.082" x2="19.556" y2="20.928" gradientUnits="userSpaceOnUse">
            <stop stop-color="#444242"/>
            <stop offset="1" stop-color="#272A2B"/>
        </linearGradient>
        <linearGradient id="zvrov1wq3e" x1="19.556" y1="21.368" x2="19.556" y2="40.03" gradientUnits="userSpaceOnUse">
            <stop stop-color="#333"/>
            <stop offset="1"/>
        </linearGradient>
        <linearGradient id="u619mg5j1l" x1="17.48" y1="30.648" x2="17.48" y2="29.831" gradientUnits="userSpaceOnUse">
            <stop stop-color="#fff"/>
            <stop offset="1" stop-color="#251D1E"/>
        </linearGradient>
        <linearGradient id="q6xkcuy9xn" x1="8.293" y1="30.75" x2="8.293" y2="28.759" gradientUnits="userSpaceOnUse">
            <stop stop-color="#fff"/>
            <stop offset=".53" stop-color="#251D1E"/>
            <stop offset="1" stop-color="#fff"/>
        </linearGradient>
        <linearGradient id="ssv360c80q" x1="24.231" y1="25.686" x2="4.61" y2="30.864" gradientUnits="userSpaceOnUse">
            <stop stop-color="#D1101A"/>
            <stop offset=".48" stop-color="#A91219"/>
            <stop offset=".6" stop-color="#AC1219"/>
            <stop offset=".7" stop-color="#B71119"/>
            <stop offset=".79" stop-color="#C8101A"/>
            <stop offset=".83" stop-color="#D1101A"/>
            <stop offset=".93" stop-color="#A21017"/>
            <stop offset=".95" stop-color="#9F1017"/>
            <stop offset=".96" stop-color="#961016"/>
            <stop offset=".97" stop-color="#861015"/>
            <stop offset=".98" stop-color="#701013"/>
            <stop offset=".99" stop-color="#530F10"/>
            <stop offset="1" stop-color="#370F0E"/>
        </linearGradient>
        <linearGradient id="ucq7hzfaar" x1="10.019" y1="23.859" x2="20.342" y2="32.583" gradientUnits="userSpaceOnUse">
            <stop stop-color="#BE131A"/>
            <stop offset=".02" stop-color="#D70D18"/>
            <stop offset=".04" stop-color="#DE2E29"/>
            <stop offset=".07" stop-color="#E6523A"/>
            <stop offset=".1" stop-color="#EB6845"/>
            <stop offset=".11" stop-color="#ED7049"/>
            <stop offset=".25" stop-color="#EB4D38"/>
            <stop offset=".48" stop-color="#E60C17"/>
            <stop offset=".71" stop-color="#E60C17"/>
            <stop offset="1" stop-color="#D70D18"/>
        </linearGradient>
        <clipPath id="4ki9c21yua">
            <path fill="#fff" transform="translate(0 21)" d="M0 0h80v20H0z"/>
        </clipPath>
    </defs>
</svg>
