<svg width="190" height="50" viewBox="0 0 190 50" fill="none" xmlns="http://www.w3.org/2000/svg">
    <g clip-path="url(#bje9hzkgha)">
        <path d="M34.617 39.237c1.065.018 2.14.018 3.208 0 .34-.005.677-.068.997-.185a.67.67 0 0 0 .417-.704.797.797 0 0 0-.184-.524c-.188-.19-.42-.33-.673-.41l-3.66-1.31c-.895-.345-1.527-.775-1.889-1.288a3.138 3.138 0 0 1-.545-1.85c-.023-.447.06-.895.241-1.304.181-.41.457-.77.803-1.051.694-.56 1.659-.855 2.895-.884.37-.015.77-.02 1.193-.02.422 0 .822 0 1.195.02.53.034 1.06.015 1.586-.056a3.65 3.65 0 0 0 1.166-.365v1.499c.007.243-.066.48-.207.677-.155.2-.355.36-.583.469a2.817 2.817 0 0 1-.822.27 4.57 4.57 0 0 1-.974.06 29.756 29.756 0 0 0-1.297-.027c-.464 0-.895 0-1.298.027a2.084 2.084 0 0 0-.927.185.665.665 0 0 0-.298.472.676.676 0 0 0 .16.535c.197.151.415.27.648.35l3.569 1.288a4.804 4.804 0 0 1 1.828 1.158 2.818 2.818 0 0 1 .72 2.117 3.145 3.145 0 0 1-.358 1.57c-.238.417-.572.77-.974 1.028-.441.278-.928.472-1.438.574a8.313 8.313 0 0 1-1.749.174h-2.709a3.593 3.593 0 0 1-1.102-.138 1.683 1.683 0 0 1-.67-.386 1.216 1.216 0 0 1-.324-.54 2.253 2.253 0 0 1-.082-.62v-1.023c0-.094.047-.123.14-.094.29.096.59.163.893.2.405.056.763.092 1.105.106zM46.642 29.715v7.952c-.001.216.014.432.046.645.026.202.101.395.219.56.131.177.307.314.51.398.291.115.603.167.916.153h.682c.271 0 .548-.024.834-.047.285-.024.583-.05.857-.083.274-.032.545-.07.775-.115v-8.364c-.024-.295.046-.59.199-.843a.977.977 0 0 1 .799-.256h1.644v10.927a.939.939 0 0 1-.07.374.611.611 0 0 1-.37.295 6.767 6.767 0 0 1-1.1.294c-.44.086-.915.156-1.425.21-.51.052-1.018.097-1.528.129s-.983.047-1.414.047a5.11 5.11 0 0 1-1.98-.339c-.496-.199-.94-.511-1.297-.913a3.392 3.392 0 0 1-.709-1.322 5.892 5.892 0 0 1-.207-1.567v-7.036c0-.454.085-.748.254-.884a1.36 1.36 0 0 1 .857-.209l1.508-.006zM58.803 29.854l.682-.06c.257-.023.513-.04.779-.058.265-.018.518-.027.775-.033.257-.006.475 0 .659 0 1.499 0 2.608.367 3.327 1.099.719.732 1.124 1.786 1.216 3.16.013.232.025.535.035.91v2.357c0 .383-.02.677-.035.913a3.995 3.995 0 0 1-1.286 2.842c-.778.695-1.871 1.042-3.28 1.042-.324 0-.697 0-1.123-.035-.425-.035-.854-.059-1.286-.106a21.329 21.329 0 0 1-1.25-.174c-.4-.067-.75-.144-1.044-.224a1.47 1.47 0 0 1-.543-.294.935.935 0 0 1-.268-.772V27.397c0-.322.028-.643.082-.96.049-.29.134-.574.253-.842.105-.229.26-.43.452-.59.193-.149.431-.227.674-.22h1.75c-.166.26-.29.544-.371.842a5.285 5.285 0 0 0-.187 1.567l-.011 2.66zm0 9.316c.169.029.379.061.627.09a24.361 24.361 0 0 0 1.574.142c.263.015.502.024.717.024.665 0 1.133-.176 1.403-.527a2.39 2.39 0 0 0 .452-1.346c.075-1.13.075-2.264 0-3.393-.01-.5-.176-.984-.476-1.382-.291-.356-.822-.545-1.609-.56a10.553 10.553 0 0 0-1.31.036c-.471.038-.93.088-1.378.15v6.765zM83.265 40.339c.03.373-.05.747-.23 1.075-.155.22-.487.327-.998.327h-1.414v-8.312a1.216 1.216 0 0 0-.265-.883 1.226 1.226 0 0 0-.805-.295c-.409-.031-.82-.02-1.227.035-.45.053-.857.121-1.228.198.08.24.12.494.117.748v7.116c.031.375-.055.75-.245 1.075-.16.22-.498.327-1.006.327H74.55l.023-8.306c0-.483-.13-.816-.393-.996a1.649 1.649 0 0 0-1.02-.244c-.31.015-.648.047-1.021.094-.373.047-.709.091-1.018.139v7.887c.029.378-.052.755-.233 1.087-.154.227-.484.339-.994.339h-1.42V30.463c.341-.094.723-.182 1.146-.27.422-.09.848-.163 1.274-.233.425-.071.828-.13 1.204-.177.311-.042.625-.064.939-.068.499-.034 1-.015 1.496.056.429.068.846.198 1.239.386.23-.062.51-.12.834-.174.323-.053.664-.103 1.017-.141.353-.038.717-.07 1.079-.095.362-.023.682-.032.962-.032 1.11 0 1.985.295 2.624.884.64.589.96 1.541.96 2.857l.017 6.883zM92.464 29.83c1.125.155 1.944.576 2.455 1.264a4.32 4.32 0 0 1 .764 2.65v6.74c0 .42-.105.688-.312.797a2.634 2.634 0 0 1-.615.233c-.277.062-.607.127-.983.188a24.058 24.058 0 0 1-3.834.303 7.76 7.76 0 0 1-1.89-.211 3.73 3.73 0 0 1-1.437-.678 2.944 2.944 0 0 1-.9-1.251 5.21 5.21 0 0 1-.316-1.933 5.43 5.43 0 0 1 .292-1.929c.166-.469.46-.882.845-1.193a3.223 3.223 0 0 1 1.377-.589 8.813 8.813 0 0 1 1.889-.14c.493.017 1.038.046 1.633.093.594.047 1.131.11 1.61.189v-.61a2.078 2.078 0 0 0-.06-.504 1.093 1.093 0 0 0-.218-.444 1.167 1.167 0 0 0-.463-.327 2.601 2.601 0 0 0-.764-.174 7.96 7.96 0 0 0-.904-.053c-.333 0-.67 0-1.02.035-.35.036-.692.05-1.03.08-.338.03-.641.056-.904.07a1.003 1.003 0 0 1-.822-.244 1.009 1.009 0 0 1-.312-.783v-1.382a49.856 49.856 0 0 1 2.977-.294 15.42 15.42 0 0 1 2.942.097zm-2.642 9.596h.752c.3 0 .607-.024.916-.047.31-.024.604-.05.875-.083.226-.022.45-.06.67-.115v-2.318l-.752-.106c-.291-.038-.583-.07-.875-.094a31.763 31.763 0 0 0-.857-.056 14.461 14.461 0 0 0-.764-.023 2.957 2.957 0 0 0-1.309.244c-.332.165-.498.542-.498 1.134 0 .592.122.928.37 1.149.248.22.746.315 1.472.315zM98.021 32.404a2.702 2.702 0 0 1 .72-1.988c.478-.483 1.234-.724 2.268-.724h2.053c.178 0 .365-.024.566-.047.197-.023.392-.062.583-.118.172-.05.335-.125.487-.221v1.307c.01.27-.05.537-.175.775a1.51 1.51 0 0 1-.44.489 1.597 1.597 0 0 1-.601.26c-.218.046-.439.07-.662.07h-1.481a.556.556 0 0 0-.522.209.887.887 0 0 0-.128.468v7.526c.017.341-.072.68-.254.969-.169.241-.51.362-1.02.362h-1.391l-.003-9.337zM108.771 27.138a1.07 1.07 0 0 1-.313.8 1.055 1.055 0 0 1-.798.302h-1.528v-1.897c0-.748.353-1.122 1.065-1.122h1.574v1.917zm0 2.577v10.67c.034.37-.055.74-.254 1.052-.169.204-.51.295-1.02.295h-1.365V30.778a1.09 1.09 0 0 1 .277-.783 1.044 1.044 0 0 1 .788-.295l1.574.015zM118.664 41.74v-8.016a1.927 1.927 0 0 0-.266-1.016 1.185 1.185 0 0 0-1.008-.48c-.216 0-.476-.021-.776 0-.3.02-.615.026-.939.055l-.962.095-.846.094v7.864c.029.377-.051.755-.23 1.087-.154.227-.487.338-.997.338h-1.411V30.392c.46-.094.968-.188 1.516-.28a30.314 30.314 0 0 1 3.324-.376 15.01 15.01 0 0 1 1.484-.02c1.252.029 2.193.387 2.825 1.074.649.73.991 1.688.951 2.669v6.856c.029.38-.056.758-.245 1.087-.161.227-.496.339-1.006.339h-1.414zM128 39.496c.355.03.764.042 1.227.036.464-.006.875-.02 1.228-.035.267-.003.534-.023.799-.06.291-.038.583-.082.892-.129.273-.043.543-.1.81-.174.202-.052.398-.127.583-.224.062-.032.094-.014.094.048v1.287a1.186 1.186 0 0 1-.347.883c-.294.26-.643.45-1.021.551a5.651 5.651 0 0 1-.874.185c-.333.048-.683.083-1.053.107-.37.023-.755.035-1.149.035h-1.119a4.537 4.537 0 0 1-3.208-1.134c-.816-.757-1.25-1.814-1.294-3.172-.032-.59-.047-1.22-.047-1.932 0-.713.015-1.352.047-1.93a4.106 4.106 0 0 1 1.318-2.983c.834-.772 2.092-1.157 3.776-1.157h.833a5.85 5.85 0 0 1 1.75.256 4.63 4.63 0 0 1 1.437.724 3.32 3.32 0 0 1 1.309 2.692v.943c0 1.029-.309 1.782-.927 2.259-.618.477-1.583.715-2.895.713h-4.024v.397c.001.2.029.398.082.59.058.204.157.395.292.559.157.186.35.338.568.445.285.139.596.214.913.22zm3.428-5.99a1.109 1.109 0 0 0-.559-.96 2.586 2.586 0 0 0-1.435-.363h-.767a4.135 4.135 0 0 0-1.204.15c-.281.081-.545.216-.775.398-.178.145-.321.33-.417.54a1.512 1.512 0 0 0-.129.588v.96h3.986c.311.005.621-.019.927-.07a.447.447 0 0 0 .29-.181.462.462 0 0 0 .081-.335l.002-.727z" fill="#ED1C24"/>
        <path d="m12.01 38.31-3.98-4.952 5.781-7.195h-3.157c-1.417 0-2.388.436-3.248 1.455l-3.047 3.788V21H1.3a1.293 1.293 0 0 0-.92.388 1.318 1.318 0 0 0-.38.931v19.413h3.059a1.29 1.29 0 0 0 .92-.388 1.317 1.317 0 0 0 .38-.931v-5.164l2.478 3.072 2.105 2.619a1.97 1.97 0 0 0 1.56.789h4.266l-2.759-3.42z" fill="url(#ydidrpdpkb)"/>
        <path d="M13.695 41.087c-.251-.277-1.234-1.582-2.464-3.051-1.63-1.956-3.295-4.171-3.694-4.666.638-.79 4.787-5.952 5.283-6.562l.216-.256h-2.537c-.523.01-1.038.13-1.514.35-.475.22-.9.537-1.25.931L4.1 32.343a.064.064 0 0 1-.052.023.067.067 0 0 1-.07-.07V21.397H1.3a.92.92 0 0 0-.65.275.938.938 0 0 0-.268.658v19.027h2.676a.92.92 0 0 0 .651-.277.939.939 0 0 0 .268-.66v-6.158a.069.069 0 0 1 .02-.051.067.067 0 0 1 .05-.02.06.06 0 0 1 .05.023l3.067 3.83 2.137 2.65a1.802 1.802 0 0 0 1.28.666h3.353l-.24-.274z" fill="url(#llubfz8unc)"/>
        <path d="M19.856 41.732c-2.362 0-3.986-1.64-3.986-4.02V22.317c0-.35.138-.684.382-.93a1.3 1.3 0 0 1 .921-.387h3.062v15.884c0 .313.123.612.341.833.219.221.515.345.825.345h3.114v2.356c-.001.35-.139.685-.384.931a1.3 1.3 0 0 1-.922.386l-3.353-.003z" fill="url(#ngiuf7mrvd)"/>
        <path d="M19.855 41.35c-2.148 0-3.603-1.474-3.603-3.638V22.317c0-.247.097-.485.27-.66a.92.92 0 0 1 .651-.274h2.68v15.501c0 .416.163.815.454 1.11.29.293.685.46 1.097.46h2.732v1.962a.939.939 0 0 1-.271.66.92.92 0 0 1-.654.273h-3.356z" fill="url(#kkd4y4dnge)"/>
        <path style="mix-blend-mode:screen" opacity=".5" d="M.435 27.73H.382v13.598h.053V27.73z" fill="url(#x4qz90cuzf)"/>
        <path style="mix-blend-mode:screen" opacity=".25" d="M.711 41.35H3.1a.927.927 0 0 0 .635-.308.945.945 0 0 0 .24-.668v-6.061h-.052v6.055a.91.91 0 0 1-.231.624.892.892 0 0 1-.592.295H.711v.062z" fill="url(#p2nvt39m8g)"/>
        <path style="mix-blend-mode:screen" opacity=".25" d="M16.304 27.621v-5.366a.888.888 0 0 1 .256-.561.87.87 0 0 1 .558-.255h2.68l.055-.056h-2.735a.935.935 0 0 0-.602.276.953.953 0 0 0-.273.608v5.366l.061-.012z" fill="url(#1thedvho9h)"/>
        <path style="mix-blend-mode:screen" opacity=".25" d="M16.305 37.797V27.659h-.053v10.138h.053z" fill="url(#78x0i06rxi)"/>
        <path style="mix-blend-mode:screen" opacity=".5" d="M19.783 36.704a2.46 2.46 0 0 0 .052.557c.073.328.25.623.502.842.334.28.759.425 1.192.407h2.584v-.056h-2.625a1.552 1.552 0 0 1-1.025-.31 1.58 1.58 0 0 1-.587-.904 2.524 2.524 0 0 1-.04-.541l-.053.005z" fill="url(#44pbsh1qyj)"/>
        <path style="mix-blend-mode:screen" opacity=".25" d="M23.17 41.293h-3.364c-2.064 0-3.475-1.417-3.475-3.496h-.047c0 2.109 1.437 3.552 3.53 3.552h3.365l-.008-.056z" fill="url(#unahwlwxlk)"/>
        <path style="mix-blend-mode:multiply" d="M16.252 31.132h3.6v-2.33h-3.6v2.33z" fill="url(#bn88il06hl)"/>
        <path style="mix-blend-mode:screen" opacity=".25" d="M7.499 33.373s4.828-6.002 5.365-6.662h-.079L7.45 33.353l.05.02z" fill="url(#5toxfujbqm)"/>
        <path style="mix-blend-mode:multiply" d="M10.467 26.52a3.686 3.686 0 0 0-1.46.336 3.72 3.72 0 0 0-1.21.892L4.168 32.25l3.368 1.093 5.438-6.754c-.66 0-2.508-.07-2.508-.07z" fill="url(#imbbm8f75n)"/>
        <path style="mix-blend-mode:screen" opacity=".25" d="M9.36 40.733a1.729 1.729 0 0 0 1.206.613h2.951l-.05-.053h-2.915a1.95 1.95 0 0 1-1.207-.56h.014z" fill="url(#myk6tgv7lo)"/>
        <path style="mix-blend-mode:screen" opacity=".25" d="M3.65 21.389H1.262a.927.927 0 0 0-.634.307.945.945 0 0 0-.24.668v6.185h.055v-6.185a.91.91 0 0 1 .232-.625.891.891 0 0 1 .593-.294h2.388l-.006-.056z" fill="url(#n735kob9sp)"/>
        <path d="M21.695 26.678H10.278c-1.549 0-2.569.554-3.29 1.44l-2.21 2.752a5.053 5.053 0 0 1 3.03-.975h13.887c1.75 0 3.453-.545 3.453-1.947.012-.727-.04-1.454-.158-2.17 0 0-.834.9-3.295.9z" fill="url(#keir6rh5wq)"/>
        <path d="m4.808 30.837 2.554-3.178c.63-.78 1.458-1.502 3.207-1.502h11.12c2.353 0 3.173-.845 3.181-.854l.271-.294v2.924a1.208 1.208 0 0 1-.35.846c-.536.589-1.58.883-3.102.883H7.788a4.674 4.674 0 0 0-2.98 1.175z" fill="url(#3dmi7vl9zr)"/>
        <path style="mix-blend-mode:screen" opacity=".7" d="M25.127 28.092c-.014.295-.382 1.526-3.432 1.526H7.992a4.464 4.464 0 0 0-3.181 1.196l-.023.026a4.677 4.677 0 0 1 3.207-1.178h13.703c3.438 0 3.432-1.582 3.432-1.582l-.003.012z" fill="url(#ib0oik0cus)"/>
    </g>
    <defs>
        <radialGradient id="x4qz90cuzf" cx="0" cy="0" r="1" gradientUnits="userSpaceOnUse" gradientTransform="matrix(5.54967 0 0 5.48695 .3 33.925)">
            <stop stop-color="#fff"/>
            <stop offset="1" stop-color="#231F20"/>
        </radialGradient>
        <radialGradient id="p2nvt39m8g" cx="0" cy="0" r="1" gradientUnits="userSpaceOnUse" gradientTransform="matrix(2.8031 0 0 2.83161 3.535 40.875)">
            <stop stop-color="#fff"/>
            <stop offset="1" stop-color="#231F20"/>
        </radialGradient>
        <radialGradient id="1thedvho9h" cx="0" cy="0" r="1" gradientUnits="userSpaceOnUse" gradientTransform="matrix(4.15756 0 0 4.19985 16.248 21.404)">
            <stop stop-color="#fff"/>
            <stop offset="1" stop-color="#231F20"/>
        </radialGradient>
        <radialGradient id="78x0i06rxi" cx="0" cy="0" r="1" gradientUnits="userSpaceOnUse" gradientTransform="matrix(4.1375 0 0 4.09073 16.143 32.221)">
            <stop stop-color="#fff"/>
            <stop offset="1" stop-color="#231F20"/>
        </radialGradient>
        <radialGradient id="44pbsh1qyj" cx="0" cy="0" r="1" gradientUnits="userSpaceOnUse" gradientTransform="matrix(2.04139 0 0 2.06215 20.93 38.172)">
            <stop stop-color="#fff"/>
            <stop offset="1" stop-color="#231F20"/>
        </radialGradient>
        <radialGradient id="unahwlwxlk" cx="0" cy="0" r="1" gradientUnits="userSpaceOnUse" gradientTransform="matrix(3.7587 0 0 3.79693 19.135 40.931)">
            <stop stop-color="#fff"/>
            <stop offset="1" stop-color="#231F20"/>
        </radialGradient>
        <radialGradient id="5toxfujbqm" cx="0" cy="0" r="1" gradientUnits="userSpaceOnUse" gradientTransform="matrix(1.91397 0 0 1.93344 8.609 31.564)">
            <stop stop-color="#fff"/>
            <stop offset="1" stop-color="#231F20"/>
        </radialGradient>
        <radialGradient id="myk6tgv7lo" cx="0" cy="0" r="1" gradientUnits="userSpaceOnUse" gradientTransform="matrix(2.5455 0 0 2.5714 10.155 41.094)">
            <stop stop-color="#fff"/>
            <stop offset="1" stop-color="#231F20"/>
        </radialGradient>
        <radialGradient id="n735kob9sp" cx="0" cy="0" r="1" gradientUnits="userSpaceOnUse" gradientTransform="matrix(-2.82249 0 0 -2.8512 3.301 24.067)">
            <stop stop-color="#fff"/>
            <stop offset="1" stop-color="#231F20"/>
        </radialGradient>
        <radialGradient id="ib0oik0cus" cx="0" cy="0" r="1" gradientUnits="userSpaceOnUse" gradientTransform="matrix(19.4084 0 0 19.6059 5.371 29.809)">
            <stop stop-color="#010101"/>
            <stop offset=".24" stop-color="#fff"/>
            <stop offset=".76" stop-color="#fff"/>
            <stop offset=".78" stop-color="#FAFAFA"/>
            <stop offset=".81" stop-color="#ECECEC"/>
            <stop offset=".85" stop-color="#D4D4D4"/>
            <stop offset=".88" stop-color="#B3B3B3"/>
            <stop offset=".91" stop-color="#898989"/>
            <stop offset=".95" stop-color="#555"/>
            <stop offset=".99" stop-color="#191919"/>
            <stop offset="1" stop-color="#010101"/>
        </radialGradient>
        <linearGradient id="ydidrpdpkb" x1="7.385" y1="47.581" x2="7.385" y2="15.74" gradientUnits="userSpaceOnUse">
            <stop stop-color="#414142"/>
            <stop offset="1" stop-color="#272B2C"/>
        </linearGradient>
        <linearGradient id="llubfz8unc" x1="7.158" y1="16.915" x2="7.158" y2="45.873" gradientUnits="userSpaceOnUse">
            <stop stop-color="#333"/>
            <stop offset="1"/>
        </linearGradient>
        <linearGradient id="ngiuf7mrvd" x1="20.194" y1="42.088" x2="20.194" y2="20.926" gradientUnits="userSpaceOnUse">
            <stop stop-color="#414142"/>
            <stop offset="1" stop-color="#272B2C"/>
        </linearGradient>
        <linearGradient id="kkd4y4dnge" x1="20.194" y1="21.383" x2="20.194" y2="40.981" gradientUnits="userSpaceOnUse">
            <stop stop-color="#333"/>
            <stop offset="1"/>
        </linearGradient>
        <linearGradient id="bn88il06hl" x1="18.051" y1="31.123" x2="18.051" y2="30.266" gradientUnits="userSpaceOnUse">
            <stop stop-color="#fff"/>
            <stop offset="1" stop-color="#231F20"/>
        </linearGradient>
        <linearGradient id="imbbm8f75n" x1="8.569" y1="31.238" x2="8.569" y2="29.144" gradientUnits="userSpaceOnUse">
            <stop stop-color="#fff"/>
            <stop offset=".53" stop-color="#231F20"/>
            <stop offset="1" stop-color="#fff"/>
        </linearGradient>
        <linearGradient id="keir6rh5wq" x1="25.031" y1="25.924" x2="4.715" y2="31.19" gradientUnits="userSpaceOnUse">
            <stop stop-color="#CF2128"/>
            <stop offset=".48" stop-color="#A11E21"/>
            <stop offset=".59" stop-color="#A41E22"/>
            <stop offset=".68" stop-color="#AF1F23"/>
            <stop offset=".77" stop-color="#C02026"/>
            <stop offset=".83" stop-color="#CF2128"/>
            <stop offset=".93" stop-color="#9A1C1F"/>
            <stop offset=".95" stop-color="#971C1F"/>
            <stop offset=".96" stop-color="#8E1B1D"/>
            <stop offset=".97" stop-color="#7E191B"/>
            <stop offset=".98" stop-color="#681719"/>
            <stop offset=".99" stop-color="#4B1415"/>
            <stop offset="1" stop-color="#331212"/>
        </linearGradient>
        <linearGradient id="3dmi7vl9zr" x1="10.345" y1="24.001" x2="21.158" y2="32.983" gradientUnits="userSpaceOnUse">
            <stop stop-color="#B92025"/>
            <stop offset=".02" stop-color="#D72027"/>
            <stop offset=".03" stop-color="#DD3131"/>
            <stop offset=".07" stop-color="#E95544"/>
            <stop offset=".09" stop-color="#F06B51"/>
            <stop offset=".11" stop-color="#F37355"/>
            <stop offset=".28" stop-color="#F05041"/>
            <stop offset=".48" stop-color="#ED2227"/>
            <stop offset=".71" stop-color="#ED2227"/>
            <stop offset="1" stop-color="#D72027"/>
        </linearGradient>
        <clipPath id="bje9hzkgha">
            <path fill="#fff" transform="translate(0 21)" d="M0 0h134v21H0z"/>
        </clipPath>
    </defs>
</svg>
