<svg width="190" height="50" viewBox="0 0 190 50" fill="none" xmlns="http://www.w3.org/2000/svg">
    <path d="M31.686 38.068c1.017.015 2.039.015 3.064 0 .325-.006.647-.066.953-.178a.636.636 0 0 0 .398-.662.746.746 0 0 0-.178-.496 1.535 1.535 0 0 0-.64-.387l-3.494-1.239c-.855-.323-1.456-.728-1.803-1.216a2.91 2.91 0 0 1-.52-1.746 2.668 2.668 0 0 1 .994-2.207c.665-.532 1.585-.81 2.766-.835.354-.014.733-.023 1.137-.023s.786 0 1.14.023a7.458 7.458 0 0 0 1.515-.056 3.588 3.588 0 0 0 1.114-.343v1.415c.007.23-.063.455-.2.64a1.51 1.51 0 0 1-.54.443 2.63 2.63 0 0 1-.786.253 4.055 4.055 0 0 1-.928.056c-.385 0-.797-.023-1.24-.023-.443 0-.855 0-1.237.023a2.042 2.042 0 0 0-.886.178.556.556 0 0 0-.278.462.555.555 0 0 0 .156.487c.187.142.396.254.618.331l3.405 1.217a4.597 4.597 0 0 1 1.746 1.094 2.641 2.641 0 0 1 .686 1.999c.018.515-.1 1.026-.343 1.48a2.784 2.784 0 0 1-.928.972c-.419.268-.883.457-1.37.557-.55.112-1.11.167-1.672.164h-2.588c-.355.01-.71-.035-1.05-.133a1.527 1.527 0 0 1-.641-.365 1.154 1.154 0 0 1-.312-.507 2.228 2.228 0 0 1-.076-.584v-.994c0-.086.045-.117.131-.086.278.089.563.152.853.186.342.051.688.085 1.034.1zM43.417 29.238c.917-.12 1.84-.18 2.764-.178 1.46 0 2.533.353 3.218 1.06.685.708 1.084 1.713 1.195 3.015.014.22.025.48.034.772.008.292 0 .59 0 .885v.863c0 .281-.02.529-.034.749a4.875 4.875 0 0 1-.476 1.8c-.242.49-.59.921-1.017 1.262-.434.338-.93.59-1.46.74a6.412 6.412 0 0 1-1.802.243c-.385 0-.767-.02-1.151-.056a16.528 16.528 0 0 1-1.215-.164v3.557a1.57 1.57 0 0 1-.234.96c-.153.198-.468.299-.939.299h-1.348V29.669a23.73 23.73 0 0 1 2.465-.431zm4.6 6.893c.046-.463.064-.927.056-1.392 0-.493-.025-.952-.056-1.392a2.201 2.201 0 0 0-.64-1.481 2.004 2.004 0 0 0-1.307-.462 7.226 7.226 0 0 0-1.337.03c-.404.053-.836.115-1.27.19v6.1c.422.094.85.163 1.28.208.36.045.722.07 1.084.078.512.032 1.02-.09 1.46-.354.438-.295.683-.81.741-1.533l-.01.008zM61.85 32.211a1.247 1.247 0 0 1 1.05.443c.235.314.37.691.388 1.083.013.175.022.395.022.651v1.615c0 .278 0 .504-.023.696a3.955 3.955 0 0 1-1.184 2.75c-.715.672-1.72 1.066-3.017 1.183-.34.028-.713.042-1.114.042-.401 0-.755-.014-1.05-.042-1.284-.148-2.257-.587-2.92-1.316-.663-.73-1.04-1.787-1.129-3.171a18.186 18.186 0 0 1-.044-1.314c0-.493.017-.933.044-1.314.076-1.392.493-2.467 1.262-3.238.77-.771 1.85-1.175 3.249-1.205.665-.013 1.248-.02 1.75-.023.498 0 .986 0 1.457.045a6.999 6.999 0 0 0 1.57-.078c.391-.06.771-.175 1.13-.342V30.2a1.113 1.113 0 0 1-.444.938 1.792 1.792 0 0 1-1.128.343h-3.85a2.788 2.788 0 0 0-1.672.51c-.474.339-.74.965-.797 1.878-.03.323-.044.685-.044 1.083 0 .398.014.758.044 1.083a2.466 2.466 0 0 0 .557 1.579 2.565 2.565 0 0 0 1.658.662h1.017a2.1 2.1 0 0 0 .354-.033c1.114-.175 1.719-.83 1.814-1.966 0-.147.022-.323.022-.531v-1.259c0-.206 0-.384-.022-.531a6 6 0 0 0-.134-.836 1.865 1.865 0 0 0-.485-.918l1.669.008zM65.831 31.615a2.536 2.536 0 0 1 .685-1.879c.457-.456 1.18-.684 2.168-.684h1.956c.17 0 .35-.023.557-.045a3.51 3.51 0 0 0 .557-.109c.165-.046.322-.118.465-.211v1.239c.01.253-.047.505-.167.729a1.376 1.376 0 0 1-.42.462c-.172.12-.368.204-.574.245a3.098 3.098 0 0 1-.63.067h-1.435a.538.538 0 0 0-.498.198.834.834 0 0 0-.12.442v7.116c.015.323-.07.643-.245.916-.162.228-.485.342-.973.342h-1.326v-8.828zM77.928 29.074h.906c.295 0 .615 0 .96-.045a2.04 2.04 0 0 0 .965-.331v1.325c.008.233-.05.464-.168.665-.105.17-.244.316-.41.43a1.53 1.53 0 0 1-.556.233c-.19.043-.383.065-.577.067h-1.114v5.832a.896.896 0 0 0 .32.796c.269.162.58.24.894.22.386.008.771-.022 1.15-.089a3.15 3.15 0 0 0 .686-.198c.059-.03.09-.014.09.045v1.236a1.135 1.135 0 0 1-.6 1.094c-.466.23-.982.34-1.501.32h-.399a3.275 3.275 0 0 1-2.29-.793c-.581-.531-.872-1.356-.872-2.475v-5.988h-1.88v-1.345a.903.903 0 0 1 1.017-.994h.863v-2.01a1.046 1.046 0 0 1 .21-.651.785.785 0 0 1 .673-.278h1.639l-.006 2.934zM85.027 38.068c1.017.014 2.04.014 3.064 0a2.93 2.93 0 0 0 .95-.178.632.632 0 0 0 .399-.662.743.743 0 0 0-.176-.496c-.18-.18-.4-.313-.643-.387l-3.494-1.239c-.855-.323-1.454-.729-1.802-1.216a2.926 2.926 0 0 1-.519-1.746 2.668 2.668 0 0 1 .995-2.207c.663-.533 1.584-.811 2.764-.835a28.96 28.96 0 0 1 1.14-.023c.406 0 .785 0 1.139.023a7.473 7.473 0 0 0 1.515-.056 3.57 3.57 0 0 0 1.115-.343v1.415c.007.23-.062.455-.198.64-.144.187-.33.338-.54.443-.248.125-.513.21-.786.253-.307.054-.62.073-.93.056-.382 0-.795-.023-1.238-.023-.443 0-.855 0-1.24.023a2.018 2.018 0 0 0-.883.178.556.556 0 0 0-.278.462.555.555 0 0 0 .153.487c.187.142.396.254.618.331l3.408 1.217a4.595 4.595 0 0 1 1.746 1.094 2.658 2.658 0 0 1 .686 1.999c.018.515-.1 1.026-.343 1.48a2.785 2.785 0 0 1-.927.972c-.42.267-.886.456-1.374.557-.55.112-1.11.167-1.672.164h-2.588c-.355.01-.71-.035-1.05-.133a1.545 1.545 0 0 1-.641-.365 1.146 1.146 0 0 1-.31-.507 2.105 2.105 0 0 1-.077-.584v-.994c0-.086.044-.117.133-.086.273.088.552.15.836.186.347.052.697.085 1.048.1z" fill="#ED1C24"/>
    <path d="m11.467 37.186-3.8-4.674 5.522-6.796h-3.017c-1.351 0-2.28.412-3.101 1.376l-2.909 3.577v-9.827h-2.92A1.246 1.246 0 0 0 0 22.086v18.332h2.92a1.246 1.246 0 0 0 1.242-1.244v-4.878l2.366 2.901 2.011 2.478a1.88 1.88 0 0 0 1.488.743H14.1l-2.633-3.232z" fill="url(#9s8vyuhg4a)"/>
    <path d="M13.075 39.817c-.24-.26-1.176-1.495-2.352-2.882-1.554-1.834-3.142-3.933-3.538-4.401.61-.746 4.572-5.62 5.043-6.197l.209-.245h-2.421a3.652 3.652 0 0 0-2.63 1.203l-3.472 4.267a.062.062 0 0 1-.05.025.067.067 0 0 1-.067-.066v-10.3H1.243a.883.883 0 0 0-.878.882v17.97H2.92a.88.88 0 0 0 .877-.886v-5.82a.067.067 0 0 1 .067-.067.058.058 0 0 1 .048.02l2.93 3.618 2.04 2.506a1.71 1.71 0 0 0 1.22.629h3.204l-.231-.256z" fill="url(#jp0n2dkm1b)"/>
    <path d="M18.956 40.418c-2.254 0-3.803-1.548-3.803-3.797V22.083a1.244 1.244 0 0 1 1.246-1.241h2.92v15a1.113 1.113 0 0 0 1.114 1.113h2.973v2.227a1.244 1.244 0 0 1-1.246 1.241l-3.204-.005z" fill="url(#q2efkpnq6c)"/>
    <path d="M18.956 40.059c-2.05 0-3.438-1.392-3.438-3.438V22.083a.882.882 0 0 1 .88-.882h2.558v14.64a1.482 1.482 0 0 0 1.48 1.484h2.607v1.851a.88.88 0 0 1-.88.883h-3.207z" fill="url(#uoreg4bfyd)"/>
    <path style="mix-blend-mode:screen" opacity=".5" d="M.415 27.197h-.05V40.04h.05V27.197z" fill="url(#v5r1n7qeae)"/>
    <path style="mix-blend-mode:screen" opacity=".25" d="M.68 40.059h2.279a.892.892 0 0 0 .836-.922v-5.723h-.05v5.718a.857.857 0 0 1-.789.866H.68v.06z" fill="url(#5ajiqwwqjf)"/>
    <path style="mix-blend-mode:screen" opacity=".25" d="M15.557 27.091v-5.066a.835.835 0 0 1 .775-.771H18.9l.053-.056H16.34a.897.897 0 0 0-.836.835V27.1l.053-.009z" fill="url(#91oce6xz2g)"/>
    <path style="mix-blend-mode:screen" opacity=".25" d="M15.557 36.704v-9.573h-.05v9.573h.05z" fill="url(#xr4ghxmgjh)"/>
    <path style="mix-blend-mode:screen" opacity=".5" d="M18.9 35.669c-.004.176.013.353.05.526.067.312.236.593.48.799.318.263.723.399 1.136.381h2.469v-.05h-2.508a1.497 1.497 0 0 1-1.22-.518 1.455 1.455 0 0 1-.317-.626 2.371 2.371 0 0 1-.04-.515l-.05.003z" fill="url(#8clbw5sehi)"/>
    <path style="mix-blend-mode:screen" opacity=".25" d="M22.121 40.006h-3.22c-1.97 0-3.316-1.336-3.316-3.299h-.053c0 1.99 1.37 3.355 3.368 3.355h3.213l.008-.056z" fill="url(#i3p3gomlqj)"/>
    <path style="mix-blend-mode:multiply" d="M15.518 30.407h3.438v-2.199h-3.438v2.2z" fill="url(#duygwriwuk)"/>
    <path style="mix-blend-mode:screen" opacity=".25" d="m7.16 32.526 5.12-6.295h-.066c-.134.162-5.101 6.275-5.101 6.275l.047.02z" fill="url(#trbzmx81bl)"/>
    <path style="mix-blend-mode:multiply" d="M9.985 26.05a3.541 3.541 0 0 0-2.546 1.164L3.98 31.465 7.2 32.498s4.67-5.746 5.188-6.378c-.627 0-2.402-.07-2.402-.07z" fill="url(#gyyv0zksdm)"/>
    <path style="mix-blend-mode:screen" opacity=".25" d="M8.935 39.477a1.672 1.672 0 0 0 1.156.579h2.814l-.047-.053H10.09a1.895 1.895 0 0 1-1.156-.526z" fill="url(#7mxut7fp6n)"/>
    <path style="mix-blend-mode:screen" opacity=".25" d="M3.485 21.206H1.206a.89.89 0 0 0-.835.92v5.845h.053v-5.846a.854.854 0 0 1 .788-.866h2.279l-.006-.053z" fill="url(#ezxnv7cn2o)"/>
    <path d="M20.714 26.203H9.812c-1.476 0-2.451.524-3.14 1.362l-2.108 2.597a4.839 4.839 0 0 1 2.891-.924h13.26c1.67 0 3.295-.515 3.295-1.837a11.243 11.243 0 0 0-.15-2.052s-.78.854-3.146.854z" fill="url(#0h0n5eqq7p)"/>
    <path d="m4.591 30.132 2.441-3.001c.602-.738 1.393-1.423 3.065-1.423H20.71c2.246 0 3.029-.796 3.037-.802l.26-.278v2.764c-.002.299-.121.585-.332.797-.513.556-1.51.835-2.965.835H7.436a4.49 4.49 0 0 0-2.845 1.108z" fill="url(#rhacehuqlq)"/>
    <path style="mix-blend-mode:screen" opacity=".7" d="M23.99 27.537c0 .278-.364 1.442-3.276 1.442H7.642a4.287 4.287 0 0 0-3.04 1.13l-.022.025a4.499 4.499 0 0 1 3.065-1.1h13.072c3.285 0 3.276-1.494 3.276-1.494l-.002-.003z" fill="url(#l1n54uwnjr)"/>
    <defs>
        <radialGradient id="v5r1n7qeae" cx="0" cy="0" r="1" gradientUnits="userSpaceOnUse" gradientTransform="matrix(5.18494 0 0 5.18089 .26 33.05)">
            <stop stop-color="#fff"/>
            <stop offset="1" stop-color="#231F20"/>
        </radialGradient>
        <radialGradient id="5ajiqwwqjf" cx="0" cy="0" r="1" gradientUnits="userSpaceOnUse" gradientTransform="matrix(2.67584 0 0 2.67375 3.347 39.612)">
            <stop stop-color="#fff"/>
            <stop offset="1" stop-color="#231F20"/>
        </radialGradient>
        <radialGradient id="91oce6xz2g" cx="0" cy="0" r="1" gradientUnits="userSpaceOnUse" gradientTransform="matrix(3.97009 0 0 3.96699 15.487 21.224)">
            <stop stop-color="#fff"/>
            <stop offset="1" stop-color="#231F20"/>
        </radialGradient>
        <radialGradient id="xr4ghxmgjh" cx="0" cy="0" r="1" gradientUnits="userSpaceOnUse" gradientTransform="matrix(3.86671 0 0 3.86385 15.39 31.437)">
            <stop stop-color="#fff"/>
            <stop offset="1" stop-color="#231F20"/>
        </radialGradient>
        <radialGradient id="8clbw5sehi" cx="0" cy="0" r="1" gradientUnits="userSpaceOnUse" gradientTransform="matrix(1.95064 0 0 1.94911 19.955 37.057)">
            <stop stop-color="#fff"/>
            <stop offset="1" stop-color="#231F20"/>
        </radialGradient>
        <radialGradient id="i3p3gomlqj" cx="0" cy="0" r="1" gradientUnits="userSpaceOnUse" gradientTransform="matrix(3.58631 0 0 3.58352 18.24 39.662)">
            <stop stop-color="#fff"/>
            <stop offset="1" stop-color="#231F20"/>
        </radialGradient>
        <radialGradient id="trbzmx81bl" cx="0" cy="0" r="1" gradientUnits="userSpaceOnUse" gradientTransform="matrix(1.82624 0 0 1.82482 8.193 30.816)">
            <stop stop-color="#fff"/>
            <stop offset="1" stop-color="#231F20"/>
        </radialGradient>
        <radialGradient id="7mxut7fp6n" cx="0" cy="0" r="1" gradientUnits="userSpaceOnUse" gradientTransform="matrix(2.4297 0 0 2.4278 9.667 39.818)">
            <stop stop-color="#fff"/>
            <stop offset="1" stop-color="#231F20"/>
        </radialGradient>
        <radialGradient id="ezxnv7cn2o" cx="0" cy="0" r="1" gradientUnits="userSpaceOnUse" gradientTransform="matrix(-2.69437 0 0 -2.69227 3.126 23.916)">
            <stop stop-color="#fff"/>
            <stop offset="1" stop-color="#231F20"/>
        </radialGradient>
        <radialGradient id="l1n54uwnjr" cx="0" cy="0" r="1" gradientUnits="userSpaceOnUse" gradientTransform="matrix(18.5297 0 0 18.5153 5.101 29.158)">
            <stop stop-color="#010101"/>
            <stop offset=".24" stop-color="#fff"/>
            <stop offset=".76" stop-color="#fff"/>
            <stop offset=".78" stop-color="#FAFAFA"/>
            <stop offset=".81" stop-color="#ECECEC"/>
            <stop offset=".85" stop-color="#D4D4D4"/>
            <stop offset=".88" stop-color="#B3B3B3"/>
            <stop offset=".91" stop-color="#898989"/>
            <stop offset=".95" stop-color="#555"/>
            <stop offset=".99" stop-color="#191919"/>
            <stop offset="1" stop-color="#010101"/>
        </radialGradient>
        <linearGradient id="9s8vyuhg4a" x1="7.051" y1="45.941" x2="7.051" y2="15.873" gradientUnits="userSpaceOnUse">
            <stop stop-color="#414142"/>
            <stop offset="1" stop-color="#272B2C"/>
        </linearGradient>
        <linearGradient id="jp0n2dkm1b" x1="6.837" y1="16.983" x2="6.837" y2="44.329" gradientUnits="userSpaceOnUse">
            <stop stop-color="#333"/>
            <stop offset="1"/>
        </linearGradient>
        <linearGradient id="q2efkpnq6c" x1="19.282" y1="40.755" x2="19.282" y2="20.77" gradientUnits="userSpaceOnUse">
            <stop stop-color="#414142"/>
            <stop offset="1" stop-color="#272B2C"/>
        </linearGradient>
        <linearGradient id="uoreg4bfyd" x1="19.279" y1="21.201" x2="19.279" y2="39.711" gradientUnits="userSpaceOnUse">
            <stop stop-color="#333"/>
            <stop offset="1"/>
        </linearGradient>
        <linearGradient id="duygwriwuk" x1="17.237" y1="30.402" x2="17.237" y2="29.592" gradientUnits="userSpaceOnUse">
            <stop stop-color="#fff"/>
            <stop offset="1" stop-color="#231F20"/>
        </linearGradient>
        <linearGradient id="gyyv0zksdm" x1="8.183" y1="30.507" x2="8.183" y2="28.531" gradientUnits="userSpaceOnUse">
            <stop stop-color="#fff"/>
            <stop offset=".53" stop-color="#231F20"/>
            <stop offset="1" stop-color="#fff"/>
        </linearGradient>
        <linearGradient id="0h0n5eqq7p" x1="23.899" y1="25.491" x2="4.529" y2="30.565" gradientUnits="userSpaceOnUse">
            <stop stop-color="#CF2128"/>
            <stop offset=".48" stop-color="#A11E21"/>
            <stop offset=".59" stop-color="#A41E22"/>
            <stop offset=".68" stop-color="#AF1F23"/>
            <stop offset=".77" stop-color="#C02026"/>
            <stop offset=".83" stop-color="#CF2128"/>
            <stop offset=".93" stop-color="#9A1C1F"/>
            <stop offset=".95" stop-color="#971C1F"/>
            <stop offset=".96" stop-color="#8E1B1D"/>
            <stop offset=".97" stop-color="#7E191B"/>
            <stop offset=".98" stop-color="#681719"/>
            <stop offset=".99" stop-color="#4B1415"/>
            <stop offset="1" stop-color="#331212"/>
        </linearGradient>
        <linearGradient id="rhacehuqlq" x1="9.879" y1="23.676" x2="20.109" y2="32.266" gradientUnits="userSpaceOnUse">
            <stop stop-color="#B92025"/>
            <stop offset=".02" stop-color="#D72027"/>
            <stop offset=".03" stop-color="#DD3131"/>
            <stop offset=".07" stop-color="#E95544"/>
            <stop offset=".09" stop-color="#F06B51"/>
            <stop offset=".11" stop-color="#F37355"/>
            <stop offset=".28" stop-color="#F05041"/>
            <stop offset=".48" stop-color="#ED2227"/>
            <stop offset=".71" stop-color="#ED2227"/>
            <stop offset="1" stop-color="#D72027"/>
        </linearGradient>
    </defs>
</svg>
