<svg width="190" height="50" viewBox="0 0 190 50" fill="none" xmlns="http://www.w3.org/2000/svg">
    <g clip-path="url(#lpjbiyazva)">
        <path d="m11.506 37.191-3.818-4.63 5.541-6.73H10.2c-1.359 0-2.288.407-3.113 1.362l-2.909 3.541V21h-2.93a1.261 1.261 0 0 0-.882.364 1.226 1.226 0 0 0-.365.87v18.15h2.93a1.26 1.26 0 0 0 .883-.364c.233-.231.364-.545.364-.871v-4.82l2.374 2.873 2.019 2.453c.174.228.4.413.658.54.259.129.544.196.834.197h4.088l-2.644-3.2z" fill="url(#h4tt9p4wxb)"/>
        <path d="M13.12 39.787c-.236-.258-1.179-1.482-2.358-2.857-1.562-1.815-3.154-3.894-3.55-4.359.61-.737 4.587-5.565 5.06-6.137l.21-.242H10.05c-.499.01-.99.12-1.445.324a3.656 3.656 0 0 0-1.195.864l-3.486 4.229a.069.069 0 0 1-.05.022.067.067 0 0 1-.048-.02.066.066 0 0 1-.02-.046V21.363h-2.56a.893.893 0 0 0-.623.258.869.869 0 0 0-.258.616V40.03h2.566a.894.894 0 0 0 .623-.26.872.872 0 0 0 .255-.617v-5.745a.065.065 0 0 1 .042-.06.066.066 0 0 1 .025-.006c.019 0 .037.008.05.02l2.94 3.574 2.047 2.475a1.711 1.711 0 0 0 1.227.625h3.212l-.231-.248z" fill="url(#pz2q3iqt2c)"/>
        <path d="M19.024 40.395c-2.259 0-3.818-1.535-3.818-3.762V22.232c.001-.327.133-.64.367-.87.234-.231.552-.361.883-.362H19.4v14.85c0 .29.117.57.326.777.21.206.493.322.79.322H23.5v2.2c0 .327-.133.64-.368.871a1.26 1.26 0 0 1-.884.361l-3.224.014z" fill="url(#v05ycpzkud)"/>
        <path d="M19.024 40.029c-2.058 0-3.452-1.375-3.452-3.404V22.232c0-.231.094-.452.26-.616a.894.894 0 0 1 .624-.256h2.568v14.5c0 .39.157.762.435 1.038a1.5 1.5 0 0 0 1.052.43h2.618v1.835a.871.871 0 0 1-.26.617.896.896 0 0 1-.627.257l-3.218-.008z" fill="url(#ukjdu43exe)"/>
        <path style="mix-blend-mode:screen" opacity=".5" d="M.418 27.294h-.05v12.719h.05V27.294z" fill="url(#rkam0l4iqf)"/>
        <path style="mix-blend-mode:screen" opacity=".25" d="M.68 40.029h2.29a.897.897 0 0 0 .607-.288.873.873 0 0 0 .23-.625v-5.665h-.05v5.665a.84.84 0 0 1-.223.583.864.864 0 0 1-.567.275H.677l.003.055z" fill="url(#vqq0ciajeg)"/>
        <path style="mix-blend-mode:screen" opacity=".25" d="M15.625 27.193v-5.019a.82.82 0 0 1 .245-.524.842.842 0 0 1 .533-.237h2.568l.053-.053h-2.621a.906.906 0 0 0-.575.258.883.883 0 0 0-.262.567v5.019l.059-.011z" fill="url(#djtnx5dz6h)"/>
        <path style="mix-blend-mode:screen" opacity=".25" d="M15.625 36.713V27.23h-.053v9.482h.053z" fill="url(#bw9kz4f5ui)"/>
        <path style="mix-blend-mode:screen" opacity=".5" d="M18.968 35.69c-.003.175.014.35.05.522.071.308.24.584.483.79.32.26.726.394 1.14.376h2.477v-.05h-2.51a1.528 1.528 0 0 1-1.227-.516 1.445 1.445 0 0 1-.318-.62 2.314 2.314 0 0 1-.039-.508l-.056.006z" fill="url(#4bzd1behmj)"/>
        <path style="mix-blend-mode:screen" opacity=".25" d="M22.203 39.985h-3.226c-1.977 0-3.327-1.325-3.327-3.27h-.053c0 1.972 1.375 3.325 3.38 3.325h3.226v-.055z" fill="url(#rnn7o9i3uk)"/>
        <path style="mix-blend-mode:multiply" d="M15.572 30.479h3.452V28.3h-3.452v2.178z" fill="url(#gt6ijnqzml)"/>
        <path style="mix-blend-mode:screen" opacity=".25" d="m7.186 32.574 5.14-6.234h-.067c-.131.163-5.12 6.215-5.12 6.215l.047.02z" fill="url(#vkihjeuj7m)"/>
        <path style="mix-blend-mode:multiply" d="M10.028 26.162c-.483.01-.96.118-1.399.316a3.56 3.56 0 0 0-1.158.836l-3.478 4.218 3.224 1.017s4.688-5.692 5.21-6.324c-.625.005-2.399-.064-2.399-.064z" fill="url(#xdl7w5lz4n)"/>
        <path style="mix-blend-mode:screen" opacity=".25" d="M8.968 39.46a1.654 1.654 0 0 0 1.158.575h2.827l-.05-.052h-2.789a1.891 1.891 0 0 1-1.157-.523h.011z" fill="url(#gm3r5u46qo)"/>
        <path style="mix-blend-mode:screen" opacity=".25" d="M3.505 21.363h-2.29a.9.9 0 0 0-.605.289.876.876 0 0 0-.23.624v5.788h.052v-5.788a.84.84 0 0 1 .222-.585.863.863 0 0 1 .567-.276h2.284v-.052z" fill="url(#5yvjffr1bp)"/>
        <path d="M20.795 26.313H9.855c-1.483 0-2.462.517-3.154 1.344l-2.116 2.574a4.912 4.912 0 0 1 2.897-.926h13.313c1.687 0 3.31-.51 3.31-1.82.013-.681-.038-1.362-.153-2.033 0 0-.798.86-3.157.86z" fill="url(#7mgoh28qkq)"/>
        <path d="m4.62 30.204 2.45-2.973c.604-.731 1.394-1.408 3.067-1.408h10.658c2.253 0 3.04-.789 3.048-.794l.26-.275v2.736c-.002.296-.122.58-.335.789-.513.55-1.514.839-2.973.839H7.462a4.54 4.54 0 0 0-2.841 1.086z" fill="url(#jlo1m2behr)"/>
        <path style="mix-blend-mode:screen" opacity=".7" d="M24.08 27.635c-.014.275-.368 1.428-3.29 1.428H7.683a4.335 4.335 0 0 0-3.062 1.119l-.022.024a4.55 4.55 0 0 1 3.067-1.1h13.107c3.296 0 3.29-1.479 3.29-1.479l.017.008z" fill="url(#i1064738fs)"/>
        <path d="M31.95 38.052c1.02.014 2.05.014 3.087 0 .325-.006.648-.066.953-.176a.635.635 0 0 0 .313-.262.623.623 0 0 0 .086-.395.728.728 0 0 0-.178-.493 1.6 1.6 0 0 0-.642-.382l-3.508-1.226c-.859-.321-1.462-.723-1.81-1.205a2.862 2.862 0 0 1-.521-1.727 2.625 2.625 0 0 1 .232-1.218c.173-.382.436-.718.766-.982.668-.526 1.597-.8 2.789-.824.354-.014.733-.022 1.14-.022.408 0 .79 0 1.144.022a7.645 7.645 0 0 0 1.523-.055 3.662 3.662 0 0 0 1.115-.339v1.4c.006.228-.064.451-.2.635-.145.186-.331.335-.545.438a2.742 2.742 0 0 1-.786.252c-.309.051-.622.07-.934.055a29.304 29.304 0 0 0-1.244-.022c-.446 0-.859 0-1.244.022-.305-.009-.608.05-.886.174a.63.63 0 0 0-.288.44.616.616 0 0 0 .154.503c.189.14.398.25.621.327l3.42 1.205c.66.224 1.26.595 1.754 1.083a2.626 2.626 0 0 1 .688 1.98 2.89 2.89 0 0 1-.343 1.468c-.227.391-.548.721-.934.963-.421.26-.887.44-1.375.536a8.201 8.201 0 0 1-1.673.165h-2.596a3.51 3.51 0 0 1-1.054-.132 1.63 1.63 0 0 1-.645-.36 1.123 1.123 0 0 1-.331-.503 2.05 2.05 0 0 1-.078-.578v-.965c0-.085.044-.116.133-.085.278.088.564.15.854.184.345.05.694.084 1.043.099zM45.773 34.395c.418.453.853.937 1.313 1.457l1.395 1.565c.468.525.928 1.045 1.394 1.553.466.509.89.985 1.288 1.425h-2.442a1.62 1.62 0 0 1-1.244-.57l-3.776-4.27v3.809a.998.998 0 0 1-.298.734 1.024 1.024 0 0 1-.745.297h-1.506v-13.42c0-.176 0-.401.034-.679.021-.276.081-.548.178-.808.088-.252.227-.483.41-.68a.944.944 0 0 1 .73-.274h1.716a2.97 2.97 0 0 0-.421 1.1 7.455 7.455 0 0 0-.112 1.325v6.278l3.642-3.575c.192-.217.443-.376.722-.46a4.28 4.28 0 0 1 .837-.065h2.197l-5.312 5.258zM55.29 44.979l1.602-5.099a2.327 2.327 0 0 1-1.055-.503c-.37-.34-.642-.77-.789-1.248l-2.953-8.123a.85.85 0 0 1-.045-.591c.076-.188.26-.275.558-.275h1.777l2.908 8.34c.023.072.053.142.09.209a.163.163 0 0 0 .153.077c.089 0 .164-.096.223-.275l1.843-6.13c.078-.26.171-.516.279-.767.106-.251.241-.49.402-.712.151-.208.34-.386.557-.525.214-.138.464-.21.72-.206h2c-.37.25-.668.589-.868.984a9.087 9.087 0 0 0-.666 1.554l-3.95 12.325a1.902 1.902 0 0 1-.434.745c-.2.17-.46.256-.723.239l-1.628-.02zM67.324 24.5v12.74c-.013.267.066.53.223.746a.788.788 0 0 0 .664.275h.178c.371 0 .706-.017 1.01-.044a2.8 2.8 0 0 0 .853-.22c.061-.03.092-.014.092.044v1.163a1.19 1.19 0 0 1-.13.602 1.21 1.21 0 0 1-.414.46 2.453 2.453 0 0 1-1.394.36h-.594a3.25 3.25 0 0 1-1.411-.275 2.466 2.466 0 0 1-.91-.734 2.849 2.849 0 0 1-.487-1.051 5.079 5.079 0 0 1-.145-1.226V25.529a.997.997 0 0 1 .613-.957.982.982 0 0 1 .399-.071h1.453zM74.761 26.733a1.009 1.009 0 0 1-.279.735 1.028 1.028 0 0 1-.775.297H72.24v-1.76c0-.701.343-1.053 1.024-1.053h1.508l-.01 1.781zm0 2.41v9.981c.034.346-.052.694-.245.985-.162.19-.488.275-.976.275h-1.31V30.149a1.005 1.005 0 0 1 .278-.735 1 1 0 0 1 .756-.274l1.497.002zM81.354 29.142h.886c1.333 0 2.17-.138 2.51-.415v1.375c.01.221-.05.44-.172.625-.121.186-.298.33-.505.415a4.11 4.11 0 0 1-1.743.318h-.976v7.9c0 .688-.346 1.032-1.043 1.032h-1.487v-8.929h-2.331V30.15c0-.671.346-1.007 1.043-1.007h1.288v-1.487c-.007-.447.08-.891.254-1.304.157-.368.389-.7.681-.977a2.98 2.98 0 0 1 1.017-.631 3.499 3.499 0 0 1 1.244-.22h2.73v1.072a1.209 1.209 0 0 1-.373.96 1.449 1.449 0 0 1-.98.327h-1.196a.95.95 0 0 0-.61.187.75.75 0 0 0-.234.621l-.003 1.452zM90.255 38.294c.34.027.734.038 1.177.03.443-.008.836-.016 1.177-.03.256-.003.512-.021.767-.055.278-.039.574-.077.853-.121.262-.04.522-.095.778-.165a2.81 2.81 0 0 0 .558-.206c.058-.03.089-.017.089.04v1.205a1.086 1.086 0 0 1-.335.825c-.28.243-.615.42-.976.514a5.928 5.928 0 0 1-.836.176c-.321.042-.656.075-1.013.097-.357.022-.72.033-1.098.033h-1.077c-1.257 0-2.28-.354-3.067-1.062-.789-.707-1.203-1.696-1.244-2.964a30.134 30.134 0 0 1-.045-1.807c.002-.654.017-1.256.045-1.806a3.78 3.78 0 0 1 .338-1.526c.218-.48.534-.911.928-1.266.797-.724 2.006-1.085 3.625-1.083h.798a5.742 5.742 0 0 1 1.673.24c.494.146.96.376 1.375.678a3.1 3.1 0 0 1 .934 1.111c.218.438.328.92.32 1.408v.897c0 .962-.295 1.666-.886 2.112-.591.445-1.516.668-2.775.668h-3.856v.374c0 .186.025.37.075.55.054.193.149.373.279.528.15.174.335.315.543.415.275.123.574.188.876.19zm3.285-5.604a1.023 1.023 0 0 0-.519-.91 2.538 2.538 0 0 0-1.374-.339h-.734c-.39-.009-.779.04-1.154.143-.271.074-.524.2-.745.371-.17.136-.306.308-.399.504-.078.173-.118.36-.12.55v.896h3.818c.297.005.594-.017.887-.066.237-.044.354-.203.354-.481l-.014-.668z" fill="#ED1C24"/>
    </g>
    <defs>
        <radialGradient id="rkam0l4iqf" cx="0" cy="0" r="1" gradientUnits="userSpaceOnUse" gradientTransform="matrix(5.21825 0 0 5.14563 .645 33.542)">
            <stop stop-color="#fff"/>
            <stop offset="1" stop-color="#231F20"/>
        </radialGradient>
        <radialGradient id="vqq0ciajeg" cx="0" cy="0" r="1" gradientUnits="userSpaceOnUse" gradientTransform="matrix(2.69549 0 0 2.65798 3.754 40.063)">
            <stop stop-color="#fff"/>
            <stop offset="1" stop-color="#231F20"/>
        </radialGradient>
        <radialGradient id="djtnx5dz6h" cx="0" cy="0" r="1" gradientUnits="userSpaceOnUse" gradientTransform="matrix(3.99551 0 0 3.93991 15.968 21.802)">
            <stop stop-color="#fff"/>
            <stop offset="1" stop-color="#231F20"/>
        </radialGradient>
        <radialGradient id="bw9kz4f5ui" cx="0" cy="0" r="1" gradientUnits="userSpaceOnUse" gradientTransform="matrix(3.89101 0 0 3.83681 15.868 31.941)">
            <stop stop-color="#fff"/>
            <stop offset="1" stop-color="#231F20"/>
        </radialGradient>
        <radialGradient id="4bzd1behmj" cx="0" cy="0" r="1" gradientUnits="userSpaceOnUse" gradientTransform="matrix(1.95912 0 0 1.93185 20.464 37.526)">
            <stop stop-color="#fff"/>
            <stop offset="1" stop-color="#231F20"/>
        </radialGradient>
        <radialGradient id="rnn7o9i3uk" cx="0" cy="0" r="1" gradientUnits="userSpaceOnUse" gradientTransform="matrix(3.60914 0 0 3.55891 18.736 40.112)">
            <stop stop-color="#fff"/>
            <stop offset="1" stop-color="#231F20"/>
        </radialGradient>
        <radialGradient id="vkihjeuj7m" cx="0" cy="0" r="1" gradientUnits="userSpaceOnUse" gradientTransform="matrix(1.83639 0 0 1.81083 8.627 31.327)">
            <stop stop-color="#fff"/>
            <stop offset="1" stop-color="#231F20"/>
        </radialGradient>
        <radialGradient id="gm3r5u46qo" cx="0" cy="0" r="1" gradientUnits="userSpaceOnUse" gradientTransform="matrix(2.44549 0 0 2.41263 10.11 40.265)">
            <stop stop-color="#fff"/>
            <stop offset="1" stop-color="#231F20"/>
        </radialGradient>
        <radialGradient id="5yvjffr1bp" cx="0" cy="0" r="1" gradientUnits="userSpaceOnUse" gradientTransform="matrix(-2.71367 0 0 -2.67591 -1.603 19.462)">
            <stop stop-color="#fff"/>
            <stop offset="1" stop-color="#231F20"/>
        </radialGradient>
        <radialGradient id="i1064738fs" cx="0" cy="0" r="1" gradientUnits="userSpaceOnUse" gradientTransform="matrix(18.6457 0 0 18.3862 5.518 29.682)">
            <stop stop-color="#010101"/>
            <stop offset=".24" stop-color="#fff"/>
            <stop offset=".76" stop-color="#fff"/>
            <stop offset=".78" stop-color="#FAFAFA"/>
            <stop offset=".81" stop-color="#ECECEC"/>
            <stop offset=".85" stop-color="#D4D4D4"/>
            <stop offset=".88" stop-color="#B3B3B3"/>
            <stop offset=".91" stop-color="#898989"/>
            <stop offset=".95" stop-color="#555"/>
            <stop offset=".99" stop-color="#191919"/>
            <stop offset="1" stop-color="#010101"/>
        </radialGradient>
        <linearGradient id="h4tt9p4wxb" x1="7.075" y1="45.864" x2="7.075" y2="16.081" gradientUnits="userSpaceOnUse">
            <stop stop-color="#414142"/>
            <stop offset="1" stop-color="#272B2C"/>
        </linearGradient>
        <linearGradient id="pz2q3iqt2c" x1="6.86" y1="17.18" x2="6.86" y2="44.267" gradientUnits="userSpaceOnUse">
            <stop stop-color="#333"/>
            <stop offset="1"/>
        </linearGradient>
        <linearGradient id="v05ycpzkud" x1="19.351" y1="40.727" x2="19.351" y2="20.931" gradientUnits="userSpaceOnUse">
            <stop stop-color="#414142"/>
            <stop offset="1" stop-color="#272B2C"/>
        </linearGradient>
        <linearGradient id="ukjdu43exe" x1="19.351" y1="21.36" x2="19.351" y2="39.694" gradientUnits="userSpaceOnUse">
            <stop stop-color="#333"/>
            <stop offset="1"/>
        </linearGradient>
        <linearGradient id="gt6ijnqzml" x1="17.298" y1="30.471" x2="17.298" y2="29.67" gradientUnits="userSpaceOnUse">
            <stop stop-color="#fff"/>
            <stop offset="1" stop-color="#231F20"/>
        </linearGradient>
        <linearGradient id="xdl7w5lz4n" x1="8.21" y1="30.575" x2="8.21" y2="28.617" gradientUnits="userSpaceOnUse">
            <stop stop-color="#fff"/>
            <stop offset=".53" stop-color="#231F20"/>
            <stop offset="1" stop-color="#fff"/>
        </linearGradient>
        <linearGradient id="7mgoh28qkq" x1="23.985" y1="25.609" x2="4.578" y2="30.761" gradientUnits="userSpaceOnUse">
            <stop stop-color="#CF2128"/>
            <stop offset=".48" stop-color="#A11E21"/>
            <stop offset=".59" stop-color="#A41E22"/>
            <stop offset=".68" stop-color="#AF1F23"/>
            <stop offset=".77" stop-color="#C02026"/>
            <stop offset=".83" stop-color="#CF2128"/>
            <stop offset=".93" stop-color="#9A1C1F"/>
            <stop offset=".95" stop-color="#971C1F"/>
            <stop offset=".96" stop-color="#8E1B1D"/>
            <stop offset=".97" stop-color="#7E191B"/>
            <stop offset=".98" stop-color="#681719"/>
            <stop offset=".99" stop-color="#4B1415"/>
            <stop offset="1" stop-color="#331212"/>
        </linearGradient>
        <linearGradient id="jlo1m2behr" x1="9.914" y1="23.808" x2="20.071" y2="32.45" gradientUnits="userSpaceOnUse">
            <stop stop-color="#B92025"/>
            <stop offset=".02" stop-color="#D72027"/>
            <stop offset=".03" stop-color="#DD3131"/>
            <stop offset=".07" stop-color="#E95544"/>
            <stop offset=".09" stop-color="#F06B51"/>
            <stop offset=".11" stop-color="#F37355"/>
            <stop offset=".28" stop-color="#F05041"/>
            <stop offset=".48" stop-color="#ED2227"/>
            <stop offset=".71" stop-color="#ED2227"/>
            <stop offset="1" stop-color="#D72027"/>
        </linearGradient>
        <clipPath id="lpjbiyazva">
            <path fill="#fff" transform="translate(0 21)" d="M0 0h96v24H0z"/>
        </clipPath>
    </defs>
</svg>
